<svg width="60" height="60" viewBox="0 0 60 60" fill="none" xmlns="http://www.w3.org/2000/svg">
<path fill-rule="evenodd" clip-rule="evenodd" d="M30 0C13.4315 0 0 13.4315 0 30C0 46.5685 13.4315 60 30 60C46.5685 60 60 46.5685 60 30C60 13.4315 46.5685 0 30 0ZM23.4041 14.0967C25.1108 14.019 25.6561 14 30.0015 14H29.9965C34.3432 14 34.8866 14.019 36.5932 14.0967C38.2966 14.1747 39.4599 14.4443 40.4799 14.84C41.5333 15.2483 42.4233 15.795 43.3133 16.685C44.2033 17.5744 44.75 18.467 45.16 19.5194C45.5533 20.5367 45.8233 21.6994 45.9033 23.4028C45.98 25.1094 46 25.6548 46 30.0002C46 34.3455 45.98 34.8895 45.9033 36.5962C45.8233 38.2989 45.5533 39.4619 45.16 40.4796C44.75 41.5316 44.2033 42.4243 43.3133 43.3136C42.4243 44.2036 41.533 44.7517 40.4809 45.1603C39.4629 45.556 38.2989 45.8257 36.5956 45.9037C34.8889 45.9813 34.3452 46.0003 29.9995 46.0003C25.6545 46.0003 25.1094 45.9813 23.4028 45.9037C21.6997 45.8257 20.5367 45.556 19.5187 45.1603C18.467 44.7517 17.5744 44.2036 16.6854 43.3136C15.7957 42.4243 15.249 41.5316 14.84 40.4793C14.4447 39.4619 14.175 38.2993 14.0967 36.5959C14.0193 34.8892 14 34.3455 14 30.0002C14 25.6548 14.02 25.1091 14.0963 23.4024C14.173 21.6997 14.443 20.5367 14.8397 19.5191C15.2497 18.467 15.7964 17.5744 16.6864 16.685C17.5757 15.7954 18.4684 15.2487 19.5207 14.84C20.5381 14.4443 21.7007 14.1747 23.4041 14.0967Z" fill="white"/>
<path fill-rule="evenodd" clip-rule="evenodd" d="M28.5662 16.8834C28.8449 16.883 29.1447 16.8831 29.4683 16.8832L30.0016 16.8834C34.2736 16.8834 34.78 16.8987 36.467 16.9754C38.027 17.0467 38.8737 17.3074 39.4377 17.5264C40.1843 17.8164 40.7167 18.1631 41.2764 18.7231C41.8364 19.2831 42.183 19.8164 42.4737 20.5631C42.6927 21.1264 42.9537 21.9731 43.0247 23.5331C43.1014 25.2198 43.118 25.7265 43.118 29.9965C43.118 34.2666 43.1014 34.7732 43.0247 36.4599C42.9534 38.0199 42.6927 38.8666 42.4737 39.43C42.1837 40.1766 41.8364 40.7083 41.2764 41.268C40.7163 41.828 40.1847 42.1747 39.4377 42.4647C38.8743 42.6847 38.027 42.9447 36.467 43.016C34.7803 43.0927 34.2736 43.1093 30.0016 43.1093C25.7292 43.1093 25.2229 43.0927 23.5362 43.016C21.9762 42.944 21.1295 42.6833 20.5651 42.4643C19.8185 42.1743 19.2851 41.8277 18.7251 41.2676C18.1651 40.7076 17.8184 40.1756 17.5278 39.4286C17.3088 38.8653 17.0478 38.0186 16.9768 36.4586C16.9001 34.7719 16.8848 34.2652 16.8848 29.9925C16.8848 25.7198 16.9001 25.2158 16.9768 23.5291C17.0481 21.9691 17.3088 21.1224 17.5278 20.5584C17.8178 19.8118 18.1651 19.2784 18.7251 18.7184C19.2851 18.1584 19.8185 17.8117 20.5651 17.5211C21.1291 17.3011 21.9762 17.0411 23.5362 16.9694C25.0122 16.9027 25.5842 16.8827 28.5662 16.8794V16.8834ZM38.5423 19.5401C37.4823 19.5401 36.6223 20.3991 36.6223 21.4594C36.6223 22.5195 37.4823 23.3795 38.5423 23.3795C39.6023 23.3795 40.4623 22.5195 40.4623 21.4594C40.4623 20.3994 39.6023 19.5394 38.5423 19.5394V19.5401ZM21.7848 30.0002C21.7848 25.4625 25.4639 21.7834 30.0016 21.7834H30.0012C34.5389 21.7834 38.217 25.4625 38.217 30.0002C38.217 34.5379 34.5393 38.2153 30.0016 38.2153C25.4639 38.2153 21.7848 34.5379 21.7848 30.0002Z" fill="white"/>
<path fill-rule="evenodd" clip-rule="evenodd" d="M30.0014 24.667C32.9467 24.667 35.3347 27.0547 35.3347 30.0004C35.3347 32.9457 32.9467 35.3338 30.0014 35.3338C27.0557 35.3338 24.668 32.9457 24.668 30.0004C24.668 27.0547 27.0557 24.667 30.0014 24.667V24.667Z" fill="white"/>
</svg>
