<svg width="25" height="24" viewBox="0 0 25 24" fill="none" xmlns="http://www.w3.org/2000/svg">
<path d="M12.5 8C10.29 8 8.5 9.79 8.5 12C8.5 14.21 10.29 16 12.5 16C14.71 16 16.5 14.21 16.5 12C16.5 9.79 14.71 8 12.5 8ZM21.44 11C20.98 6.83 17.67 3.52 13.5 3.06V1H11.5V3.06C7.33 3.52 4.02 6.83 3.56 11H1.5V13H3.56C4.02 17.17 7.33 20.48 11.5 20.94V23H13.5V20.94C17.67 20.48 20.98 17.17 21.44 13H23.5V11H21.44ZM12.5 19C8.63 19 5.5 15.87 5.5 12C5.5 8.13 8.63 5 12.5 5C16.37 5 19.5 8.13 19.5 12C19.5 15.87 16.37 19 12.5 19Z" fill="#747474"/>
</svg>
