<svg xmlns="http://www.w3.org/2000/svg" width="158" height="48" fill="none" viewBox="0 0 158 48"><path fill="#192061" d="M18.7904 27.8869L17.2024 36.0301H20.7752V40.8804H16.232L14.8206 48.0001H9.70394L11.1154 40.8804H7.27795L5.86647 48.0001H0.705741L2.11722 40.8804H0V36.0301H3.08762L4.67553 27.8869H1.0145V23.0811H5.64593L6.96919 16.3174H12.0858L10.7625 23.0811H14.6L15.9233 16.3174H21.084L19.7607 23.0811H21.8339V27.8869H18.7904ZM13.6737 27.8869H9.83626L8.20424 36.0301H12.0417L13.6737 27.8869Z"/><path fill="#192061" d="M47.1478 15.1436V44.164H40.1919V41.4433C39.6188 42.3897 38.7851 43.1388 37.6909 43.6908C36.5967 44.2166 35.3983 44.4794 34.0957 44.4794C32.4024 44.4794 30.8913 44.0457 29.5627 43.1782C28.2341 42.2845 27.192 41.049 26.4365 39.4718C25.707 37.8683 25.3423 36.0283 25.3423 33.9516C25.3423 31.9013 25.707 30.0875 26.4365 28.5103C27.192 26.9331 28.2341 25.7239 29.5627 24.8828C30.8913 24.0153 32.4024 23.5816 34.0957 23.5816C35.3462 23.5816 36.4925 23.8444 37.5346 24.3702C38.6027 24.8959 39.4494 25.6056 40.0747 26.4994V15.1436H47.1478ZM36.2841 39.1564C37.5346 39.1564 38.4985 38.7227 39.1759 37.8552C39.8532 36.9615 40.1919 35.6866 40.1919 34.0305C40.1919 32.427 39.8402 31.1915 39.1368 30.3241C38.4594 29.4303 37.5085 28.9835 36.2841 28.9835C35.0076 28.9835 34.0306 29.4172 33.3533 30.2847C32.6759 31.1258 32.3372 32.3482 32.3372 33.9516C32.3372 35.6077 32.6759 36.8957 33.3533 37.8158C34.0567 38.7095 35.0336 39.1564 36.2841 39.1564Z"/><path fill="#192061" d="M72.2584 24.1336V44.164H65.3025V41.4433C64.7294 42.3897 63.8957 43.1388 62.8015 43.6908C61.7073 44.2166 60.5089 44.4794 59.2063 44.4794C57.513 44.4794 56.002 44.0589 54.6733 43.2177C53.3447 42.3765 52.3026 41.1805 51.5471 39.6296C50.8176 38.0524 50.4529 36.2386 50.4529 34.1882C50.4529 32.1116 50.8306 30.2715 51.5862 28.668C52.3417 27.0645 53.3837 25.8159 54.7124 24.9222C56.041 24.0284 57.539 23.5816 59.2063 23.5816C60.5089 23.5816 61.6943 23.8707 62.7624 24.449C63.8566 25.001 64.7033 25.7502 65.3025 26.6965V24.1336H72.2584ZM61.3947 39.1564C62.6452 39.1564 63.6091 38.7227 64.2865 37.8552C64.9638 36.9877 65.3025 35.7391 65.3025 34.1094C65.3025 32.4533 64.9638 31.1915 64.2865 30.3241C63.6091 29.4303 62.6452 28.9835 61.3947 28.9835C60.1703 28.9835 59.2063 29.4435 58.5029 30.3635C57.7995 31.2573 57.4478 32.5322 57.4478 34.1882C57.4478 35.7917 57.7865 37.0272 58.4639 37.8946C59.1412 38.7358 60.1182 39.1564 61.3947 39.1564Z"/><path fill="#192061" d="M89.0063 23.6604C89.9702 23.6604 90.7127 23.805 91.2337 24.0942V30.6001C90.1135 30.0744 89.0324 29.8115 87.9903 29.8115C85.0204 29.8115 83.5354 31.2441 83.5354 34.1094V44.164H76.4623V29.8904C76.4623 27.7349 76.3581 25.8159 76.1497 24.1336H82.7929L83.2228 27.4851C83.6917 26.2497 84.4472 25.3033 85.4893 24.6462C86.5314 23.989 87.7037 23.6604 89.0063 23.6604Z"/><path fill="#0A2BE9" d="M115.906 24.3626L107.059 44.1936H101.227L92.4982 24.3626H99.8571L104.319 35.784L108.938 24.3626H115.906Z"/><path fill="#0A2BE9" d="M126.821 44.5066C124.603 44.5066 122.672 44.0893 121.028 43.2549C119.384 42.4205 118.118 41.2209 117.231 39.6564C116.344 38.0918 115.9 36.2534 115.9 34.1412C115.9 32.029 116.344 30.1907 117.231 28.6261C118.118 27.0615 119.384 25.862 121.028 25.0275C122.672 24.1931 124.603 23.7759 126.821 23.7759C129.013 23.7759 130.918 24.2061 132.536 25.0667C134.18 25.9011 135.445 27.1006 136.333 28.6652C137.22 30.2037 137.663 32.029 137.663 34.1412C137.663 36.2534 137.22 38.0918 136.333 39.6564C135.445 41.1949 134.18 42.3944 132.536 43.2549C130.918 44.0893 129.013 44.5066 126.821 44.5066ZM126.821 39.2261C129.378 39.2261 130.657 37.5311 130.657 34.1412C130.657 32.4202 130.331 31.1555 129.678 30.3471C129.052 29.5127 128.1 29.0955 126.821 29.0955C125.516 29.0955 124.538 29.5127 123.885 30.3471C123.233 31.1555 122.907 32.4202 122.907 34.1412C122.907 35.8883 123.233 37.1791 123.885 38.0136C124.538 38.8219 125.516 39.2261 126.821 39.2261Z"/><path fill="#0A2BE9" d="M158 38.9523V44.1936H140.111V39.2261L149.114 29.5257H140.151V24.3235H157.608V28.9781L148.371 38.9523H158Z"/><path fill="#0A2BE9" fill-rule="evenodd" d="M148.416 14.242C148.88 15.0054 148.639 16.0012 147.878 16.4662L138.511 22.1894C137.75 22.6544 136.758 22.4124 136.294 21.649C135.831 20.8856 136.072 19.8897 136.833 19.4248L146.199 13.7016C146.96 13.2366 147.953 13.4785 148.416 14.242Z" clip-rule="evenodd"/><path fill="#0A2BE9" fill-rule="evenodd" d="M133.273 3.87582C132.416 3.63156 131.524 4.13061 131.28 4.99049L128.681 14.1708C128.437 15.0307 128.935 15.9258 129.792 16.17C130.649 16.4143 131.541 15.9152 131.785 15.0554L134.384 5.87502C134.627 5.01515 134.13 4.12007 133.273 3.87582Z" clip-rule="evenodd"/><path fill="#0A2BE9" fill-rule="evenodd" d="M114.417 0.722705C113.606 1.09343 113.248 2.05334 113.618 2.86673L119.504 15.8237C119.874 16.6371 120.831 16.9959 121.641 16.6252C122.452 16.2545 122.81 15.2946 122.44 14.4812L116.554 1.52422C116.184 0.710834 115.227 0.351981 114.417 0.722705Z" clip-rule="evenodd"/></svg>