<svg width="12" height="16" viewBox="0 0 12 16" fill="none" xmlns="http://www.w3.org/2000/svg">
<path fill-rule="evenodd" clip-rule="evenodd" d="M8.51975 7.82675V3.53243C8.51975 2.11706 7.37237 0.969686 5.95701 0.969686C4.54165 0.969686 3.39427 2.11706 3.39427 3.53243V7.82675C3.39427 9.24211 4.54165 10.3895 5.95701 10.3895C7.37237 10.3895 8.51975 9.24211 8.51975 7.82675ZM5.95701 0C4.0061 0 2.42458 1.58152 2.42458 3.53243V7.82675C2.42458 9.77765 4.0061 11.3592 5.95701 11.3592C7.90791 11.3592 9.48944 9.77765 9.48944 7.82675V3.53243C9.48944 1.58152 7.90791 0 5.95701 0ZM0.484843 6.99522C0.752614 6.99522 0.969686 7.21229 0.969686 7.48007C0.969686 10.1931 3.18399 12.3978 5.92201 12.3978C8.66003 12.3978 10.8743 10.1931 10.8743 7.48007C10.8743 7.21229 11.0914 6.99522 11.3592 6.99522C11.6269 6.99522 11.844 7.21229 11.844 7.48007C11.844 10.5315 9.51054 13.0365 6.52587 13.3372C6.56043 13.4095 6.57979 13.4904 6.57979 13.5759V15.446C6.57979 15.752 6.33171 16.0001 6.02568 16.0001C5.71966 16.0001 5.47158 15.752 5.47158 15.446V13.5759C5.47158 13.497 5.48808 13.4219 5.51783 13.3539C2.43821 13.1475 0 10.5992 0 7.48007C0 7.21229 0.217072 6.99522 0.484843 6.99522Z" fill="white"/>
</svg>
