<svg xmlns="http://www.w3.org/2000/svg" width="29" height="29" fill="none" viewBox="0 0 29 29"><path fill="#192AEA" fill-rule="evenodd" d="M13.7627 4.42373C13.7627 4.4326 13.7628 4.44145 13.7631 4.45027C8.70394 4.81595 4.68004 8.91676 4.4355 14.0085L4.42373 14.0085H0.983051C0.440127 14.0085 0 14.4486 0 14.9915C0 15.5344 0.440127 15.9746 0.983051 15.9746H4.42373C4.45964 15.9746 4.49511 15.9726 4.53003 15.9689C5.20634 20.5995 9.03206 24.2078 13.7631 24.5497C13.7628 24.5586 13.7627 24.5674 13.7627 24.5763V28.0169C13.7627 28.5599 14.2028 29 14.7458 29C15.2887 29 15.7288 28.5599 15.7288 28.0169V24.5763C15.7288 24.5514 15.7279 24.5268 15.7261 24.5024C20.2297 23.9561 23.8171 20.4388 24.47 15.9689C24.5049 15.9726 24.5404 15.9746 24.5763 15.9746H28.0169C28.5599 15.9746 29 15.5344 29 14.9915C29 14.4486 28.5599 14.0085 28.0169 14.0085H24.5763L24.5645 14.0085C24.3279 9.08199 20.5532 5.08313 15.7261 4.49757C15.7279 4.47319 15.7288 4.44857 15.7288 4.42373V0.983051C15.7288 0.440127 15.2887 0 14.7458 0C14.2028 0 13.7627 0.440127 13.7627 0.983051V4.42373ZM23.1017 14.5C23.1017 19.2506 19.2506 23.1017 14.5 23.1017C9.74942 23.1017 5.8983 19.2506 5.8983 14.5C5.8983 9.74942 9.74942 5.8983 14.5 5.8983C19.2506 5.8983 23.1017 9.74942 23.1017 14.5ZM20.6441 14.5C20.6441 17.8933 17.8933 20.6441 14.5 20.6441C11.1067 20.6441 8.35593 17.8933 8.35593 14.5C8.35593 11.1067 11.1067 8.35593 14.5 8.35593C17.8933 8.35593 20.6441 11.1067 20.6441 14.5ZM21.6271 14.5C21.6271 18.4362 18.4362 21.6271 14.5 21.6271C10.5638 21.6271 7.37288 18.4362 7.37288 14.5C7.37288 10.5638 10.5638 7.37288 14.5 7.37288C18.4362 7.37288 21.6271 10.5638 21.6271 14.5Z" clip-rule="evenodd"/></svg>