<svg width="674" height="552" viewBox="0 0 674 552" fill="none" xmlns="http://www.w3.org/2000/svg">
<path fill-rule="evenodd" clip-rule="evenodd" d="M469.582 229.225C464.72 233.772 459.586 236.561 456.873 236.444C450.069 236.153 444.461 212.684 447.474 202.321C450.488 191.959 475.281 182.451 480.492 200.606C482.3 206.907 480.828 213.187 477.849 218.688L492.014 250.34L471.346 254.733L469.582 229.225Z" fill="#B28B67"/>
<path fill-rule="evenodd" clip-rule="evenodd" d="M480.319 222.499C480.46 210.407 486.178 200.969 483.953 196.051C481.728 191.132 476.573 190.914 476.573 190.914C476.573 190.914 471.872 181.225 458.418 185.68C444.964 190.136 437.771 197.645 444.079 209.464C447.417 208.755 451.191 206.691 457.203 207.575C460.065 207.996 462.295 212.874 462.295 212.874L464.813 212.339C464.813 212.339 467.188 205.482 471.094 206.335C475 207.189 474.377 213.817 474.377 213.817L477.64 223.069L480.319 222.499Z" fill="#191847"/>
<path fill-rule="evenodd" clip-rule="evenodd" d="M537.946 308.489L472.524 417.863L423.476 510.329H412.912L495.092 308.489L537.946 308.489Z" fill="#997659"/>
<path fill-rule="evenodd" clip-rule="evenodd" d="M427.257 505.18C428.332 504.716 429.606 505.192 430 506.295C430.629 508.055 431.413 510.536 431.413 511.963C431.413 514.344 430.62 518.913 430.62 518.913C427.857 518.913 380.961 518.913 380.961 518.913C380.961 518.913 379.026 512.514 383.196 512.004C387.367 511.493 390.125 511.082 390.125 511.082L413.093 500.843C413.608 500.614 414.21 500.854 414.425 501.375L415.862 504.86C415.862 504.86 419.722 506.662 422.136 506.662C423.533 506.662 425.689 505.858 427.257 505.18Z" fill="#E4E4E4"/>
<path fill-rule="evenodd" clip-rule="evenodd" d="M437.098 495.523L416.725 489.36C416.725 489.36 430.114 449.333 449.545 401.264C468.977 353.196 491.283 308.489 491.283 308.489H548.824C548.824 308.489 524.025 365.041 496.243 411.258C468.461 457.475 437.098 495.523 437.098 495.523Z" fill="#DB2721"/>
<path fill-rule="evenodd" clip-rule="evenodd" d="M542.245 308.489C548.42 346.924 560.329 396.029 561.453 397.544C562.202 398.554 589.176 407.593 642.374 424.66L640.092 433.976C576.653 424.823 543.226 417.721 539.812 412.672C534.689 405.097 509.113 345.259 499.207 308.489H542.245Z" fill="#B28B67"/>
<path fill-rule="evenodd" clip-rule="evenodd" d="M623.674 416.607L619.655 431.611C572.206 435.772 543.133 432.766 532.436 422.59C521.739 412.415 509.548 374.381 495.862 308.489H550.731C559.402 362.446 564.25 390.556 565.274 392.821C566.299 395.087 585.765 403.015 623.674 416.607Z" fill="#FF4133"/>
<path fill-rule="evenodd" clip-rule="evenodd" d="M638.437 423.264C638.167 422.125 638.857 420.953 640.011 420.756C641.854 420.443 644.433 420.101 645.838 420.349C648.183 420.762 652.545 422.337 652.545 422.337C652.065 425.058 643.922 471.241 643.922 471.241C643.922 471.241 637.284 472.036 637.506 467.84C637.727 463.645 637.801 460.857 637.801 460.857L631.706 436.459C631.57 435.913 631.911 435.361 632.461 435.24L636.143 434.43C636.143 434.43 638.587 430.941 639.007 428.564C639.249 427.188 638.832 424.926 638.437 423.264Z" fill="#E4E4E4"/>
<path fill-rule="evenodd" clip-rule="evenodd" d="M407.962 314.565L442.114 306.534L441.873 323.309L411.532 322.977C400.612 328.454 395.02 330.291 394.757 328.489C394.535 326.969 395.579 326.084 396.541 325.268C397.29 324.633 397.99 324.04 398.001 323.223C398.028 321.356 393.051 319.419 388.251 317.783C383.451 316.148 385.678 314.653 387.23 314.109C393.173 313.294 400.084 313.446 407.962 314.565ZM596.447 333.674C592.163 329.712 546.945 274.912 546.945 274.912L528.972 281.888C528.972 281.888 584.15 337.145 586.624 339.8C589.838 343.25 589.317 350.255 588.963 355.005C588.909 355.74 588.858 356.42 588.826 357.026C591.91 357.193 592.628 355.284 593.385 353.271C594.24 350.998 595.145 348.592 599.565 348.897C601.273 349.015 602.951 349.286 604.589 349.55C610.249 350.464 615.449 351.303 619.862 345.515C620.562 344.597 620.749 342.082 617.683 341.349C610.043 339.523 598.542 335.611 596.447 333.674Z" fill="#997659"/>
<path fill-rule="evenodd" clip-rule="evenodd" d="M475.732 236.752L462 243.1C470.582 275.832 459.291 302.923 414.387 312.456L424.286 355.05C465.809 344.977 494.424 315.821 485.073 270.209C482.652 258.401 479.671 246.291 475.732 236.752Z" fill="#AFB9C5"/>
<path fill-rule="evenodd" clip-rule="evenodd" d="M481.164 229.952L482.516 229.432C524.972 245.826 561.084 278.174 590.852 326.478L547.674 343.052C543.634 333.303 539.454 323.905 535.06 314.887L477.395 337.023C476.078 328.185 475.405 319.472 474.72 310.606C473.133 290.076 471.483 268.721 461.637 243.073L481.112 229.987L481.118 229.969L481.164 229.952Z" fill="#C5CFD6"/>
<path fill-rule="evenodd" clip-rule="evenodd" d="M535.06 314.887C526.115 296.527 516.283 279.741 504.935 264.772C512.92 282.374 521.794 304.605 523.34 319.386L535.06 314.887Z" fill="black" fill-opacity="0.1"/>
<path d="M576.66 210.351C579.533 210.351 581.904 207.98 581.904 205.107C581.904 205.016 581.904 204.97 581.904 204.879L581.904 186.639C581.904 185.499 580.992 184.587 579.852 184.587L579.669 184.587L564.12 187.779C563.071 187.87 562.296 188.782 562.296 189.831L562.296 203.009C561.657 202.736 560.973 202.599 560.244 202.599C557.371 202.599 555 204.97 555 207.843C555 210.716 557.371 213.087 560.244 213.087C563.117 213.087 565.488 210.716 565.488 207.843C565.488 207.752 565.488 207.706 565.488 207.615L565.488 190.789L578.712 188.053L578.712 200.273C578.073 200 577.389 199.863 576.66 199.863C573.787 199.863 571.416 202.234 571.416 205.107C571.416 207.98 573.787 210.351 576.66 210.351ZM560.244 209.895C559.104 209.895 558.192 208.983 558.192 207.843C558.192 206.703 559.104 205.791 560.244 205.791C561.384 205.791 562.296 206.703 562.296 207.843C562.296 208.983 561.384 209.895 560.244 209.895ZM576.66 203.055C577.8 203.055 578.712 203.967 578.712 205.107C578.712 206.247 577.8 207.159 576.66 207.159C575.52 207.159 574.608 206.247 574.608 205.107C574.608 203.967 575.52 203.055 576.66 203.055Z" fill="#C8C8C8"/>
<path fill-rule="evenodd" clip-rule="evenodd" d="M143.05 196.998C148.99 200.577 154.827 202.306 157.567 201.6C164.437 199.83 165.069 174.707 159.753 164.802C154.437 154.898 127.108 150.581 125.731 170.205C125.253 177.016 128.114 183.094 132.341 188.054L124.762 223.367H146.778L143.05 196.998Z" fill="#B28B67"/>
<path fill-rule="evenodd" clip-rule="evenodd" d="M169.507 151.072C169.051 149.47 167.824 148.098 166.172 147.691C165.771 147.593 165.357 147.553 164.945 147.57C164.797 147.575 164.755 147.618 164.686 147.515C164.635 147.438 164.634 147.251 164.613 147.161C164.547 146.88 164.465 146.604 164.363 146.334C164.018 145.415 163.437 144.602 162.736 143.916C161.426 142.635 159.655 141.75 157.816 141.59C156.809 141.502 155.81 141.666 154.858 141.993C154.365 142.162 153.887 142.373 153.422 142.607C153.282 142.677 152.827 143.021 152.687 142.999C152.531 142.974 152.219 142.588 152.093 142.491C150.532 141.294 148.605 140.824 146.661 140.838C144.466 140.854 142.353 140.964 140.523 142.301C140.136 142.584 139.767 142.894 139.416 143.221C139.231 143.392 139.051 143.571 138.881 143.756C138.777 143.868 138.677 143.983 138.58 144.1C138.416 144.3 138.443 144.366 138.213 144.226C137.332 143.691 136.312 143.441 135.284 143.568C134.673 143.643 134.079 143.826 133.515 144.067C133.323 144.149 132.879 144.476 132.674 144.48C132.471 144.483 132.033 144.179 131.824 144.102C130.695 143.685 129.477 143.583 128.29 143.775C127.065 143.974 125.862 144.462 124.825 145.137C124.326 145.462 123.89 145.822 123.541 146.304C123.39 146.513 123.253 146.733 123.082 146.926C122.982 147.04 122.783 147.156 122.73 147.299C122.762 147.213 121.39 146.685 121.261 146.651C120.571 146.471 119.869 146.507 119.194 146.729C117.925 147.147 116.833 148.084 115.935 149.044C115.475 149.537 115.071 150.082 114.729 150.663C114.565 150.941 114.415 151.227 114.278 151.52C114.211 151.661 114.167 151.838 114.079 151.966C113.966 152.13 113.89 152.133 113.686 152.205C112.647 152.569 111.7 153.185 110.978 154.017C110.249 154.859 109.775 155.896 109.577 156.987C109.565 157.052 109.558 157.318 109.521 157.353C109.469 157.401 109.26 157.38 109.181 157.389C108.907 157.421 108.636 157.469 108.367 157.532C107.873 157.649 107.392 157.822 106.937 158.047C105.163 158.924 103.894 160.569 103.273 162.42C102.621 164.363 102.633 166.588 103.412 168.495C103.537 168.803 103.687 169.101 103.863 169.384C103.971 169.558 104.006 169.558 103.936 169.74C103.857 169.943 103.715 170.14 103.622 170.338C103.319 170.984 103.108 171.669 102.974 172.369C102.755 173.516 102.646 174.723 102.862 175.879C102.963 176.416 103.138 176.941 103.405 177.42C103.541 177.664 103.7 177.895 103.88 178.109C103.973 178.22 104.073 178.326 104.176 178.428C104.236 178.486 104.313 178.537 104.364 178.601C104.487 178.76 104.513 178.63 104.449 178.862C104.361 179.186 104.159 179.507 104.036 179.823C103.909 180.148 103.794 180.478 103.689 180.811C103.477 181.486 103.297 182.173 103.184 182.872C102.969 184.214 103.007 185.644 103.641 186.875C103.913 187.402 104.302 187.864 104.775 188.223C105.006 188.399 105.256 188.551 105.519 188.675C105.654 188.739 105.826 188.767 105.888 188.897C105.954 189.038 105.856 189.316 105.833 189.473C105.638 190.838 105.54 192.271 105.946 193.608C106.32 194.84 107.143 195.927 108.211 196.647C110.284 198.044 113.079 197.966 115.257 196.847C115.824 196.556 116.356 196.194 116.829 195.767C118.036 197.39 120.519 197.339 122.282 196.877C124.479 196.3 126.242 194.773 127.258 192.767C128.646 194.457 131.561 193.909 132.524 192.075C132.76 191.627 132.9 191.132 132.968 190.632C133.005 190.368 132.982 190.103 133.009 189.842C133.043 189.509 133.266 189.186 133.394 188.864C133.642 188.238 133.797 187.591 133.804 186.915C133.807 186.563 133.762 186.219 133.729 185.869C133.699 185.554 133.786 185.261 133.836 184.95C133.272 185.043 132.586 184.891 132.055 184.727C131.534 184.567 131.046 184.145 130.678 183.76C129.825 182.864 129.303 181.691 128.946 180.523C128.163 177.96 128.484 174.885 131.064 173.478C132.265 172.823 135.865 172.825 137.296 173.149C138.8 173.489 140.506 176.808 140.59 177.12C140.642 177.313 140.616 177.552 140.793 177.681C141.183 177.963 141.827 177.473 142.114 177.23C142.61 176.812 142.964 176.256 143.271 175.692C143.939 174.463 144.478 173.146 144.858 171.801C145.152 170.764 145.339 169.695 145.722 168.685C146.104 167.679 146.705 166.781 147.64 166.211C148.657 165.591 149.823 165.265 150.94 164.876C152.047 164.49 153.134 164.018 153.992 163.199C154.181 163.019 154.364 162.828 154.516 162.616C154.636 162.449 154.754 162.128 154.937 162.022C155.221 161.857 155.635 162.286 155.881 162.442C157.092 163.211 158.103 164.284 158.918 165.455C159.728 166.621 160.394 167.742 160.934 169.043C161.335 170.008 161.585 171.244 162.29 172.035C162.605 172.388 164.945 172.602 165.703 172.293C166.46 171.985 167.31 171.184 167.564 170.683C167.825 170.169 167.887 169.605 167.776 169.043C167.71 168.712 167.576 168.403 167.503 168.079C167.442 167.806 167.386 167.548 167.253 167.298C167.001 166.824 166.571 166.484 166.052 166.341C166.592 165.844 167.039 165.248 167.349 164.583C167.671 163.892 167.943 163.051 168.021 162.292C168.084 161.676 167.987 161.037 167.649 160.508C167.295 159.952 166.668 159.59 166.125 159.243C166.954 158.595 167.663 157.806 168.247 156.933C169.381 155.236 170.083 153.096 169.507 151.072Z" fill="#191847"/>
<path fill-rule="evenodd" clip-rule="evenodd" d="M117.423 299.477L161.531 416.142L192.448 502.131H210.076L167.578 299.477L117.423 299.477Z" fill="#E0B173"/>
<path fill-rule="evenodd" clip-rule="evenodd" d="M106.521 299.477C106.042 339.507 106.388 393.401 105.271 395.897C104.154 398.392 35.7772 452.758 35.7772 452.758L44.8637 468.202C44.8637 468.202 126.043 415.873 130.193 408.901C134.344 401.929 155.195 337.773 166.043 299.477H106.521Z" fill="#EAC089"/>
<path fill-rule="evenodd" clip-rule="evenodd" d="M19.7913 463.151L35.1386 451.475L47.5216 466.227C48.9504 482.908 58.5722 503.643 58.5722 503.643L55.7612 506L33.3537 479.307L27.0935 468.996L25.688 470.175L19.7913 463.151Z" fill="#191847"/>
<path fill-rule="evenodd" clip-rule="evenodd" d="M190.812 518.636L191.729 499.38L210.994 499.38C224.696 509.008 246.771 514.969 246.771 514.969V518.636H211.911L199.986 516.803V518.636H190.812Z" fill="#191847"/>
<path fill-rule="evenodd" clip-rule="evenodd" d="M224.46 309.229L195.198 287.75L188.729 303.734L217.707 315.745C225.902 325.368 230.485 329.379 231.455 327.779C232.273 326.431 231.633 325.168 231.044 324.005C230.586 323.099 230.157 322.253 230.473 321.474C231.192 319.696 236.698 319.883 241.914 320.284C247.131 320.685 245.61 318.365 244.353 317.219C239.028 314.033 232.397 311.37 224.46 309.229ZM71.0022 347.076C73.6905 341.624 82.8454 288.491 82.8454 288.491L102.016 288.566C102.016 288.566 84.2605 345.86 82.8454 349.366C81.007 353.92 84.1297 360.536 86.2471 365.023C86.5747 365.717 86.8782 366.36 87.1356 366.937C84.1975 368.251 82.7862 366.662 81.2983 364.988C79.6177 363.096 77.8395 361.095 73.6534 363.042C72.0361 363.794 70.5056 364.683 69.0104 365.552C63.8457 368.553 59.1011 371.309 52.6467 367.329C51.6235 366.697 50.5022 364.321 53.2114 362.464C59.9612 357.838 69.6879 349.741 71.0022 347.076Z" fill="#B28B67"/>
<path fill-rule="evenodd" clip-rule="evenodd" d="M137.325 208.083L145.258 206.723C174.69 232.137 186.778 280.962 222.855 306.826L214.172 317.585C151.586 309.839 136.073 250.285 137.325 208.083Z" fill="#B2B5E0"/>
<path fill-rule="evenodd" clip-rule="evenodd" d="M102.745 307.73C102.745 307.73 150.455 307.73 172.934 307.73C176.141 307.73 175.537 303.1 175.073 300.764C169.722 273.805 148.834 244.743 148.834 206.367L128.589 203.193C111.843 230.114 106.052 263.26 102.745 307.73Z" fill="#DDE3E9"/>
<path fill-rule="evenodd" clip-rule="evenodd" d="M94.8527 326.986C91.6982 334.559 88.6049 341.167 85.6901 346.243H70.6371C69.0176 293.9 88.8426 253.624 105.434 229.339C101.75 229.076 98.4252 227.535 96.3233 223.744C88.9235 210.397 91.5959 203.049 99.504 200.633C103.853 199.305 107.942 200.211 112.838 201.297C116.844 202.185 121.39 203.192 127.059 203.193C127.061 203.193 127.062 203.193 127.064 203.193C127.614 203.193 128.114 203.23 128.567 203.3L135.285 203.683C135.285 203.683 162.562 296.089 150.331 326.986H94.8527Z" fill="#BEC1EE"/>
<path fill-rule="evenodd" clip-rule="evenodd" d="M94.8527 326.986C98.9916 317.05 103.236 305.452 107.32 293.475C108.84 306.665 111.372 319.913 115.588 326.986H94.8527Z" fill="black" fill-opacity="0.1"/>
<path d="M254.576 199.803C256.435 198.961 257.275 196.73 256.433 194.871C256.406 194.812 256.393 194.782 256.366 194.723L251.018 182.915C250.684 182.177 249.826 181.855 249.088 182.189L248.97 182.242L239.84 188.868C239.187 189.234 238.953 190.052 239.261 190.731L243.124 199.262C242.631 199.272 242.148 199.384 241.676 199.598C239.816 200.44 238.976 202.67 239.819 204.53C240.661 206.39 242.891 207.23 244.751 206.387C246.611 205.545 247.45 203.315 246.608 201.455C246.581 201.396 246.568 201.367 246.541 201.307L241.608 190.415L249.366 184.766L252.949 192.678C252.456 192.688 251.973 192.8 251.5 193.014C249.641 193.856 248.801 196.086 249.643 197.946C250.486 199.806 252.716 200.645 254.576 199.803ZM243.815 204.321C243.077 204.655 242.219 204.332 241.885 203.594C241.551 202.856 241.874 201.998 242.612 201.664C243.35 201.33 244.207 201.653 244.542 202.391C244.876 203.129 244.553 203.987 243.815 204.321ZM252.436 195.08C253.174 194.746 254.032 195.069 254.366 195.807C254.701 196.545 254.378 197.402 253.64 197.737C252.902 198.071 252.044 197.748 251.71 197.01C251.375 196.272 251.698 195.414 252.436 195.08Z" fill="#C8C8C8"/>
<path d="M94 3C202.783 71.6707 470.478 167.81 671 3" stroke="#EAC089" stroke-width="5" stroke-linecap="round"/>
<path d="M657.826 83.9868C658.13 85.6089 656.236 86.7206 654.968 85.6641L623.453 59.4031C622.516 58.6225 622.637 57.1489 623.688 56.5317L647.644 42.4723C648.696 41.8551 650.042 42.4679 650.266 43.6665L657.826 83.9868Z" fill="#E9B9BC"/>
<path d="M598.832 116.738C598.731 118.385 596.623 119.001 595.651 117.667L571.501 84.506C570.783 83.5203 571.26 82.1209 572.431 81.7791L599.094 73.9939C600.265 73.6521 601.42 74.5749 601.345 75.7921L598.832 116.738Z" fill="#BEC1EE"/>
<path d="M532.707 133.93C532.44 135.559 530.281 135.959 529.448 134.534L508.761 99.1088C508.146 98.0557 508.762 96.7115 509.961 96.4894L537.273 91.4297C538.472 91.2076 539.528 92.242 539.331 93.4455L532.707 133.93Z" fill="#7A82EB"/>
<path d="M459.486 145.836C458.995 147.412 456.801 147.506 456.176 145.979L440.642 108.011C440.18 106.882 440.978 105.637 442.196 105.584L469.947 104.391C471.165 104.339 472.067 105.511 471.704 106.675L459.486 145.836Z" fill="#F27781"/>
<path d="M394.823 146.837C394.231 148.377 392.036 148.331 391.51 146.767L378.437 107.882C378.049 106.727 378.924 105.535 380.143 105.561L407.914 106.146C409.133 106.171 409.958 107.399 409.521 108.537L394.823 146.837Z" fill="#F2994A"/>
<path d="M327.413 141.269C326.624 142.718 324.454 142.384 324.138 140.764L316.294 100.498C316.061 99.3007 317.086 98.2349 318.291 98.4207L345.743 102.653C346.948 102.839 347.604 104.164 347.021 105.235L327.413 141.269Z" fill="#BEC1EE"/>
<path d="M262.132 129.545C261.253 130.942 259.108 130.47 258.896 128.833L253.624 88.1506C253.467 86.9413 254.558 85.9426 255.749 86.2045L282.877 92.1716C284.068 92.4336 284.638 93.7976 283.989 94.8295L262.132 129.545Z" fill="#E9B9BC"/>
<path d="M207.367 112.333C206.408 113.676 204.294 113.081 204.177 111.435L201.27 70.5148C201.184 69.2984 202.33 68.3646 203.504 68.6951L230.241 76.2233C231.415 76.5538 231.906 77.9486 231.197 78.9412L207.367 112.333Z" fill="#F27781"/>
<path d="M152.372 90.6483C151.292 91.8961 149.243 91.1058 149.28 89.4558L150.212 48.4435C150.24 47.2244 151.468 46.4018 152.606 46.8406L178.522 56.8358C179.66 57.2746 180.018 58.7091 179.22 59.6311L152.372 90.6483Z" fill="#F2994A"/>
<path d="M360.035 187.015C362.816 187.593 365.539 185.808 366.117 183.027C366.695 180.246 364.909 177.523 362.128 176.945C359.348 176.367 356.625 178.153 356.047 180.934C355.469 183.714 357.254 186.437 360.035 187.015Z" stroke="#C8C8C8" stroke-width="3.9653"/>
<path d="M366.175 182.751L370.26 163.093" stroke="#C8C8C8" stroke-width="3.9653" stroke-linecap="round" stroke-linejoin="round"/>
<path d="M368.473 188.454L368.51 188.279" stroke="#C8C8C8" stroke-width="3.9653" stroke-linecap="round" stroke-linejoin="round"/>
<path d="M624.868 172.38C627.165 170.953 627.871 167.933 626.443 165.636C625.016 163.339 621.996 162.633 619.699 164.061C617.402 165.488 616.697 168.508 618.124 170.805C619.551 173.102 622.571 173.807 624.868 172.38Z" stroke="#C8C8C8" stroke-width="3.9653"/>
<path d="M626.301 165.408L616.211 149.168" stroke="#C8C8C8" stroke-width="3.9653" stroke-linecap="round" stroke-linejoin="round"/>
<path d="M631.632 167.832L631.542 167.687" stroke="#C8C8C8" stroke-width="3.9653" stroke-linecap="round" stroke-linejoin="round"/>
<path d="M233.529 323.305C252.847 292.245 298.599 228.5 327.055 222.003C327.305 221.99 327.887 222.122 328.223 222.764C328.301 222.913 328.353 223.02 328.387 223.095C328.919 222.807 329.934 222.571 330.226 223.704C330.608 225.184 335.712 278.106 242.731 336.379C239.944 337.534 234.056 340.446 232.809 342.856C231.25 345.869 213.202 370.956 213.202 370.956C213.988 366.635 215.906 357.163 217.283 353.845C219.005 349.698 219.379 348.326 218.261 348.463C217.366 348.573 205.854 350.726 200.21 351.788C198.751 352.094 196.609 352.092 199.716 349.639C203.598 346.573 219.232 337.529 220.458 336.635C221.685 335.742 225.321 335.016 233.529 323.305Z" fill="#F27781"/>
<circle cx="315.635" cy="236.668" r="2.75504" transform="rotate(-48.166 315.635 236.668)" fill="white"/>
<path d="M393.861 465.026V475.384L410.161 465.026H393.861Z" fill="black"/>
<path d="M393.861 489.655H380.927L376.815 496.786H410.083L393.861 486.463V489.655Z" fill="black"/>
<path d="M250.291 486.463L234.078 496.786H267.303L263.182 489.655H250.3L250.291 486.463Z" fill="black"/>
<path d="M250.3 475.384V465.026H234.009L234.078 465.07L250.3 475.384Z" fill="black"/>
<path d="M344.969 504.296L349.558 496.358L354.139 488.421H344.969L340.389 496.358L335.809 504.296H344.969Z" fill="#DF472A"/>
<path d="M367.888 496.358H358.719L363.308 504.295L367.888 496.358Z" fill="#DF472A"/>
<path d="M372.469 504.297H363.308L367.888 512.234L372.469 504.297Z" fill="#DF472A"/>
<path d="M358.719 512.234L354.139 520.171H363.308L358.719 512.234Z" fill="#DF472A"/>
<path d="M303.72 496.358L299.14 504.295L303.72 512.233H312.889L308.309 504.295L303.72 496.358Z" fill="#DF472A"/>
<path d="M317.47 551.932H326.639H335.809L331.228 543.994H340.398L344.978 551.932L349.558 543.994L344.978 536.057L349.558 528.119L344.978 520.182L349.558 512.244H340.398L335.817 504.307H326.648L331.228 512.244L335.809 520.182H326.639L331.22 512.244H322.05L326.639 504.307L322.05 496.369L317.47 488.431L312.889 496.369L317.47 504.307L312.889 512.244L317.47 520.182H308.3L303.72 528.119L308.3 536.057H317.47L312.889 543.994H303.72L308.3 551.932H317.47ZM322.059 528.119H331.228L326.648 536.057L322.059 528.119Z" fill="#DF472A"/>
<path d="M285.39 528.119L289.97 536.057L294.559 528.119H285.39Z" fill="#DF472A"/>
<path d="M280.801 520.173L285.39 528.119L289.97 520.173H280.801Z" fill="#DF472A"/>
<path d="M276.22 496.358H267.051L271.64 504.295L276.22 496.358Z" fill="#DF472A"/>
<path d="M331.22 496.358H340.389L335.809 488.421H326.639L322.059 496.358H331.22Z" fill="#DF472A"/>
<path d="M372.469 488.421L367.888 496.358H377.058L372.469 488.421Z" fill="#DF472A"/>
<path d="M280.801 488.421L276.221 496.358H285.39L280.801 488.421Z" fill="#DF472A"/>
<path d="M363.308 488.421H354.139L358.719 496.358L363.308 488.421Z" fill="#DF472A"/>
<path d="M262.471 448.724L267.051 440.787H257.89L262.471 448.724Z" fill="#047A42"/>
<path d="M308.301 448.724L312.89 456.661H322.051L317.471 448.724H308.301Z" fill="#047A42"/>
<path d="M312.89 440.787L317.471 448.724L322.051 440.787H312.89Z" fill="#047A42"/>
<path d="M335.809 416.974L340.39 424.912H349.559L354.14 416.974L349.559 409.037H358.72L354.14 401.099H344.97H335.809L340.39 409.037L344.97 416.974H335.809Z" fill="#047A42"/>
<path d="M367.889 409.036H358.72L363.309 416.973L367.889 409.036Z" fill="#047A42"/>
<path d="M340.389 409.036H331.22L326.639 416.973H335.809L340.389 409.036Z" fill="#047A42"/>
<path d="M344.969 448.724L340.389 456.661H386.219L381.638 448.724L386.219 440.786H377.058L381.638 432.849H372.469L377.058 424.911H367.888L363.308 432.849H354.139L358.719 424.911H349.558L344.969 432.849L340.389 424.911L335.809 432.849H326.639L331.22 440.786H340.389L344.969 448.724Z" fill="#047A42"/>
<path d="M331.22 456.662H340.389L335.809 448.724L331.22 440.787L326.639 448.724L331.22 456.662Z" fill="#047A42"/>
<path d="M312.889 456.661L308.3 448.724L303.72 456.661H312.889Z" fill="#4CA949"/>
<path d="M312.889 440.789L317.47 432.851H308.3L312.889 440.789Z" fill="#4CA949"/>
<path d="M312.889 424.913H322.05L317.47 416.975L312.889 424.913Z" fill="#4CA949"/>
<path d="M317.47 401.099H326.639L322.05 393.153L317.47 401.099Z" fill="#4CA949"/>
<path d="M308.3 401.099H317.47L312.889 393.153L308.3 401.099Z" fill="#4CA949"/>
<path d="M344.969 432.849L349.558 424.911H340.389L344.969 432.849Z" fill="#4CA949"/>
<path d="M299.14 401.099L303.72 409.037H312.889L308.3 401.099L303.72 393.153L299.14 401.099Z" fill="#4CA949"/>
<path d="M294.551 409.037L299.14 401.099H289.97L294.551 409.037Z" fill="#4CA949"/>
<path d="M358.719 424.911L363.308 432.849L367.888 424.911H358.719Z" fill="#4CA949"/>
<path d="M276.221 456.661L280.801 448.724H271.631L276.212 440.786L280.792 448.724L285.373 456.661H294.542L299.122 448.724H308.292L303.711 440.786H294.542L299.122 432.848L294.542 424.911L299.122 416.973L294.542 409.036H285.373H276.203L280.784 416.973H289.953L285.373 424.911L280.792 416.973L276.212 424.911H267.042L271.623 432.848H262.453L267.034 440.786L262.453 448.724L257.873 456.661H267.042H276.221ZM289.97 432.848L285.39 440.786L280.81 432.848H289.97Z" fill="#4CA949"/>
<path d="M344.969 416.973L340.389 409.036L335.809 416.973H344.969Z" fill="#238F49"/>
<path d="M372.47 432.851L377.059 440.789L381.638 432.851H372.47Z" fill="#238F49"/>
<path d="M285.39 409.037H294.551L289.97 401.099L285.39 409.037Z" fill="#238F49"/>
<path d="M289.97 416.975H280.801L285.39 424.913L289.97 416.975Z" fill="#238F49"/>
<path d="M280.801 416.975H271.64L276.221 424.913L280.801 416.975Z" fill="#238F49"/>
<path d="M276.221 456.661H285.39L280.801 448.724L276.221 456.661Z" fill="#238F49"/>
<path d="M271.64 448.724H280.801L276.221 440.787L271.64 448.724Z" fill="#238F49"/>
<path d="M285.39 440.789L289.97 432.851H280.801L285.39 440.789Z" fill="#238F49"/>
<path d="M340.389 456.662L344.969 448.724L340.389 440.787H331.219L335.809 448.724L340.389 456.662Z" fill="#238F49"/>
<path d="M340.389 393.153L335.809 401.099H344.969L340.389 393.153Z" fill="#238F49"/>
<path d="M358.719 424.911H367.888L372.469 416.973H363.308L358.719 409.036H349.558L354.139 416.973L349.558 424.911H358.719Z" fill="#238F49"/>
<path d="M363.308 432.849L358.719 424.911L354.139 432.849H363.308Z" fill="#238F49"/>
<path d="M308.3 448.724H299.14L294.551 456.661H303.72L308.3 448.724Z" fill="#238F49"/>
<path d="M312.889 440.789L308.3 432.851H317.47L312.889 440.789H322.059L317.478 448.726L322.059 456.664H331.228L326.648 448.726L331.228 440.789L326.648 432.851H335.817L340.398 424.913L335.817 416.976H326.648L331.228 409.038H340.398L335.817 401.101L331.237 393.163L326.657 401.101H317.487H308.3L312.889 409.038H303.72L299.14 401.101L294.559 409.038L299.14 416.976L294.559 424.913L299.14 432.851L294.559 440.789H303.729L308.309 448.726H317.478L312.889 440.789ZM317.47 416.976L322.05 424.913H312.881L317.47 416.976Z" fill="#238F49"/>
<path d="M234 465.026L234.009 466.224L250.3 476.59V475.384L234 465.026Z" fill="white"/>
<path d="M393.861 486.48V475.22V464.958V456.673H250.3V464.958V475.22V486.48V488.424H266.591H377.57H393.861V486.48Z" fill="black"/>
<path d="M335.809 504.295L331.22 496.358H322.059L326.639 504.295H335.809Z" fill="#E56228"/>
<path d="M331.22 512.234L326.639 504.297L322.059 512.234H331.22Z" fill="#E56228"/>
<path d="M312.889 543.993L317.47 536.056H308.309L303.72 543.993H312.889Z" fill="#E56228"/>
<path d="M289.97 536.057L294.559 543.994L299.14 551.932H308.309L303.72 543.994L299.14 536.057H308.309L303.72 528.119H294.559L289.97 536.057Z" fill="#E56228"/>
<path d="M308.308 488.421H262.479L280.801 520.171H289.969L285.389 528.109H294.559L299.14 520.171L303.72 528.109L308.3 520.171H317.469L312.889 512.234H303.72L299.14 504.296L303.72 496.358L308.3 504.296L312.88 512.234L317.46 504.296L312.88 496.358L317.46 488.421H308.308ZM280.801 504.296L276.221 496.358L271.639 504.296L267.059 496.358H276.228L280.809 488.421L285.389 496.358L280.801 504.296Z" fill="#E56228"/>
<path d="M322.059 496.358L326.639 488.421H317.47L322.059 496.358Z" fill="#E56228"/>
<path d="M271.64 488.421H262.471L267.051 496.358L271.64 488.421Z" fill="#E56228"/>
<path d="M331.219 496.361L335.809 504.299L340.389 496.361H331.219Z" fill="#C1302C"/>
<path d="M331.22 512.237L326.639 520.175H335.809L331.22 512.237Z" fill="#C1302C"/>
<path d="M331.22 528.119H322.059L326.639 536.057L331.22 528.119Z" fill="#C1302C"/>
<path d="M344.969 551.933L340.389 543.995H331.219L335.809 551.933H344.969Z" fill="#C1302C"/>
<path d="M358.719 512.237L363.308 520.175H354.139L358.719 512.237Z" fill="#C1302C"/>
<path d="M299.14 520.173L294.559 528.119H303.72L299.14 520.173Z" fill="#C1302C"/>
<path d="M285.39 496.361H276.221L280.801 504.299L285.39 496.361Z" fill="#C1302C"/>
<path d="M299.14 536.056L303.72 543.993L308.309 536.056H299.14Z" fill="#C1302C"/>
<path d="M367.888 512.236L370.179 508.272L367.888 512.236Z" fill="#C1302C"/>
<path d="M372.469 488.421L377.058 496.358L381.638 488.421H372.477H372.469Z" fill="#C1302C"/>
<path d="M363.308 504.299H372.469L370.179 508.272L377.058 496.361H367.888L363.308 504.299Z" fill="#C1302C"/>
<path d="M358.719 496.358L354.139 488.421L349.558 496.358L344.969 504.296H335.809L340.389 512.234H349.558L344.969 520.171L349.558 528.117L344.969 536.055L349.558 543.992L354.139 536.055L358.719 528.117L367.888 512.234L363.308 504.296L358.719 496.358Z" fill="#C1302C"/>
<path d="M358.719 496.358H367.888L372.469 488.421H335.809L340.389 496.358L344.969 488.421H354.139H363.308L358.719 496.358Z" fill="#C1302C"/>
<path d="M372.469 488.421L377.058 496.358L381.638 488.421H372.469Z" fill="#C1302C"/>
<path d="M342.932 385.521L342.836 385.495L334.491 416.638L334.474 416.733L384.962 430.257L385.057 430.283L393.402 399.14L393.428 399.045L342.932 385.521Z" fill="#241F20"/>
<path d="M342.906 385.607L363.951 407.884L338.742 401.135L342.906 385.607Z" fill="white"/>
<path d="M363.951 407.884L393.428 399.044L368.132 392.269L363.951 407.884Z" fill="white"/>
<path d="M363.951 407.883L334.474 416.732L359.761 423.507L363.951 407.883Z" fill="white"/>
<path d="M385.083 430.265L363.951 407.883L389.256 414.667L385.083 430.265Z" fill="white"/>
<path d="M330.335 432.851H328.192L341.013 385L343.017 385.538L330.335 432.851Z" fill="#A57D2D"/>
<path d="M301.087 385.535L250.687 399.039L259.007 430.092L309.407 416.588L301.087 385.535Z" fill="#FED211"/>
<path fill-rule="evenodd" clip-rule="evenodd" d="M263.98 414.41C263.087 414.653 262.315 414.107 262.08 413.222C261.837 412.311 262.237 411.487 263.173 411.235C263.598 411.122 263.972 411.192 264.345 411.383L264.553 410.481C264.024 410.281 263.477 410.246 262.878 410.411C261.49 410.784 260.77 412.077 261.161 413.543C261.534 414.939 262.792 415.633 264.136 415.278C264.778 415.104 265.229 414.809 265.594 414.376L264.96 413.699C264.735 414.037 264.44 414.289 263.98 414.41Z" fill="#005C9C"/>
<path fill-rule="evenodd" clip-rule="evenodd" d="M272.266 408.496L272.153 408.062L271.251 408.305L272.483 412.911L273.402 412.668L272.708 410.074C272.552 409.493 272.422 408.756 273.107 408.582C273.35 408.513 273.532 408.582 273.714 408.678L273.923 407.732C273.61 407.637 273.341 407.611 273.072 407.689C272.613 407.81 272.37 408.131 272.266 408.496Z" fill="#005C9C"/>
<path fill-rule="evenodd" clip-rule="evenodd" d="M275.605 407.602L275.492 407.168L274.598 407.411L275.83 412.018L276.732 411.775L276.038 409.181C275.882 408.6 275.761 407.862 276.437 407.68C276.68 407.611 276.854 407.68 277.036 407.775L277.244 406.83C276.949 406.726 276.672 406.708 276.394 406.787C275.952 406.908 275.717 407.229 275.605 407.602Z" fill="#005C9C"/>
<path d="M277.834 404.149C278.172 404.062 278.519 404.262 278.615 404.609C278.71 404.956 278.511 405.303 278.172 405.398C277.825 405.494 277.496 405.286 277.4 404.939C277.296 404.592 277.487 404.245 277.834 404.149ZM277.973 406.509L278.884 406.266L280.116 410.872L279.205 411.115L277.973 406.509Z" fill="#005C9C"/>
<path fill-rule="evenodd" clip-rule="evenodd" d="M283.187 408.669C283.291 409.051 283.1 409.32 282.709 409.433C282.258 409.554 281.851 409.311 281.59 408.999L280.966 409.676C281.443 410.213 282.119 410.456 282.9 410.257C283.785 410.014 284.34 409.294 284.097 408.366C283.664 406.743 281.66 407.628 281.425 406.77C281.373 406.579 281.452 406.327 281.746 406.249C282.076 406.162 282.345 406.284 282.588 406.457L283.126 405.746C282.666 405.399 282.189 405.251 281.59 405.416C280.87 405.607 280.315 406.249 280.532 407.073C280.922 408.548 282.909 407.672 283.187 408.669Z" fill="#025CA1"/>
<path fill-rule="evenodd" clip-rule="evenodd" d="M293.372 407.027C293.155 407.166 292.921 407.296 292.652 407.365C291.316 407.721 290.11 406.914 289.763 405.613C289.425 404.338 290.058 403.011 291.385 402.655C291.654 402.586 291.923 402.568 292.175 402.586C292.365 402.143 292.634 401.744 292.973 401.406C292.365 401.232 291.706 401.232 291.056 401.406C289.06 401.944 287.907 403.982 288.436 405.977C288.974 407.981 290.995 409.144 292.981 408.615C293.632 408.441 294.205 408.103 294.647 407.66C294.187 407.53 293.753 407.313 293.372 407.027ZM293.424 403.08C293.589 402.664 293.866 402.299 294.257 402.03C294.899 402.516 295.384 403.219 295.61 404.052C295.835 404.893 295.757 405.726 295.445 406.463C294.985 406.429 294.56 406.255 294.205 405.969C294.395 405.492 294.421 404.945 294.274 404.399C294.126 403.869 293.832 403.41 293.424 403.08Z" fill="white"/>
<path fill-rule="evenodd" clip-rule="evenodd" d="M293.423 403.082C293.076 402.795 292.642 402.622 292.182 402.587C291.87 403.324 291.801 404.183 292.026 405.016C292.252 405.849 292.738 406.543 293.371 407.02C293.753 406.76 294.03 406.395 294.195 405.97C293.805 405.649 293.501 405.19 293.353 404.643C293.215 404.114 293.249 403.567 293.423 403.082Z" fill="#005C9C"/>
<path d="M267.407 409.196C267.945 409.075 268.526 409.179 268.994 409.534L268.838 408.953L269.74 408.71L270.972 413.317L270.07 413.56L269.923 413.004C269.671 413.534 269.22 413.881 268.708 414.054L268.526 414.106C267.199 414.462 266.045 413.577 265.698 412.267C265.351 410.974 265.915 409.604 267.32 409.231L267.407 409.196ZM268.483 413.204C269.393 412.952 269.706 412.068 269.48 411.2C269.255 410.359 268.535 409.829 267.641 410.046C266.765 410.28 266.401 411.157 266.617 411.955C266.86 412.848 267.563 413.456 268.465 413.213L268.483 413.204Z" fill="#005C9C"/>
<path fill-rule="evenodd" clip-rule="evenodd" d="M294.646 400.453C296.659 399.915 298.671 401.103 299.209 403.099C299.747 405.103 298.567 407.124 296.581 407.653C295.93 407.827 295.271 407.818 294.663 407.653C295.002 407.315 295.271 406.907 295.453 406.465C295.713 406.482 295.982 406.465 296.251 406.395C297.578 406.04 298.22 404.73 297.873 403.428C297.535 402.153 296.32 401.329 294.984 401.685C294.715 401.754 294.473 401.884 294.264 402.023C293.883 401.737 293.449 401.52 292.989 401.398C293.423 400.956 293.995 400.626 294.646 400.453Z" fill="#005C9C"/>
<path d="M318.051 440.788H315.9L301.091 385.529L303.095 385L318.051 440.788Z" fill="#A57D2D"/>
<path d="M393.87 488.431H250.3V489.655H393.87V488.431Z" fill="white"/>
</svg>
