<svg width="218" height="80" viewBox="0 0 218 80" fill="none" xmlns="http://www.w3.org/2000/svg">
<path d="M4.45909 27.47C3.33793 26.6641 1.77579 26.9198 0.969962 28.0409C0.164128 29.1621 0.419751 30.7242 1.54091 31.53L4.45909 27.47ZM211.433 19.5087C211.162 18.1549 209.844 17.2774 208.491 17.5488L186.429 21.9706C185.075 22.242 184.198 23.5594 184.469 24.9132C184.741 26.267 186.058 27.1445 187.412 26.8731L207.022 22.9426L210.952 42.5526C211.224 43.9063 212.541 44.7838 213.895 44.5125C215.249 44.2411 216.126 42.9237 215.855 41.5699L211.433 19.5087ZM3 29.5C1.54091 31.53 1.54153 31.5305 1.54234 31.5311C1.54285 31.5314 1.54385 31.5321 1.54487 31.5329C1.54692 31.5344 1.54971 31.5364 1.55322 31.5389C1.56024 31.5439 1.57018 31.551 1.583 31.5602C1.60865 31.5785 1.64586 31.6049 1.69442 31.6393C1.79154 31.7081 1.93411 31.8085 2.12057 31.9384C2.49347 32.1983 3.04198 32.5764 3.75365 33.0558C5.17684 34.0146 7.25332 35.379 9.88329 37.0138C15.1412 40.2823 22.6221 44.6383 31.5261 48.9955C49.2745 57.6809 72.9337 66.5 96 66.5L96 61.5C74.0663 61.5 51.2255 53.0691 33.7239 44.5045C25.0029 40.2367 17.6713 35.9677 12.523 32.7674C9.9498 31.1679 7.92472 29.837 6.54714 28.909C5.85841 28.445 5.33173 28.0819 4.97953 27.8365C4.80344 27.7137 4.67098 27.6204 4.58372 27.5586C4.54009 27.5277 4.50776 27.5047 4.48692 27.4899C4.4765 27.4824 4.46896 27.477 4.46431 27.4737C4.46199 27.472 4.46039 27.4709 4.45952 27.4703C4.45908 27.47 4.45898 27.4699 4.45876 27.4697C4.45883 27.4698 4.45909 27.47 3 29.5ZM96 66.5C118.738 66.5 142.282 62.9657 162.72 55.602C183.129 48.2487 200.668 36.9918 211.063 21.3859L206.901 18.6142C197.314 33.0082 180.861 43.7513 161.025 50.898C141.218 58.0343 118.262 61.5 96 61.5L96 66.5Z" fill="#5161D2"/>
</svg>
