<svg xmlns="http://www.w3.org/2000/svg" width="481" height="265" fill="none" viewBox="0 0 481 265"><path fill="#192AEA" d="M33.5026 147.04L35.1445 145.155L33.5026 147.04ZM128.503 90.0403L130.509 88.5478L128.503 90.0403ZM187.9 263.959C188.96 264.844 190.536 264.703 191.422 263.643L205.849 246.378C206.734 245.318 206.593 243.742 205.534 242.856C204.474 241.971 202.898 242.112 202.012 243.172L189.188 258.519L173.841 245.695C172.781 244.809 171.205 244.95 170.319 246.01C169.434 247.069 169.575 248.646 170.635 249.531L187.9 263.959ZM480.274 4.03856C480.848 2.78262 480.295 1.29951 479.039 0.72593C477.783 0.152349 476.3 0.705507 475.726 1.96144L480.274 4.03856ZM35.1445 145.155C15.4772 128.026 6.67428 110.347 5.61095 95.0437C4.55101 79.7896 11.1449 66.5781 22.9631 58.0692L20.0417 54.0115C6.8594 63.5025 -0.56039 78.3599 0.622976 95.3903C1.80295 112.372 11.5004 131.193 31.8606 148.926L35.1445 145.155ZM22.9631 58.0692C34.6763 49.6359 52.5851 47.3365 71.7175 52.5765C90.7879 57.7996 110.821 70.4669 126.498 91.5329L130.509 88.5478C114.186 66.6138 93.2182 53.2811 73.0383 47.7541C52.9205 42.2442 33.329 44.4448 20.0417 54.0115L22.9631 58.0692ZM126.498 91.5329C151.988 125.785 181.052 195.694 187.013 262.263L191.993 261.817C185.955 194.386 156.583 123.585 130.509 88.5478L126.498 91.5329ZM475.726 1.96144C437.398 85.8867 352.479 143.721 264.235 169.499C175.866 195.313 85.1636 188.719 35.1445 145.155L31.8606 148.926C83.774 194.14 176.6 200.308 265.637 174.298C354.8 148.252 441.163 89.6775 480.274 4.03856L475.726 1.96144Z"/></svg>