<svg width="363" height="262" viewBox="0 0 363 262" fill="none" xmlns="http://www.w3.org/2000/svg">
<path fill-rule="evenodd" clip-rule="evenodd" d="M239.132 81.0096C233.275 84.5374 227.521 86.242 224.82 85.5461C218.046 83.8013 217.424 59.0378 222.665 49.2752C227.906 39.5126 254.848 35.2575 256.206 54.6002C256.677 61.3135 253.857 67.3047 249.689 72.1933L257.162 107H235.456L239.132 81.0096Z" fill="#B28B67"/>
<path fill-rule="evenodd" clip-rule="evenodd" d="M226.263 38.5552C221.681 39.1082 217.908 39.5634 216.258 38.5131C215.08 45.8918 218.879 51.8415 232.237 50.6912C235.183 52.3378 237.279 55.4233 239.803 59.4706C240.417 59.2292 241.086 59.0966 241.787 59.0966C244.784 59.0966 247.213 61.5246 247.213 64.5197C247.213 66.0401 246.587 67.4144 245.578 68.3992C246.834 70.1703 248.241 72.0206 249.854 73.9298C255.871 70.3218 260.347 59.8064 254.601 49.6552C251.172 35.5493 236.641 37.3028 226.263 38.5552Z" fill="#191847"/>
<path fill-rule="evenodd" clip-rule="evenodd" d="M322.484 227.686C319.748 222.186 306.079 151.4 306.079 151.4L285.636 151.476C285.636 151.476 308.991 226.459 310.431 229.996C312.302 234.59 309.124 241.266 306.969 245.792C306.636 246.492 306.327 247.141 306.065 247.723C309.055 249.049 310.492 247.446 312.006 245.757C313.716 243.848 315.526 241.829 319.786 243.793C321.432 244.552 322.989 245.449 324.511 246.326C329.767 249.353 334.596 252.134 341.164 248.118C342.206 247.481 343.347 245.084 340.59 243.211C333.72 238.543 323.822 230.374 322.484 227.686ZM150.308 200.105L176.755 174.538L185.538 189.6L158.037 205.667C151.142 216.431 147.092 221.082 145.888 219.619C144.872 218.387 145.338 217.035 145.766 215.791C146.1 214.821 146.412 213.916 145.984 213.182C145.006 211.506 139.485 212.466 134.285 213.599C129.084 214.732 130.288 212.2 131.393 210.879C136.308 206.949 142.613 203.357 150.308 200.105Z" fill="#B28B67"/>
<path fill-rule="evenodd" clip-rule="evenodd" d="M243.785 93.9332L235.712 92.5611C222.995 137.108 157.654 167.473 153.643 184.126C152.172 190.233 156.607 193.32 154.316 195.18L164.809 202.792C166.586 200.737 170.378 204.495 178.297 201.867C186.216 199.238 243.785 146.681 243.785 93.9332Z" fill="#DB2721"/>
<path fill-rule="evenodd" clip-rule="evenodd" d="M257.878 84.6513C260.082 84.4986 261.994 86.1612 262.15 88.3649L262.511 93.4854C277.704 105.071 315.359 139.692 325.172 204.14C326.202 210.91 324.338 214.536 322.849 217.433C321.83 219.415 320.986 221.056 321.365 223.129L307.632 226.885C307.632 225.355 305.901 224.19 303.668 222.688C300.421 220.504 296.113 217.606 294.52 211.828C293.01 206.352 290.799 199.512 288.157 191.902C287.907 201.98 285.979 211.248 281.777 218.924C271.296 238.075 210.723 217.073 204.394 197.535C201.017 187.11 205.809 178.357 212.146 166.782C220.191 152.087 230.726 132.844 230.205 99.855L229.553 90.6236C229.398 88.4199 231.059 86.5097 233.262 86.357L257.878 84.6513Z" fill="#FF4133"/>
<path fill-rule="evenodd" clip-rule="evenodd" d="M187.993 78.5411C188.868 57.6449 174.502 33.4878 150.532 27.0651C123.213 19.7449 95.1789 38.6127 89.2009 60.9227C83.223 83.2328 112.264 99.9063 134.671 105.91C156.379 111.727 179.266 109.513 186.108 89.081C193.539 88.7034 201.774 86.7103 212.731 82.9821C199.722 82.8502 192.685 81.2149 187.993 78.5411Z" fill="#F27781"/>
<g filter="url(#filter0_d)">
<path d="M140.75 73.4547H135.389L133.389 85H128.306L130.306 73.4547H124V68.6113H131.139L132.528 60.614H126.083V55.7143H133.389L135.417 44H140.472L138.444 55.7143H143.833L145.861 44H150.944L148.917 55.7143H155V60.614H148.056L146.667 68.6113H152.889V73.4547H145.833L143.833 85H138.75L140.75 73.4547ZM136.222 68.6113H141.583L142.972 60.614H137.583L136.222 68.6113Z" fill="white"/>
</g>
<defs>
<filter id="filter0_d" x="0" y="0" width="199" height="209" filterUnits="userSpaceOnUse" color-interpolation-filters="sRGB">
<feFlood flood-opacity="0" result="BackgroundImageFix"/>
<feColorMatrix in="SourceAlpha" type="matrix" values="0 0 0 0 0 0 0 0 0 0 0 0 0 0 0 0 0 0 127 0"/>
<feOffset dx="-40" dy="40"/>
<feGaussianBlur stdDeviation="42"/>
<feColorMatrix type="matrix" values="0 0 0 0 0 0 0 0 0 0 0 0 0 0 0 0 0 0 0.16 0"/>
<feBlend mode="normal" in2="BackgroundImageFix" result="effect1_dropShadow"/>
<feBlend mode="normal" in="SourceGraphic" in2="effect1_dropShadow" result="shape"/>
</filter>
</defs>
</svg>
