<svg xmlns="http://www.w3.org/2000/svg" width="340" height="269" fill="none" viewBox="0 0 340 269"><path fill="#F4EDE3" fill-rule="evenodd" d="M268.924 165.607C309.07 113.24 275.172 90.606 228.38 63.6334C181.588 36.6607 134.472 -5.6336 94.3264 46.7333C54.1804 99.1001 64.7173 184.615 111.509 211.588C158.301 238.56 228.779 217.974 268.924 165.607Z" clip-rule="evenodd"/><path fill="#000" d="M265.277 135.119V148.031L285.597 135.119H265.277Z"/><path fill="#000" d="M265.278 165.821H249.154L244.028 174.71H285.499L265.278 161.841V165.821Z"/><path fill="#000" d="M86.3081 161.841L66.0972 174.71H107.514L102.377 165.821H86.3189L86.3081 161.841Z"/><path fill="#000" d="M86.3189 148.031V135.119H66.0107L66.0972 135.173L86.3189 148.031Z"/><path fill="#DF472A" d="M204.33 184.071L210.051 174.177L215.76 164.282H204.33L198.62 174.177L192.911 184.071H204.33Z"/><path fill="#DF472A" d="M232.901 174.176H221.471L227.191 184.07L232.901 174.176Z"/><path fill="#DF472A" d="M238.61 184.073H227.191L232.901 193.967L238.61 184.073Z"/><path fill="#DF472A" d="M221.47 193.966L215.761 203.861H227.191L221.47 193.966Z"/><path fill="#DF472A" d="M152.91 174.176L147.201 184.07L152.91 193.965H164.341L158.631 184.07L152.91 174.176Z"/><path fill="#DF472A" d="M170.051 243.453H181.481H192.911L187.201 233.558H198.632L204.341 243.453L210.051 233.558L204.341 223.663L210.051 213.769L204.341 203.874L210.051 193.979H198.632L192.922 184.085H181.492L187.201 193.979L192.911 203.874H181.481L187.191 193.979H175.76L181.481 184.085L175.76 174.19L170.051 164.295L164.341 174.19L170.051 184.085L164.341 193.979L170.051 203.874H158.62L152.911 213.769L158.62 223.663H170.051L164.341 233.558H152.911L158.62 243.453H170.051ZM175.771 213.769H187.201L181.492 223.663L175.771 213.769Z"/><path fill="#DF472A" d="M130.061 213.768L135.771 223.663L141.491 213.768H130.061Z"/><path fill="#DF472A" d="M124.34 203.863L130.061 213.769L135.771 203.863H124.34Z"/><path fill="#DF472A" d="M118.63 174.176H107.2L112.921 184.07L118.63 174.176Z"/><path fill="#DF472A" d="M187.19 174.177H198.621L192.911 164.282H181.481L175.771 174.177H187.19Z"/><path fill="#DF472A" d="M238.611 164.282L232.901 174.177H244.331L238.611 164.282Z"/><path fill="#DF472A" d="M124.341 164.282L118.631 174.177H130.061L124.341 164.282Z"/><path fill="#DF472A" d="M227.191 164.282H215.761L221.47 174.177L227.191 164.282Z"/><path fill="#047A42" d="M101.49 114.798L107.2 104.904H95.7808L101.49 114.798Z"/><path fill="#047A42" d="M158.621 114.797L164.342 124.692H175.761L170.051 114.797H158.621Z"/><path fill="#047A42" d="M164.342 104.904L170.052 114.798L175.761 104.904H164.342Z"/><path fill="#047A42" d="M192.912 75.2195L198.622 85.1142H210.052L215.762 75.2195L210.052 65.3249H221.472L215.762 55.4302H204.332H192.912L198.622 65.3249L204.332 75.2195H192.912Z"/><path fill="#047A42" d="M232.902 65.3232H221.472L227.192 75.2179L232.902 65.3232Z"/><path fill="#047A42" d="M198.62 65.3232H187.19L181.48 75.2179H192.911L198.62 65.3232Z"/><path fill="#047A42" d="M204.33 114.797L198.62 124.692H255.75L250.04 114.797L255.75 104.903H244.331L250.04 95.008H238.61L244.331 85.1133H232.9L227.191 95.008H215.76L221.47 85.1133H210.051L204.33 95.008L198.62 85.1133L192.911 95.008H181.48L187.19 104.903H198.62L204.33 114.797Z"/><path fill="#047A42" d="M187.19 124.693H198.62L192.911 114.798L187.19 104.904L181.48 114.798L187.19 124.693Z"/><path fill="#4CA949" d="M164.341 124.692L158.62 114.797L152.911 124.692H164.341Z"/><path fill="#4CA949" d="M164.341 104.905L170.05 95.0106H158.62L164.341 104.905Z"/><path fill="#4CA949" d="M164.341 85.1151H175.76L170.051 75.2205L164.341 85.1151Z"/><path fill="#4CA949" d="M170.05 55.43H181.481L175.76 45.5245L170.05 55.43Z"/><path fill="#4CA949" d="M158.62 55.43H170.05L164.341 45.5245L158.62 55.43Z"/><path fill="#4CA949" d="M204.33 95.008L210.051 85.1133H198.621L204.33 95.008Z"/><path fill="#4CA949" d="M147.201 55.43L152.91 65.3247H164.341L158.62 55.43L152.91 45.5245L147.201 55.43Z"/><path fill="#4CA949" d="M141.48 65.3249L147.201 55.4302H135.771L141.48 65.3249Z"/><path fill="#4CA949" d="M221.471 85.1133L227.191 95.008L232.901 85.1133H221.471Z"/><path fill="#4CA949" d="M118.631 124.692L124.34 114.797H112.91L118.62 104.902L124.329 114.797L130.039 124.692H141.469L147.179 114.797H158.609L152.9 104.902H141.469L147.179 95.0073L141.469 85.1126L147.179 75.2179L141.469 65.3232H130.039H118.609L124.319 75.2179H135.749L130.039 85.1126L124.329 75.2179L118.62 85.1126H107.19L112.899 95.0073H101.469L107.179 104.902L101.469 114.797L95.7593 124.692H107.19H118.631ZM135.771 95.0073L130.061 104.902L124.351 95.0073H135.771Z"/><path fill="#238F49" d="M204.33 75.2179L198.62 65.3232L192.911 75.2179H204.33Z"/><path fill="#238F49" d="M238.611 95.0106L244.332 104.905L250.04 95.0106H238.611Z"/><path fill="#238F49" d="M130.061 65.3249H141.48L135.771 55.4302L130.061 65.3249Z"/><path fill="#238F49" d="M135.771 75.2205H124.34L130.061 85.1151L135.771 75.2205Z"/><path fill="#238F49" d="M124.34 75.2205H112.921L118.631 85.1151L124.34 75.2205Z"/><path fill="#238F49" d="M118.631 124.692H130.061L124.341 114.797L118.631 124.692Z"/><path fill="#238F49" d="M112.921 114.798H124.34L118.631 104.904L112.921 114.798Z"/><path fill="#238F49" d="M130.061 104.905L135.771 95.0106H124.34L130.061 104.905Z"/><path fill="#238F49" d="M198.621 124.693L204.33 114.798L198.621 104.904H187.19L192.911 114.798L198.621 124.693Z"/><path fill="#238F49" d="M198.62 45.5245L192.911 55.43H204.33L198.62 45.5245Z"/><path fill="#238F49" d="M221.47 85.1126H232.9L238.61 75.2179H227.191L221.47 65.3232H210.051L215.76 75.2179L210.051 85.1126H221.47Z"/><path fill="#238F49" d="M227.191 95.008L221.47 85.1133L215.761 95.008H227.191Z"/><path fill="#238F49" d="M158.62 114.797H147.201L141.48 124.692H152.91L158.62 114.797Z"/><path fill="#238F49" d="M164.341 104.905L158.62 95.0106H170.051L164.341 104.905H175.771L170.061 114.8L175.771 124.695H187.201L181.492 114.8L187.201 104.905L181.492 95.0106H192.922L198.632 85.1159L192.922 75.2213H181.492L187.201 65.3266H198.632L192.922 55.4319L187.212 45.5372L181.502 55.4319H170.072H158.62L164.341 65.3266H152.911L147.201 55.4319L141.491 65.3266L147.201 75.2213L141.491 85.1159L147.201 95.0106L141.491 104.905H152.921L158.631 114.8H170.061L164.341 104.905ZM170.051 75.2213L175.76 85.1159H164.33L170.051 75.2213Z"/><path fill="#fff" d="M66 135.119L66.0108 136.612L86.3188 149.534V148.031L66 135.119Z"/><path fill="#000" d="M265.277 161.863V147.827V135.034V124.707H86.3188V135.034V147.827V161.863V164.285H106.627H244.969H265.277V161.863Z"/><path fill="#E56228" d="M192.911 184.07L187.19 174.176H175.771L181.481 184.07H192.911Z"/><path fill="#E56228" d="M187.19 193.967L181.481 184.073L175.771 193.967H187.19Z"/><path fill="#E56228" d="M164.341 233.557L170.051 223.662H158.631L152.911 233.557H164.341Z"/><path fill="#E56228" d="M135.771 223.663L141.491 233.558L147.201 243.453H158.631L152.91 233.558L147.201 223.663H158.631L152.91 213.768H141.491L135.771 223.663Z"/><path fill="#E56228" d="M158.63 164.282H101.5L124.34 203.861H135.77L130.06 213.755H141.491L147.201 203.861L152.911 213.755L158.619 203.861H170.05L164.34 193.966H152.911L147.201 184.071L152.911 174.177L158.619 184.071L164.329 193.966L170.039 184.071L164.329 174.177L170.039 164.282H158.63ZM124.34 184.071L118.631 174.177L112.92 184.071L107.21 174.177H118.64L124.35 164.282L130.06 174.177L124.34 184.071Z"/><path fill="#E56228" d="M175.771 174.177L181.481 164.282H170.05L175.771 174.177Z"/><path fill="#E56228" d="M112.921 164.282H101.491L107.2 174.177L112.921 164.282Z"/><path fill="#C1302C" d="M187.19 174.18L192.911 184.075L198.621 174.18H187.19Z"/><path fill="#C1302C" d="M187.19 193.971L181.48 203.865H192.911L187.19 193.971Z"/><path fill="#C1302C" d="M187.19 213.768H175.771L181.481 223.663L187.19 213.768Z"/><path fill="#C1302C" d="M204.33 243.454L198.621 233.559H187.19L192.911 243.454H204.33Z"/><path fill="#C1302C" d="M221.47 193.971L227.191 203.865H215.761L221.47 193.971Z"/><path fill="#C1302C" d="M147.201 203.863L141.491 213.769H152.911L147.201 203.863Z"/><path fill="#C1302C" d="M130.061 174.18H118.631L124.341 184.075L130.061 174.18Z"/><path fill="#C1302C" d="M147.201 223.662L152.91 233.557L158.631 223.662H147.201Z"/><path fill="#C1302C" d="M232.901 193.969L235.756 189.028L232.901 193.969Z"/><path fill="#C1302C" d="M238.61 164.282L244.331 174.177L250.041 164.282H238.621H238.61Z"/><path fill="#C1302C" d="M227.191 184.075H238.61L235.755 189.028L244.331 174.18H232.901L227.191 184.075Z"/><path fill="#C1302C" d="M221.471 174.177L215.761 164.282L210.051 174.177L204.331 184.071H192.911L198.621 193.966H210.051L204.331 203.861L210.051 213.766L204.331 223.661L210.051 233.556L215.761 223.661L221.471 213.766L232.901 193.966L227.191 184.071L221.471 174.177Z"/><path fill="#C1302C" d="M221.471 174.177H232.901L238.61 164.282H192.911L198.621 174.177L204.331 164.282H215.761H227.191L221.471 174.177Z"/><path fill="#C1302C" d="M238.61 164.282L244.331 174.177L250.041 164.282H238.61Z"/><path fill="#241F20" d="M201.79 36.0104L201.671 35.978L191.268 74.7997L191.247 74.9187L254.183 91.7775L254.302 91.8099L264.705 52.9882L264.738 52.8692L201.79 36.0104Z"/><path fill="#fff" d="M201.758 36.1173L227.992 63.8873L196.567 55.4741L201.758 36.1173Z"/><path fill="#fff" d="M227.992 63.8869L264.738 52.8676L233.204 44.422L227.992 63.8869Z"/><path fill="#fff" d="M227.992 63.8869L191.247 74.917L222.769 83.3627L227.992 63.8869Z"/><path fill="#fff" d="M254.335 91.7866L227.992 63.8869L259.536 72.3433L254.335 91.7866Z"/><path fill="#A57D2D" d="M186.088 95.0104H183.417L199.399 35.3612L201.897 36.0317L186.088 95.0104Z"/><path fill="#FED211" d="M149.629 36.0282L86.8013 52.8619L97.1728 91.5714L160 74.7377L149.629 36.0282Z"/><path fill="#005C9C" fill-rule="evenodd" d="M103.372 72.0229C102.258 72.3257 101.296 71.6444 101.004 70.5414C100.701 69.4059 101.198 68.3786 102.366 68.065C102.896 67.9244 103.361 68.0109 103.826 68.2488L104.086 67.1242C103.426 66.8755 102.745 66.8322 101.999 67.0377C100.268 67.5027 99.3709 69.1139 99.8575 70.9415C100.323 72.6825 101.891 73.5476 103.567 73.1043C104.367 72.888 104.929 72.5203 105.383 71.9796L104.594 71.1361C104.313 71.5579 103.945 71.8715 103.372 72.0229Z" clip-rule="evenodd"/><path fill="#005C9C" fill-rule="evenodd" d="M113.7 64.6501L113.56 64.1094L112.435 64.4122L113.971 70.1543L115.117 69.8515L114.252 66.6182C114.057 65.8937 113.895 64.9745 114.749 64.7582C115.052 64.6717 115.279 64.7582 115.506 64.8771L115.766 63.6984C115.376 63.5795 115.041 63.547 114.706 63.6444C114.133 63.7958 113.83 64.1959 113.7 64.6501Z" clip-rule="evenodd"/><path fill="#005C9C" fill-rule="evenodd" d="M117.863 63.5362L117.722 62.9955L116.608 63.2983L118.144 69.0405L119.269 68.7377L118.404 65.5043C118.209 64.7798 118.057 63.8606 118.901 63.6335C119.204 63.547 119.42 63.6335 119.647 63.7525L119.907 62.5738C119.539 62.444 119.193 62.4224 118.847 62.5197C118.295 62.6711 118.003 63.0712 117.863 63.5362Z" clip-rule="evenodd"/><path fill="#005C9C" d="M120.642 59.2318C121.064 59.1236 121.496 59.3723 121.615 59.8049C121.734 60.2374 121.485 60.67 121.064 60.789C120.631 60.9079 120.22 60.6484 120.101 60.2158C119.972 59.7833 120.209 59.3507 120.642 59.2318ZM120.815 62.1731L121.95 61.8703L123.486 67.6125L122.351 67.9153L120.815 62.1731Z"/><path fill="#025CA1" fill-rule="evenodd" d="M127.314 64.8666C127.444 65.3424 127.206 65.6776 126.719 65.8182C126.157 65.9696 125.649 65.6668 125.324 65.2775L124.546 66.121C125.141 66.7915 125.984 67.0943 126.957 66.8455C128.06 66.5428 128.752 65.6452 128.45 64.4881C127.909 62.4659 125.411 63.5689 125.119 62.4984C125.054 62.2605 125.151 61.9469 125.519 61.8495C125.93 61.7414 126.265 61.8928 126.568 62.1091L127.238 61.2223C126.665 60.7898 126.07 60.6059 125.324 60.8114C124.427 61.0493 123.735 61.8495 124.005 62.8769C124.492 64.7152 126.968 63.623 127.314 64.8666Z" clip-rule="evenodd"/><path fill="#fff" fill-rule="evenodd" d="M140.011 62.8195C139.74 62.9926 139.448 63.1548 139.113 63.2413C137.448 63.6847 135.945 62.679 135.512 61.0569C135.09 59.4673 135.88 57.8127 137.534 57.3694C137.87 57.2829 138.205 57.2612 138.518 57.2829C138.756 56.7313 139.092 56.2339 139.513 55.8122C138.756 55.5959 137.934 55.5959 137.123 55.8122C134.636 56.4826 133.198 59.0239 133.858 61.5111C134.528 64.0091 137.048 65.4581 139.524 64.7985C140.335 64.5822 141.049 64.1605 141.6 63.609C141.027 63.4468 140.487 63.1764 140.011 62.8195ZM140.076 57.8992C140.281 57.3802 140.627 56.926 141.114 56.5908C141.914 57.1963 142.52 58.0723 142.801 59.1104C143.082 60.1593 142.985 61.1975 142.595 62.1166C142.022 62.0734 141.492 61.8571 141.049 61.5003C141.287 60.9055 141.319 60.2242 141.135 59.543C140.952 58.8833 140.584 58.3102 140.076 57.8992Z" clip-rule="evenodd"/><path fill="#005C9C" fill-rule="evenodd" d="M140.075 57.901C139.642 57.5441 139.101 57.3279 138.528 57.2846C138.139 58.2038 138.052 59.2744 138.334 60.3125C138.615 61.3506 139.22 62.2157 140.01 62.8105C140.485 62.4861 140.832 62.0319 141.037 61.502C140.55 61.1019 140.172 60.5288 139.988 59.8475C139.815 59.1878 139.858 58.5066 140.075 57.901Z" clip-rule="evenodd"/><path fill="#005C9C" d="M107.644 65.5232C108.314 65.3718 109.039 65.5016 109.623 65.945L109.428 65.2205L110.553 64.9177L112.088 70.6598L110.964 70.9626L110.78 70.2705C110.466 70.9302 109.904 71.3627 109.266 71.579L109.039 71.6439C107.384 72.0872 105.946 70.9842 105.513 69.3513C105.081 67.7401 105.784 66.0315 107.536 65.5665L107.644 65.5232ZM108.985 70.5192C110.12 70.2056 110.509 69.1026 110.228 68.0212C109.947 66.9723 109.049 66.3127 107.936 66.583C106.843 66.875 106.389 67.9672 106.66 68.962C106.962 70.0759 107.838 70.8328 108.963 70.5301L108.985 70.5192Z"/><path fill="#005C9C" fill-rule="evenodd" d="M141.599 54.6242C144.108 53.9537 146.617 55.4352 147.287 57.9224C147.958 60.4204 146.487 62.94 144.011 63.5997C143.2 63.816 142.378 63.8051 141.621 63.5997C142.043 63.1779 142.378 62.6697 142.605 62.1182C142.929 62.1398 143.264 62.1182 143.6 62.0317C145.254 61.5883 146.054 59.9554 145.622 58.3333C145.2 56.7437 143.686 55.7164 142.021 56.1597C141.686 56.2463 141.383 56.4085 141.123 56.5815C140.648 56.2246 140.107 55.9543 139.534 55.8029C140.074 55.2514 140.788 54.8405 141.599 54.6242Z" clip-rule="evenodd"/><path fill="#A57D2D" d="M170.775 104.905H168.093L149.634 36.0209L152.132 35.3612L170.775 104.905Z"/><path fill="#fff" d="M265.288 164.295H86.3188V165.82H265.288V164.295Z"/><path fill="#fff" d="M104.993 150.314C104.993 150.856 105.14 151.26 105.433 151.524C105.741 151.773 106.101 151.898 106.511 151.898C106.717 151.898 106.878 151.868 106.995 151.81L105.983 150.996L107.127 149.632L108.029 150.358V150.314V142.042C108.029 141.499 107.875 141.103 107.567 140.854C107.274 140.59 106.922 140.458 106.511 140.458C106.101 140.458 105.741 140.59 105.433 140.854C105.14 141.103 104.993 141.499 104.993 142.042V150.314ZM102.749 142.042C102.749 141.411 102.859 140.854 103.079 140.37C103.299 139.886 103.593 139.482 103.959 139.16C104.311 138.852 104.707 138.617 105.147 138.456C105.602 138.294 106.057 138.214 106.511 138.214C106.966 138.214 107.413 138.294 107.853 138.456C108.308 138.617 108.719 138.852 109.085 139.16C109.437 139.482 109.723 139.886 109.943 140.37C110.163 140.854 110.273 141.411 110.273 142.042V150.314C110.273 150.93 110.163 151.465 109.943 151.92L111.329 153.042L110.185 154.406L108.865 153.328C108.191 153.87 107.406 154.142 106.511 154.142C106.057 154.142 105.602 154.061 105.147 153.9C104.707 153.738 104.311 153.496 103.959 153.174C103.593 152.866 103.299 152.477 103.079 152.008C102.859 151.538 102.749 150.974 102.749 150.314V142.042ZM119.508 138.346V150.49C119.508 151.003 119.413 151.48 119.222 151.92C119.046 152.345 118.79 152.726 118.452 153.064C118.115 153.401 117.726 153.665 117.286 153.856C116.846 154.046 116.377 154.142 115.878 154.142C115.38 154.142 114.91 154.046 114.47 153.856C114.045 153.665 113.664 153.401 113.326 153.064C112.989 152.726 112.725 152.345 112.534 151.92C112.344 151.48 112.248 151.003 112.248 150.49V138.346H114.492V150.27C114.492 150.827 114.624 151.238 114.888 151.502C115.152 151.766 115.482 151.898 115.878 151.898C116.274 151.898 116.604 151.766 116.868 151.502C117.132 151.238 117.264 150.827 117.264 150.27V138.346H119.508ZM125.89 148.532L124.79 142.856H124.746L123.646 148.532H125.89ZM120.346 154.01L123.844 138.346H125.714L129.212 154.01H126.968L126.308 150.644H123.25L122.59 154.01H120.346ZM130.317 154.01V138.346H133.639C134.929 138.346 135.905 138.698 136.565 139.402C137.239 140.106 137.577 141.103 137.577 142.394V149.72C137.577 151.186 137.217 152.272 136.499 152.976C135.795 153.665 134.775 154.01 133.441 154.01H130.317ZM132.561 140.458V151.898H133.595C134.225 151.898 134.673 151.744 134.937 151.436C135.201 151.113 135.333 150.614 135.333 149.94V142.394C135.333 141.778 135.208 141.301 134.959 140.964C134.709 140.626 134.255 140.458 133.595 140.458H132.561ZM141.928 140.458V145.342H143.204C143.6 145.342 143.915 145.29 144.15 145.188C144.385 145.07 144.568 144.909 144.7 144.704C144.817 144.498 144.898 144.249 144.942 143.956C144.986 143.648 145.008 143.296 145.008 142.9C145.008 142.504 144.986 142.159 144.942 141.866C144.898 141.558 144.81 141.294 144.678 141.074C144.399 140.663 143.871 140.458 143.094 140.458H141.928ZM139.684 154.01V138.346H143.292C145.932 138.346 147.252 139.878 147.252 142.944C147.252 143.868 147.105 144.652 146.812 145.298C146.533 145.943 146.035 146.464 145.316 146.86L147.736 154.01H145.36L143.27 147.322H141.928V154.01H139.684ZM153.583 148.532L152.483 142.856H152.439L151.339 148.532H153.583ZM148.039 154.01L151.537 138.346H153.407L156.905 154.01H154.661L154.001 150.644H150.943L150.283 154.01H148.039ZM165.27 142.856H163.026V142.35C163.026 141.836 162.901 141.396 162.652 141.03C162.417 140.648 162.014 140.458 161.442 140.458C161.134 140.458 160.885 140.516 160.694 140.634C160.503 140.751 160.349 140.898 160.232 141.074C160.115 141.264 160.034 141.484 159.99 141.734C159.946 141.968 159.924 142.218 159.924 142.482C159.924 142.79 159.931 143.046 159.946 143.252C159.975 143.457 160.034 143.64 160.122 143.802C160.21 143.963 160.335 144.102 160.496 144.22C160.672 144.337 160.907 144.454 161.2 144.572L162.916 145.254C163.415 145.444 163.818 145.672 164.126 145.936C164.434 146.185 164.676 146.478 164.852 146.816C165.013 147.168 165.123 147.571 165.182 148.026C165.241 148.466 165.27 148.972 165.27 149.544C165.27 150.204 165.204 150.82 165.072 151.392C164.94 151.949 164.727 152.426 164.434 152.822C164.126 153.232 163.723 153.555 163.224 153.79C162.725 154.024 162.117 154.142 161.398 154.142C160.855 154.142 160.349 154.046 159.88 153.856C159.411 153.665 159.007 153.401 158.67 153.064C158.333 152.726 158.061 152.338 157.856 151.898C157.665 151.443 157.57 150.952 157.57 150.424V149.588H159.814V150.292C159.814 150.702 159.931 151.076 160.166 151.414C160.415 151.736 160.826 151.898 161.398 151.898C161.779 151.898 162.073 151.846 162.278 151.744C162.498 151.626 162.667 151.465 162.784 151.26C162.901 151.054 162.967 150.812 162.982 150.534C163.011 150.24 163.026 149.918 163.026 149.566C163.026 149.155 163.011 148.818 162.982 148.554C162.953 148.29 162.894 148.077 162.806 147.916C162.703 147.754 162.564 147.622 162.388 147.52C162.227 147.417 162.007 147.307 161.728 147.19L160.122 146.53C159.154 146.134 158.501 145.613 158.164 144.968C157.841 144.308 157.68 143.486 157.68 142.504C157.68 141.917 157.761 141.36 157.922 140.832C158.083 140.304 158.325 139.849 158.648 139.468C158.956 139.086 159.345 138.786 159.814 138.566C160.298 138.331 160.87 138.214 161.53 138.214C162.087 138.214 162.593 138.316 163.048 138.522C163.517 138.727 163.921 138.998 164.258 139.336C164.933 140.04 165.27 140.846 165.27 141.756V142.856ZM171.03 154.01V138.346H174.396C175.012 138.346 175.554 138.426 176.024 138.588C176.493 138.749 176.918 139.035 177.3 139.446C177.681 139.856 177.945 140.34 178.092 140.898C178.238 141.44 178.312 142.181 178.312 143.12C178.312 143.824 178.268 144.418 178.18 144.902C178.106 145.386 177.938 145.84 177.674 146.266C177.366 146.779 176.955 147.182 176.442 147.476C175.928 147.754 175.254 147.894 174.418 147.894H173.274V154.01H171.03ZM173.274 140.458V145.782H174.352C174.806 145.782 175.158 145.716 175.408 145.584C175.657 145.452 175.84 145.268 175.958 145.034C176.075 144.814 176.141 144.542 176.156 144.22C176.185 143.897 176.2 143.538 176.2 143.142C176.2 142.775 176.192 142.43 176.178 142.108C176.163 141.77 176.097 141.477 175.98 141.228C175.862 140.978 175.686 140.788 175.452 140.656C175.217 140.524 174.88 140.458 174.44 140.458H173.274ZM179.857 142.042C179.857 141.411 179.967 140.854 180.187 140.37C180.407 139.886 180.7 139.482 181.067 139.16C181.419 138.852 181.815 138.617 182.255 138.456C182.709 138.294 183.164 138.214 183.619 138.214C184.073 138.214 184.521 138.294 184.961 138.456C185.415 138.617 185.826 138.852 186.193 139.16C186.545 139.482 186.831 139.886 187.051 140.37C187.271 140.854 187.381 141.411 187.381 142.042V150.314C187.381 150.974 187.271 151.538 187.051 152.008C186.831 152.477 186.545 152.866 186.193 153.174C185.826 153.496 185.415 153.738 184.961 153.9C184.521 154.061 184.073 154.142 183.619 154.142C183.164 154.142 182.709 154.061 182.255 153.9C181.815 153.738 181.419 153.496 181.067 153.174C180.7 152.866 180.407 152.477 180.187 152.008C179.967 151.538 179.857 150.974 179.857 150.314V142.042ZM182.101 150.314C182.101 150.856 182.247 151.26 182.541 151.524C182.849 151.773 183.208 151.898 183.619 151.898C184.029 151.898 184.381 151.773 184.675 151.524C184.983 151.26 185.137 150.856 185.137 150.314V142.042C185.137 141.499 184.983 141.103 184.675 140.854C184.381 140.59 184.029 140.458 183.619 140.458C183.208 140.458 182.849 140.59 182.541 140.854C182.247 141.103 182.101 141.499 182.101 142.042V150.314ZM189.356 154.01V138.346H192.722C193.338 138.346 193.88 138.426 194.35 138.588C194.819 138.749 195.244 139.035 195.626 139.446C196.007 139.856 196.271 140.34 196.418 140.898C196.564 141.44 196.638 142.181 196.638 143.12C196.638 143.824 196.594 144.418 196.506 144.902C196.432 145.386 196.264 145.84 196 146.266C195.692 146.779 195.281 147.182 194.768 147.476C194.254 147.754 193.58 147.894 192.744 147.894H191.6V154.01H189.356ZM191.6 140.458V145.782H192.678C193.132 145.782 193.484 145.716 193.734 145.584C193.983 145.452 194.166 145.268 194.284 145.034C194.401 144.814 194.467 144.542 194.482 144.22C194.511 143.897 194.526 143.538 194.526 143.142C194.526 142.775 194.518 142.43 194.504 142.108C194.489 141.77 194.423 141.477 194.306 141.228C194.188 140.978 194.012 140.788 193.778 140.656C193.543 140.524 193.206 140.458 192.766 140.458H191.6ZM205.575 138.346V150.49C205.575 151.003 205.479 151.48 205.289 151.92C205.113 152.345 204.856 152.726 204.519 153.064C204.181 153.401 203.793 153.665 203.353 153.856C202.913 154.046 202.443 154.142 201.945 154.142C201.446 154.142 200.977 154.046 200.537 153.856C200.111 153.665 199.73 153.401 199.393 153.064C199.055 152.726 198.791 152.345 198.601 151.92C198.41 151.48 198.315 151.003 198.315 150.49V138.346H200.559V150.27C200.559 150.827 200.691 151.238 200.955 151.502C201.219 151.766 201.549 151.898 201.945 151.898C202.341 151.898 202.671 151.766 202.935 151.502C203.199 151.238 203.331 150.827 203.331 150.27V138.346H205.575ZM207.682 154.01V138.346H209.926V151.766H214.37V154.01H207.682ZM220.357 148.532L219.257 142.856H219.213L218.113 148.532H220.357ZM214.813 154.01L218.311 138.346H220.181L223.679 154.01H221.435L220.775 150.644H217.717L217.057 154.01H214.813ZM227.028 140.458V145.342H228.304C228.7 145.342 229.015 145.29 229.25 145.188C229.484 145.07 229.668 144.909 229.8 144.704C229.917 144.498 229.998 144.249 230.042 143.956C230.086 143.648 230.108 143.296 230.108 142.9C230.108 142.504 230.086 142.159 230.042 141.866C229.998 141.558 229.91 141.294 229.778 141.074C229.499 140.663 228.971 140.458 228.194 140.458H227.028ZM224.784 154.01V138.346H228.392C231.032 138.346 232.352 139.878 232.352 142.944C232.352 143.868 232.205 144.652 231.912 145.298C231.633 145.943 231.134 146.464 230.416 146.86L232.836 154.01H230.46L228.37 147.322H227.028V154.01H224.784ZM234.151 154.01V138.346H240.839V140.458H236.395V145.056H240.267V147.168H236.395V151.766H240.839V154.01H234.151ZM249.553 142.856H247.309V142.35C247.309 141.836 247.185 141.396 246.935 141.03C246.701 140.648 246.297 140.458 245.725 140.458C245.417 140.458 245.168 140.516 244.977 140.634C244.787 140.751 244.633 140.898 244.515 141.074C244.398 141.264 244.317 141.484 244.273 141.734C244.229 141.968 244.207 142.218 244.207 142.482C244.207 142.79 244.215 143.046 244.229 143.252C244.259 143.457 244.317 143.64 244.405 143.802C244.493 143.963 244.618 144.102 244.779 144.22C244.955 144.337 245.19 144.454 245.483 144.572L247.199 145.254C247.698 145.444 248.101 145.672 248.409 145.936C248.717 146.185 248.959 146.478 249.135 146.816C249.297 147.168 249.407 147.571 249.465 148.026C249.524 148.466 249.553 148.972 249.553 149.544C249.553 150.204 249.487 150.82 249.355 151.392C249.223 151.949 249.011 152.426 248.717 152.822C248.409 153.232 248.006 153.555 247.507 153.79C247.009 154.024 246.4 154.142 245.681 154.142C245.139 154.142 244.633 154.046 244.163 153.856C243.694 153.665 243.291 153.401 242.953 153.064C242.616 152.726 242.345 152.338 242.139 151.898C241.949 151.443 241.853 150.952 241.853 150.424V149.588H244.097V150.292C244.097 150.702 244.215 151.076 244.449 151.414C244.699 151.736 245.109 151.898 245.681 151.898C246.063 151.898 246.356 151.846 246.561 151.744C246.781 151.626 246.95 151.465 247.067 151.26C247.185 151.054 247.251 150.812 247.265 150.534C247.295 150.24 247.309 149.918 247.309 149.566C247.309 149.155 247.295 148.818 247.265 148.554C247.236 148.29 247.177 148.077 247.089 147.916C246.987 147.754 246.847 147.622 246.671 147.52C246.51 147.417 246.29 147.307 246.011 147.19L244.405 146.53C243.437 146.134 242.785 145.613 242.447 144.968C242.125 144.308 241.963 143.486 241.963 142.504C241.963 141.917 242.044 141.36 242.205 140.832C242.367 140.304 242.609 139.849 242.931 139.468C243.239 139.086 243.628 138.786 244.097 138.566C244.581 138.331 245.153 138.214 245.813 138.214C246.371 138.214 246.877 138.316 247.331 138.522C247.801 138.727 248.204 138.998 248.541 139.336C249.216 140.04 249.553 140.846 249.553 141.756V142.856Z"/></svg>