<svg width="279" height="270" viewBox="0 0 279 270" fill="none" xmlns="http://www.w3.org/2000/svg">
<path fill-rule="evenodd" clip-rule="evenodd" d="M242.924 166.598C283.07 114.231 249.172 91.5962 202.38 64.6236C155.588 37.651 108.472 -4.64337 68.3264 47.7235C28.1804 100.09 38.7173 185.605 85.5093 212.578C132.301 239.55 202.779 218.964 242.924 166.598Z" fill="#F4EDE3"/>
<path d="M239.277 136.11V149.021L259.596 136.11H239.277Z" fill="black"/>
<path d="M239.277 166.811H223.154L218.028 175.7H259.499L239.277 162.832V166.811Z" fill="black"/>
<path d="M60.3081 162.832L40.0972 175.7H81.514L76.3774 166.811H60.3189L60.3081 162.832Z" fill="black"/>
<path d="M60.3189 149.021V136.11H40.0107L40.0972 136.164L60.3189 149.021Z" fill="black"/>
<path d="M178.33 185.062L184.051 175.167L189.761 165.272H178.33L172.621 175.167L166.911 185.062H178.33Z" fill="#DF472A"/>
<path d="M206.901 175.166H195.47L201.191 185.061L206.901 175.166Z" fill="#DF472A"/>
<path d="M212.61 185.063H201.191L206.9 194.958L212.61 185.063Z" fill="#DF472A"/>
<path d="M195.47 194.957L189.76 204.851H201.191L195.47 194.957Z" fill="#DF472A"/>
<path d="M126.91 175.166L121.201 185.061L126.91 194.955H138.341L132.631 185.061L126.91 175.166Z" fill="#DF472A"/>
<path d="M144.051 244.443H155.481H166.911L161.201 234.548H172.632L178.341 244.443L184.051 234.548L178.341 224.654L184.051 214.759L178.341 204.864L184.051 194.97H172.632L166.922 185.075H155.492L161.201 194.97L166.911 204.864H155.481L161.191 194.97H149.76L155.481 185.075L149.76 175.18L144.051 165.286L138.341 175.18L144.051 185.075L138.341 194.97L144.051 204.864H132.62L126.911 214.759L132.62 224.654H144.051L138.341 234.548H126.911L132.62 244.443H144.051ZM149.771 214.759H161.201L155.492 224.654L149.771 214.759Z" fill="#DF472A"/>
<path d="M104.061 214.759L109.771 224.653L115.491 214.759H104.061Z" fill="#DF472A"/>
<path d="M98.3403 204.853L104.061 214.759L109.771 204.853H98.3403Z" fill="#DF472A"/>
<path d="M92.6304 175.166H81.2002L86.9207 185.061L92.6304 175.166Z" fill="#DF472A"/>
<path d="M161.19 175.167H172.621L166.911 165.272H155.481L149.771 175.167H161.19Z" fill="#DF472A"/>
<path d="M212.61 165.272L206.901 175.167H218.331L212.61 165.272Z" fill="#DF472A"/>
<path d="M98.3403 165.272L92.6306 175.167H104.061L98.3403 165.272Z" fill="#DF472A"/>
<path d="M201.191 165.272H189.76L195.47 175.167L201.191 165.272Z" fill="#DF472A"/>
<path d="M75.4907 115.788L81.2004 105.894H69.781L75.4907 115.788Z" fill="#047A42"/>
<path d="M132.621 115.787L138.342 125.682H149.761L144.052 115.787H132.621Z" fill="#047A42"/>
<path d="M138.342 105.894L144.052 115.788L149.761 105.894H138.342Z" fill="#047A42"/>
<path d="M166.912 76.2099L172.622 86.1046H184.052L189.762 76.2099L184.052 66.3152H195.472L189.762 56.4205H178.332H166.912L172.622 66.3152L178.332 76.2099H166.912Z" fill="#047A42"/>
<path d="M206.902 66.3136H195.471L201.192 76.2083L206.902 66.3136Z" fill="#047A42"/>
<path d="M172.621 66.3136H161.19L155.481 76.2083H166.911L172.621 66.3136Z" fill="#047A42"/>
<path d="M178.33 115.787L172.621 125.682H229.75L224.041 115.787L229.75 105.893H218.331L224.041 95.9983H212.61L218.331 86.1036H206.901L201.191 95.9983H189.761L195.47 86.1036H184.051L178.33 95.9983L172.621 86.1036L166.911 95.9983H155.481L161.19 105.893H172.621L178.33 115.787Z" fill="#047A42"/>
<path d="M161.19 125.683H172.621L166.911 115.788L161.19 105.894L155.481 115.788L161.19 125.683Z" fill="#047A42"/>
<path d="M138.341 125.682L132.62 115.787L126.911 125.682H138.341Z" fill="#4CA949"/>
<path d="M138.341 105.896L144.051 96.0009H132.62L138.341 105.896Z" fill="#4CA949"/>
<path d="M138.341 86.1054H149.76L144.051 76.2107L138.341 86.1054Z" fill="#4CA949"/>
<path d="M144.051 56.4203H155.481L149.76 46.5148L144.051 56.4203Z" fill="#4CA949"/>
<path d="M132.62 56.4203H144.051L138.341 46.5148L132.62 56.4203Z" fill="#4CA949"/>
<path d="M178.331 95.9983L184.051 86.1036H172.621L178.331 95.9983Z" fill="#4CA949"/>
<path d="M121.201 56.4203L126.91 66.3149H138.341L132.62 56.4203L126.91 46.5148L121.201 56.4203Z" fill="#4CA949"/>
<path d="M115.48 66.3152L121.201 56.4205H109.771L115.48 66.3152Z" fill="#4CA949"/>
<path d="M195.47 86.1036L201.191 95.9983L206.901 86.1036H195.47Z" fill="#4CA949"/>
<path d="M92.6306 125.682L98.3403 115.787H86.9101L92.6198 105.892L98.3295 115.787L104.039 125.682H115.469L121.179 115.787H132.609L126.9 105.892H115.469L121.179 95.9976L115.469 86.103L121.179 76.2083L115.469 66.3136H104.039H92.609L98.3187 76.2083H109.749L104.039 86.103L98.3295 76.2083L92.6198 86.103H81.1895L86.8992 95.9976H75.469L81.1787 105.892L75.469 115.787L69.7593 125.682H81.1895H92.6306ZM109.771 95.9976L104.061 105.892L98.3511 95.9976H109.771Z" fill="#4CA949"/>
<path d="M178.33 76.2083L172.621 66.3136L166.911 76.2083H178.33Z" fill="#238F49"/>
<path d="M212.612 96.0009L218.332 105.896L224.041 96.0009H212.612Z" fill="#238F49"/>
<path d="M104.061 66.3152H115.48L109.771 56.4205L104.061 66.3152Z" fill="#238F49"/>
<path d="M109.771 76.2107H98.3403L104.061 86.1054L109.771 76.2107Z" fill="#238F49"/>
<path d="M98.3401 76.2107H86.9207L92.6304 86.1054L98.3401 76.2107Z" fill="#238F49"/>
<path d="M92.6306 125.682H104.061L98.3403 115.787L92.6306 125.682Z" fill="#238F49"/>
<path d="M86.9207 115.788H98.3401L92.6304 105.894L86.9207 115.788Z" fill="#238F49"/>
<path d="M104.061 105.896L109.771 96.0009H98.3403L104.061 105.896Z" fill="#238F49"/>
<path d="M172.621 125.683L178.33 115.788L172.621 105.894H161.19L166.911 115.788L172.621 125.683Z" fill="#238F49"/>
<path d="M172.621 46.5148L166.911 56.4203H178.33L172.621 46.5148Z" fill="#238F49"/>
<path d="M195.47 86.103H206.901L212.61 76.2083H201.191L195.47 66.3136H184.051L189.761 76.2083L184.051 86.103H195.47Z" fill="#238F49"/>
<path d="M201.191 95.9983L195.47 86.1036L189.76 95.9983H201.191Z" fill="#238F49"/>
<path d="M132.62 115.787H121.201L115.48 125.682H126.91L132.62 115.787Z" fill="#238F49"/>
<path d="M138.341 105.896L132.62 96.001H144.05L138.341 105.896H149.771L144.061 115.791L149.771 125.685H161.201L155.491 115.791L161.201 105.896L155.491 96.001H166.922L172.631 86.1063L166.922 76.2116H155.491L161.201 66.3169H172.631L166.922 56.4223L161.212 46.5276L155.502 56.4223H144.072H132.62L138.341 66.3169H126.91L121.201 56.4223L115.491 66.3169L121.201 76.2116L115.491 86.1063L121.201 96.001L115.491 105.896H126.921L132.631 115.791H144.061L138.341 105.896ZM144.05 76.2116L149.76 86.1063H138.33L144.05 76.2116Z" fill="#238F49"/>
<path d="M40 136.11L40.0108 137.602L60.3188 150.524V149.021L40 136.11Z" fill="white"/>
<path d="M239.277 162.853V148.817V136.024V125.697H60.3188V136.024V148.817V162.853V165.276H80.6273H218.969H239.277V162.853Z" fill="black"/>
<path d="M166.911 185.061L161.19 175.166H149.771L155.481 185.061H166.911Z" fill="#E56228"/>
<path d="M161.19 194.958L155.481 185.063L149.771 194.958H161.19Z" fill="#E56228"/>
<path d="M138.341 234.547L144.051 224.652H132.631L126.911 234.547H138.341Z" fill="#E56228"/>
<path d="M109.771 224.653L115.491 234.548L121.201 244.443H132.631L126.91 234.548L121.201 224.653H132.631L126.91 214.759H115.491L109.771 224.653Z" fill="#E56228"/>
<path d="M132.63 165.272H75.5002L98.3402 204.851H109.769L104.06 214.746H115.491L121.201 204.851L126.91 214.746L132.619 204.851H144.049L138.34 194.957H126.91L121.201 185.062L126.91 175.167L132.619 185.062L138.329 194.957L144.038 185.062L138.329 175.167L144.038 165.272H132.63ZM98.3402 185.062L92.6305 175.167L86.9197 185.062L81.21 175.167H92.6402L98.3499 165.272L104.06 175.167L98.3402 185.062Z" fill="#E56228"/>
<path d="M149.771 175.167L155.481 165.272H144.051L149.771 175.167Z" fill="#E56228"/>
<path d="M86.9207 165.272H75.4905L81.2002 175.167L86.9207 165.272Z" fill="#E56228"/>
<path d="M161.19 175.17L166.911 185.065L172.621 175.17H161.19Z" fill="#C1302C"/>
<path d="M161.19 194.961L155.481 204.855H166.911L161.19 194.961Z" fill="#C1302C"/>
<path d="M161.19 214.759H149.771L155.481 224.653L161.19 214.759Z" fill="#C1302C"/>
<path d="M178.33 244.444L172.621 234.549H161.19L166.911 244.444H178.33Z" fill="#C1302C"/>
<path d="M195.47 194.961L201.191 204.855H189.76L195.47 194.961Z" fill="#C1302C"/>
<path d="M121.201 204.853L115.491 214.759H126.91L121.201 204.853Z" fill="#C1302C"/>
<path d="M104.061 175.17H92.6306L98.3403 185.065L104.061 175.17Z" fill="#C1302C"/>
<path d="M121.201 224.652L126.91 234.547L132.631 224.652H121.201Z" fill="#C1302C"/>
<path d="M206.901 194.96L209.755 190.018L206.901 194.96Z" fill="#C1302C"/>
<path d="M212.61 165.272L218.331 175.167L224.041 165.272H212.621H212.61Z" fill="#C1302C"/>
<path d="M201.191 185.065H212.61L209.755 190.018L218.331 175.17H206.901L201.191 185.065Z" fill="#C1302C"/>
<path d="M195.471 175.167L189.761 165.272L184.051 175.167L178.331 185.062H166.911L172.621 194.956H184.051L178.331 204.851L184.051 214.757L178.331 224.651L184.051 234.546L189.761 224.651L195.471 214.757L206.901 194.956L201.191 185.062L195.471 175.167Z" fill="#C1302C"/>
<path d="M195.471 175.167H206.901L212.61 165.272H166.911L172.621 175.167L178.331 165.272H189.761H201.191L195.471 175.167Z" fill="#C1302C"/>
<path d="M212.61 165.272L218.331 175.167L224.041 165.272H212.61Z" fill="#C1302C"/>
<path d="M175.79 37.0007L175.671 36.9683L165.268 75.79L165.247 75.909L228.183 92.7677L228.302 92.8002L238.705 53.9785L238.738 53.8595L175.79 37.0007Z" fill="#241F20"/>
<path d="M175.758 37.1075L201.992 64.8775L170.567 56.4643L175.758 37.1075Z" fill="white"/>
<path d="M201.992 64.8772L238.738 53.8578L207.204 45.4122L201.992 64.8772Z" fill="white"/>
<path d="M201.992 64.8772L165.247 75.9073L196.769 84.353L201.992 64.8772Z" fill="white"/>
<path d="M228.335 92.7769L201.992 64.8772L233.536 73.3336L228.335 92.7769Z" fill="white"/>
<path d="M160.088 96.0007H157.417L173.399 36.3514L175.897 37.0219L160.088 96.0007Z" fill="#A57D2D"/>
<path d="M123.628 37.0184L60.801 53.8521L71.1726 92.5616L134 75.7279L123.628 37.0184Z" fill="#FED211"/>
<path fill-rule="evenodd" clip-rule="evenodd" d="M77.3723 73.013C76.2585 73.3158 75.296 72.6346 75.0041 71.5316C74.7013 70.3961 75.1987 69.3688 76.3666 69.0552C76.8965 68.9146 77.3615 69.0011 77.8265 69.239L78.086 68.1144C77.4264 67.8657 76.7451 67.8224 75.9989 68.0279C74.2687 68.4929 73.3712 70.1041 73.8578 71.9317C74.3228 73.6727 75.8908 74.5378 77.5669 74.0944C78.3672 73.8782 78.9295 73.5105 79.3837 72.9698L78.5943 72.1263C78.3131 72.5481 77.9454 72.8617 77.3723 73.013Z" fill="#005C9C"/>
<path fill-rule="evenodd" clip-rule="evenodd" d="M87.7005 65.6402L87.5599 65.0995L86.4353 65.4023L87.9709 71.1445L89.1171 70.8417L88.252 67.6084C88.0574 66.8838 87.8952 65.9646 88.7495 65.7484C89.0523 65.6619 89.2793 65.7484 89.5064 65.8673L89.766 64.6886C89.3767 64.5697 89.0414 64.5372 88.7062 64.6345C88.1331 64.7859 87.8303 65.186 87.7005 65.6402Z" fill="#005C9C"/>
<path fill-rule="evenodd" clip-rule="evenodd" d="M91.8628 64.5264L91.7222 63.9858L90.6084 64.2885L92.144 70.0307L93.2686 69.7279L92.4035 66.4946C92.2089 65.77 92.0575 64.8509 92.9009 64.6238C93.2037 64.5373 93.42 64.6238 93.6471 64.7427L93.9066 63.564C93.539 63.4342 93.1929 63.4126 92.8469 63.5099C92.2954 63.6613 92.0034 64.0615 91.8628 64.5264Z" fill="#005C9C"/>
<path d="M94.642 60.222C95.0637 60.1139 95.4963 60.3626 95.6152 60.7951C95.7342 61.2277 95.4855 61.6602 95.0637 61.7792C94.6312 61.8981 94.2202 61.6386 94.1013 61.2061C93.9715 60.7735 94.2094 60.3409 94.642 60.222ZM94.815 63.1634L95.9505 62.8606L97.486 68.6027L96.3506 68.9055L94.815 63.1634Z" fill="#005C9C"/>
<path fill-rule="evenodd" clip-rule="evenodd" d="M101.314 65.8568C101.444 66.3327 101.206 66.6679 100.719 66.8085C100.157 66.9599 99.6488 66.6571 99.3243 66.2678L98.5457 67.1112C99.1405 67.7817 99.984 68.0845 100.957 67.8358C102.06 67.533 102.752 66.6354 102.45 65.4784C101.909 63.4562 99.4109 64.5592 99.1189 63.4886C99.054 63.2507 99.1513 62.9371 99.519 62.8398C99.9299 62.7316 100.265 62.883 100.568 63.0993L101.238 62.2126C100.665 61.78 100.07 61.5962 99.3243 61.8016C98.4268 62.0396 97.7347 62.8398 98.005 63.8671C98.4917 65.7054 100.968 64.6132 101.314 65.8568Z" fill="#025CA1"/>
<path fill-rule="evenodd" clip-rule="evenodd" d="M114.011 63.8097C113.74 63.9827 113.448 64.145 113.113 64.2315C111.448 64.6748 109.945 63.6691 109.512 62.0471C109.09 60.4574 109.88 58.8029 111.534 58.3595C111.87 58.273 112.205 58.2514 112.518 58.273C112.756 57.7215 113.092 57.2241 113.513 56.8023C112.756 56.5861 111.934 56.5861 111.123 56.8023C108.636 57.4728 107.198 60.0141 107.858 62.5012C108.528 64.9992 111.048 66.4483 113.524 65.7887C114.335 65.5724 115.049 65.1506 115.6 64.5991C115.027 64.4369 114.487 64.1666 114.011 63.8097ZM114.076 58.8894C114.281 58.3704 114.627 57.9162 115.114 57.5809C115.914 58.1865 116.52 59.0624 116.801 60.1006C117.082 61.1495 116.985 62.1876 116.595 63.1068C116.022 63.0636 115.492 62.8473 115.049 62.4904C115.287 61.8957 115.319 61.2144 115.135 60.5331C114.952 59.8735 114.584 59.3003 114.076 58.8894Z" fill="white"/>
<path fill-rule="evenodd" clip-rule="evenodd" d="M114.074 58.8912C113.642 58.5343 113.101 58.318 112.528 58.2748C112.139 59.194 112.052 60.2645 112.333 61.3027C112.614 62.3408 113.22 63.2059 114.009 63.8007C114.485 63.4762 114.831 63.0221 115.037 62.4922C114.55 62.0921 114.172 61.5189 113.988 60.8377C113.815 60.178 113.858 59.4967 114.074 58.8912Z" fill="#005C9C"/>
<path d="M81.6437 66.5134C82.3141 66.362 83.0387 66.4918 83.6226 66.9352L83.428 66.2106L84.5526 65.9078L86.0882 71.65L84.9635 71.9528L84.7797 71.2607C84.4661 71.9203 83.9038 72.3529 83.2658 72.5692L83.0387 72.6341C81.3841 73.0774 79.9459 71.9744 79.5134 70.3415C79.0808 68.7303 79.7837 67.0217 81.5355 66.5567L81.6437 66.5134ZM82.9846 71.5094C84.12 71.1958 84.5094 70.0928 84.2282 69.0114C83.947 67.9625 83.0495 67.3028 81.9356 67.5732C80.8434 67.8651 80.3893 68.9573 80.6596 69.9522C80.9624 71.066 81.8383 71.823 82.963 71.5202L82.9846 71.5094Z" fill="#005C9C"/>
<path fill-rule="evenodd" clip-rule="evenodd" d="M115.599 55.6144C118.108 54.944 120.617 56.4255 121.287 58.9126C121.958 61.4106 120.487 63.9303 118.011 64.5899C117.2 64.8062 116.378 64.7954 115.621 64.5899C116.043 64.1682 116.378 63.6599 116.605 63.1084C116.929 63.13 117.265 63.1084 117.6 63.0219C119.254 62.5785 120.055 60.9456 119.622 59.3236C119.2 57.7339 117.686 56.7066 116.021 57.15C115.686 57.2365 115.383 57.3987 115.124 57.5717C114.648 57.2149 114.107 56.9445 113.534 56.7931C114.075 56.2416 114.788 55.8307 115.599 55.6144Z" fill="#005C9C"/>
<path d="M144.775 105.895H142.093L123.634 37.0111L126.132 36.3514L144.775 105.895Z" fill="#A57D2D"/>
<path d="M239.288 165.285H60.3188V166.81H239.288V165.285Z" fill="white"/>
</svg>
