<svg width="279" height="269" viewBox="0 0 279 269" fill="none" xmlns="http://www.w3.org/2000/svg">
<path fill-rule="evenodd" clip-rule="evenodd" d="M242.924 165.607C283.07 113.24 249.172 90.606 202.38 63.6334C155.588 36.6607 108.472 -5.6336 68.3264 46.7333C28.1804 99.1001 38.7173 184.615 85.5093 211.588C132.301 238.56 202.779 217.974 242.924 165.607Z" fill="#F4EDE3"/>
<path d="M239.277 135.119V148.031L259.597 135.119H239.277Z" fill="black"/>
<path d="M239.278 165.821H223.154L218.028 174.71H259.499L239.278 161.841V165.821Z" fill="black"/>
<path d="M60.3081 161.841L40.0972 174.71H81.514L76.3774 165.821H60.3189L60.3081 161.841Z" fill="black"/>
<path d="M60.3189 148.031V135.119H40.0107L40.0972 135.173L60.3189 148.031Z" fill="black"/>
<path d="M178.33 184.071L184.051 174.177L189.76 164.282H178.33L172.62 174.177L166.911 184.071H178.33Z" fill="#DF472A"/>
<path d="M206.901 174.176H195.471L201.191 184.07L206.901 174.176Z" fill="#DF472A"/>
<path d="M212.61 184.073H201.191L206.901 193.967L212.61 184.073Z" fill="#DF472A"/>
<path d="M195.47 193.966L189.761 203.861H201.191L195.47 193.966Z" fill="#DF472A"/>
<path d="M126.91 174.176L121.201 184.07L126.91 193.965H138.341L132.631 184.07L126.91 174.176Z" fill="#DF472A"/>
<path d="M144.051 243.453H155.481H166.911L161.201 233.558H172.632L178.341 243.453L184.051 233.558L178.341 223.663L184.051 213.769L178.341 203.874L184.051 193.979H172.632L166.922 184.085H155.492L161.201 193.979L166.911 203.874H155.481L161.191 193.979H149.76L155.481 184.085L149.76 174.19L144.051 164.295L138.341 174.19L144.051 184.085L138.341 193.979L144.051 203.874H132.62L126.911 213.769L132.62 223.663H144.051L138.341 233.558H126.911L132.62 243.453H144.051ZM149.771 213.769H161.201L155.492 223.663L149.771 213.769Z" fill="#DF472A"/>
<path d="M104.061 213.768L109.771 223.663L115.491 213.768H104.061Z" fill="#DF472A"/>
<path d="M98.3403 203.863L104.061 213.769L109.771 203.863H98.3403Z" fill="#DF472A"/>
<path d="M92.6304 174.176H81.2002L86.9207 184.07L92.6304 174.176Z" fill="#DF472A"/>
<path d="M161.19 174.177H172.621L166.911 164.282H155.481L149.771 174.177H161.19Z" fill="#DF472A"/>
<path d="M212.611 164.282L206.901 174.177H218.331L212.611 164.282Z" fill="#DF472A"/>
<path d="M98.3406 164.282L92.6309 174.177H104.061L98.3406 164.282Z" fill="#DF472A"/>
<path d="M201.191 164.282H189.761L195.47 174.177L201.191 164.282Z" fill="#DF472A"/>
<path d="M75.4905 114.798L81.2002 104.904H69.7808L75.4905 114.798Z" fill="#047A42"/>
<path d="M132.621 114.797L138.342 124.692H149.761L144.051 114.797H132.621Z" fill="#047A42"/>
<path d="M138.342 104.904L144.052 114.798L149.761 104.904H138.342Z" fill="#047A42"/>
<path d="M166.912 75.2195L172.622 85.1142H184.052L189.762 75.2195L184.052 65.3249H195.472L189.762 55.4302H178.332H166.912L172.622 65.3249L178.332 75.2195H166.912Z" fill="#047A42"/>
<path d="M206.902 65.3232H195.472L201.192 75.2179L206.902 65.3232Z" fill="#047A42"/>
<path d="M172.62 65.3232H161.19L155.48 75.2179H166.911L172.62 65.3232Z" fill="#047A42"/>
<path d="M178.33 114.797L172.62 124.692H229.75L224.04 114.797L229.75 104.903H218.331L224.04 95.008H212.61L218.331 85.1133H206.9L201.191 95.008H189.76L195.47 85.1133H184.051L178.33 95.008L172.62 85.1133L166.911 95.008H155.48L161.19 104.903H172.62L178.33 114.797Z" fill="#047A42"/>
<path d="M161.19 124.693H172.62L166.911 114.798L161.19 104.904L155.48 114.798L161.19 124.693Z" fill="#047A42"/>
<path d="M138.341 124.692L132.62 114.797L126.911 124.692H138.341Z" fill="#4CA949"/>
<path d="M138.341 104.905L144.05 95.0106H132.62L138.341 104.905Z" fill="#4CA949"/>
<path d="M138.341 85.1151H149.76L144.051 75.2205L138.341 85.1151Z" fill="#4CA949"/>
<path d="M144.05 55.43H155.481L149.76 45.5245L144.05 55.43Z" fill="#4CA949"/>
<path d="M132.62 55.43H144.05L138.341 45.5245L132.62 55.43Z" fill="#4CA949"/>
<path d="M178.33 95.008L184.051 85.1133H172.621L178.33 95.008Z" fill="#4CA949"/>
<path d="M121.201 55.43L126.91 65.3247H138.341L132.62 55.43L126.91 45.5245L121.201 55.43Z" fill="#4CA949"/>
<path d="M115.48 65.3249L121.201 55.4302H109.771L115.48 65.3249Z" fill="#4CA949"/>
<path d="M195.471 85.1133L201.191 95.008L206.901 85.1133H195.471Z" fill="#4CA949"/>
<path d="M92.6306 124.692L98.3403 114.797H86.9101L92.6198 104.902L98.3295 114.797L104.039 124.692H115.469L121.179 114.797H132.609L126.9 104.902H115.469L121.179 95.0073L115.469 85.1126L121.179 75.2179L115.469 65.3232H104.039H92.609L98.3187 75.2179H109.749L104.039 85.1126L98.3295 75.2179L92.6198 85.1126H81.1895L86.8992 95.0073H75.469L81.1787 104.902L75.469 114.797L69.7593 124.692H81.1895H92.6306ZM109.771 95.0073L104.061 104.902L98.3511 95.0073H109.771Z" fill="#4CA949"/>
<path d="M178.33 75.2179L172.62 65.3232L166.911 75.2179H178.33Z" fill="#238F49"/>
<path d="M212.611 95.0106L218.332 104.905L224.04 95.0106H212.611Z" fill="#238F49"/>
<path d="M104.061 65.3249H115.48L109.771 55.4302L104.061 65.3249Z" fill="#238F49"/>
<path d="M109.771 75.2205H98.3403L104.061 85.1151L109.771 75.2205Z" fill="#238F49"/>
<path d="M98.3403 75.2205H86.9209L92.6306 85.1151L98.3403 75.2205Z" fill="#238F49"/>
<path d="M92.6309 124.692H104.061L98.3406 114.797L92.6309 124.692Z" fill="#238F49"/>
<path d="M86.9209 114.798H98.3403L92.6306 104.904L86.9209 114.798Z" fill="#238F49"/>
<path d="M104.061 104.905L109.771 95.0106H98.3403L104.061 104.905Z" fill="#238F49"/>
<path d="M172.621 124.693L178.33 114.798L172.621 104.904H161.19L166.911 114.798L172.621 124.693Z" fill="#238F49"/>
<path d="M172.62 45.5245L166.911 55.43H178.33L172.62 45.5245Z" fill="#238F49"/>
<path d="M195.47 85.1126H206.9L212.61 75.2179H201.191L195.47 65.3232H184.051L189.76 75.2179L184.051 85.1126H195.47Z" fill="#238F49"/>
<path d="M201.191 95.008L195.47 85.1133L189.761 95.008H201.191Z" fill="#238F49"/>
<path d="M132.62 114.797H121.201L115.48 124.692H126.91L132.62 114.797Z" fill="#238F49"/>
<path d="M138.341 104.905L132.62 95.0106H144.051L138.341 104.905H149.771L144.061 114.8L149.771 124.695H161.201L155.492 114.8L161.201 104.905L155.492 95.0106H166.922L172.632 85.1159L166.922 75.2213H155.492L161.201 65.3266H172.632L166.922 55.4319L161.212 45.5372L155.502 55.4319H144.072H132.62L138.341 65.3266H126.911L121.201 55.4319L115.491 65.3266L121.201 75.2213L115.491 85.1159L121.201 95.0106L115.491 104.905H126.921L132.631 114.8H144.061L138.341 104.905ZM144.051 75.2213L149.76 85.1159H138.33L144.051 75.2213Z" fill="#238F49"/>
<path d="M40 135.119L40.0108 136.612L60.3188 149.534V148.031L40 135.119Z" fill="white"/>
<path d="M239.277 161.863V147.827V135.034V124.707H60.3188V135.034V147.827V161.863V164.285H80.6273H218.969H239.277V161.863Z" fill="black"/>
<path d="M166.911 184.07L161.19 174.176H149.771L155.481 184.07H166.911Z" fill="#E56228"/>
<path d="M161.19 193.967L155.481 184.073L149.771 193.967H161.19Z" fill="#E56228"/>
<path d="M138.341 233.557L144.051 223.662H132.631L126.911 233.557H138.341Z" fill="#E56228"/>
<path d="M109.771 223.663L115.491 233.558L121.201 243.453H132.631L126.91 233.558L121.201 223.663H132.631L126.91 213.768H115.491L109.771 223.663Z" fill="#E56228"/>
<path d="M132.63 164.282H75.5005L98.3404 203.861H109.77L104.06 213.755H115.491L121.201 203.861L126.911 213.755L132.619 203.861H144.05L138.34 193.966H126.911L121.201 184.071L126.911 174.177L132.619 184.071L138.329 193.966L144.039 184.071L138.329 174.177L144.039 164.282H132.63ZM98.3404 184.071L92.6307 174.177L86.9199 184.071L81.2102 174.177H92.6404L98.3502 164.282L104.06 174.177L98.3404 184.071Z" fill="#E56228"/>
<path d="M149.771 174.177L155.481 164.282H144.05L149.771 174.177Z" fill="#E56228"/>
<path d="M86.921 164.282H75.4907L81.2004 174.177L86.921 164.282Z" fill="#E56228"/>
<path d="M161.19 174.18L166.911 184.075L172.621 174.18H161.19Z" fill="#C1302C"/>
<path d="M161.19 193.971L155.48 203.865H166.911L161.19 193.971Z" fill="#C1302C"/>
<path d="M161.19 213.768H149.771L155.481 223.663L161.19 213.768Z" fill="#C1302C"/>
<path d="M178.33 243.454L172.621 233.559H161.19L166.911 243.454H178.33Z" fill="#C1302C"/>
<path d="M195.47 193.971L201.191 203.865H189.761L195.47 193.971Z" fill="#C1302C"/>
<path d="M121.201 203.863L115.491 213.769H126.911L121.201 203.863Z" fill="#C1302C"/>
<path d="M104.061 174.18H92.6309L98.3406 184.075L104.061 174.18Z" fill="#C1302C"/>
<path d="M121.201 223.662L126.91 233.557L132.631 223.662H121.201Z" fill="#C1302C"/>
<path d="M206.901 193.969L209.756 189.028L206.901 193.969Z" fill="#C1302C"/>
<path d="M212.61 164.282L218.331 174.177L224.041 164.282H212.621H212.61Z" fill="#C1302C"/>
<path d="M201.191 184.075H212.61L209.755 189.028L218.331 174.18H206.901L201.191 184.075Z" fill="#C1302C"/>
<path d="M195.471 174.177L189.761 164.282L184.051 174.177L178.331 184.071H166.911L172.621 193.966H184.051L178.331 203.861L184.051 213.766L178.331 223.661L184.051 233.556L189.761 223.661L195.471 213.766L206.901 193.966L201.191 184.071L195.471 174.177Z" fill="#C1302C"/>
<path d="M195.471 174.177H206.901L212.61 164.282H166.911L172.621 174.177L178.331 164.282H189.761H201.191L195.471 174.177Z" fill="#C1302C"/>
<path d="M212.61 164.282L218.331 174.177L224.041 164.282H212.61Z" fill="#C1302C"/>
<path d="M175.79 36.0104L175.671 35.978L165.268 74.7997L165.247 74.9187L228.183 91.7775L228.302 91.8099L238.705 52.9882L238.738 52.8692L175.79 36.0104Z" fill="#241F20"/>
<path d="M175.758 36.1173L201.992 63.8873L170.567 55.4741L175.758 36.1173Z" fill="white"/>
<path d="M201.992 63.8869L238.738 52.8676L207.204 44.422L201.992 63.8869Z" fill="white"/>
<path d="M201.992 63.8869L165.247 74.917L196.769 83.3627L201.992 63.8869Z" fill="white"/>
<path d="M228.335 91.7866L201.992 63.8869L233.536 72.3433L228.335 91.7866Z" fill="white"/>
<path d="M160.088 95.0104H157.417L173.399 35.3612L175.897 36.0317L160.088 95.0104Z" fill="#A57D2D"/>
<path d="M123.629 36.0282L60.8013 52.8619L71.1728 91.5714L134 74.7377L123.629 36.0282Z" fill="#FED211"/>
<path fill-rule="evenodd" clip-rule="evenodd" d="M77.3721 72.0229C76.2582 72.3257 75.2958 71.6444 75.0038 70.5414C74.701 69.4059 75.1985 68.3786 76.3664 68.065C76.8962 67.9244 77.3612 68.0109 77.8262 68.2488L78.0858 67.1242C77.4261 66.8755 76.7449 66.8322 75.9987 67.0377C74.2685 67.5027 73.3709 69.1139 73.8575 70.9415C74.3225 72.6825 75.8906 73.5476 77.5667 73.1043C78.3669 72.888 78.9293 72.5203 79.3834 71.9796L78.594 71.1361C78.3129 71.5579 77.9452 71.8715 77.3721 72.0229Z" fill="#005C9C"/>
<path fill-rule="evenodd" clip-rule="evenodd" d="M87.7003 64.6501L87.5597 64.1094L86.4351 64.4122L87.9706 70.1543L89.1169 69.8515L88.2518 66.6182C88.0571 65.8937 87.8949 64.9745 88.7492 64.7582C89.052 64.6717 89.2791 64.7582 89.5062 64.8771L89.7657 63.6984C89.3764 63.5795 89.0412 63.547 88.706 63.6444C88.1328 63.7958 87.83 64.1959 87.7003 64.6501Z" fill="#005C9C"/>
<path fill-rule="evenodd" clip-rule="evenodd" d="M91.8628 63.5362L91.7222 62.9955L90.6084 63.2983L92.144 69.0405L93.2686 68.7377L92.4035 65.5043C92.2089 64.7798 92.0575 63.8606 92.9009 63.6335C93.2037 63.547 93.42 63.6335 93.6471 63.7525L93.9066 62.5738C93.539 62.444 93.1929 62.4224 92.8469 62.5197C92.2954 62.6711 92.0034 63.0712 91.8628 63.5362Z" fill="#005C9C"/>
<path d="M94.642 59.2318C95.0637 59.1236 95.4963 59.3723 95.6152 59.8049C95.7342 60.2374 95.4855 60.67 95.0637 60.789C94.6312 60.9079 94.2202 60.6484 94.1013 60.2158C93.9715 59.7833 94.2094 59.3507 94.642 59.2318ZM94.815 62.1731L95.9505 61.8703L97.486 67.6125L96.3506 67.9153L94.815 62.1731Z" fill="#005C9C"/>
<path fill-rule="evenodd" clip-rule="evenodd" d="M101.314 64.8666C101.444 65.3424 101.206 65.6776 100.719 65.8182C100.157 65.9696 99.6488 65.6668 99.3243 65.2775L98.5457 66.121C99.1405 66.7915 99.984 67.0943 100.957 66.8455C102.06 66.5428 102.752 65.6452 102.45 64.4881C101.909 62.4659 99.4109 63.5689 99.1189 62.4984C99.054 62.2605 99.1513 61.9469 99.519 61.8495C99.9299 61.7414 100.265 61.8928 100.568 62.1091L101.238 61.2223C100.665 60.7898 100.07 60.6059 99.3243 60.8114C98.4268 61.0493 97.7347 61.8495 98.005 62.8769C98.4917 64.7152 100.968 63.623 101.314 64.8666Z" fill="#025CA1"/>
<path fill-rule="evenodd" clip-rule="evenodd" d="M114.011 62.8195C113.74 62.9926 113.448 63.1548 113.113 63.2413C111.448 63.6847 109.945 62.679 109.512 61.0569C109.09 59.4673 109.88 57.8127 111.534 57.3694C111.87 57.2829 112.205 57.2612 112.518 57.2829C112.756 56.7313 113.092 56.2339 113.513 55.8122C112.756 55.5959 111.934 55.5959 111.123 55.8122C108.636 56.4826 107.198 59.0239 107.858 61.5111C108.528 64.0091 111.048 65.4581 113.524 64.7985C114.335 64.5822 115.049 64.1605 115.6 63.609C115.027 63.4468 114.487 63.1764 114.011 62.8195ZM114.076 57.8992C114.281 57.3802 114.627 56.926 115.114 56.5908C115.914 57.1963 116.52 58.0723 116.801 59.1104C117.082 60.1593 116.985 61.1975 116.595 62.1166C116.022 62.0734 115.492 61.8571 115.049 61.5003C115.287 60.9055 115.319 60.2242 115.135 59.543C114.952 58.8833 114.584 58.3102 114.076 57.8992Z" fill="white"/>
<path fill-rule="evenodd" clip-rule="evenodd" d="M114.075 57.901C113.642 57.5441 113.101 57.3279 112.528 57.2846C112.139 58.2038 112.052 59.2744 112.334 60.3125C112.615 61.3506 113.22 62.2157 114.01 62.8105C114.485 62.4861 114.832 62.0319 115.037 61.502C114.55 61.1019 114.172 60.5288 113.988 59.8475C113.815 59.1878 113.858 58.5066 114.075 57.901Z" fill="#005C9C"/>
<path d="M81.6437 65.5232C82.3141 65.3718 83.0387 65.5016 83.6226 65.945L83.428 65.2205L84.5526 64.9177L86.0882 70.6598L84.9635 70.9626L84.7797 70.2705C84.4661 70.9302 83.9038 71.3627 83.2658 71.579L83.0387 71.6439C81.3841 72.0872 79.9459 70.9842 79.5134 69.3513C79.0808 67.7401 79.7837 66.0315 81.5355 65.5665L81.6437 65.5232ZM82.9846 70.5192C84.12 70.2056 84.5094 69.1026 84.2282 68.0212C83.947 66.9723 83.0495 66.3127 81.9356 66.583C80.8434 66.875 80.3893 67.9672 80.6596 68.962C80.9624 70.0759 81.8383 70.8328 82.963 70.5301L82.9846 70.5192Z" fill="#005C9C"/>
<path fill-rule="evenodd" clip-rule="evenodd" d="M115.599 54.6242C118.108 53.9537 120.617 55.4352 121.287 57.9224C121.958 60.4204 120.487 62.94 118.011 63.5997C117.2 63.816 116.378 63.8051 115.621 63.5997C116.043 63.1779 116.378 62.6697 116.605 62.1182C116.929 62.1398 117.264 62.1182 117.6 62.0317C119.254 61.5883 120.054 59.9554 119.622 58.3333C119.2 56.7437 117.686 55.7164 116.021 56.1597C115.686 56.2463 115.383 56.4085 115.123 56.5815C114.648 56.2246 114.107 55.9543 113.534 55.8029C114.074 55.2514 114.788 54.8405 115.599 54.6242Z" fill="#005C9C"/>
<path d="M144.775 104.905H142.093L123.634 36.0209L126.132 35.3612L144.775 104.905Z" fill="#A57D2D"/>
<path d="M239.288 164.295H60.3188V165.82H239.288V164.295Z" fill="white"/>
</svg>
