<svg width="300" height="290" viewBox="0 0 300 290" fill="none" xmlns="http://www.w3.org/2000/svg">
<path fill-rule="evenodd" clip-rule="evenodd" d="M242.924 166.598C283.07 114.231 249.172 91.5962 202.38 64.6236C155.588 37.651 108.472 -4.64337 68.3264 47.7235C28.1804 100.09 38.7173 185.605 85.5093 212.578C132.301 239.55 202.779 218.964 242.924 166.598Z" fill="#F4EDE3"/>
<path d="M249.07 76.4013L234.214 47.3156" stroke="#192AEA" stroke-width="6" stroke-linecap="round" stroke-linejoin="round"/>
<path d="M260.826 81.7799L268.842 27.8315" stroke="#192AEA" stroke-width="6" stroke-linecap="round" stroke-linejoin="round"/>
<path d="M269.247 84.435L289.948 54.0184" stroke="#192AEA" stroke-width="6" stroke-linecap="round" stroke-linejoin="round"/>
<path fill-rule="evenodd" clip-rule="evenodd" d="M120.95 111.058C126.828 113.562 132.374 114.389 134.783 113.392C140.825 110.893 138.188 87.8748 132.072 79.5164C125.955 71.158 100.47 70.7323 101.723 88.8251C102.158 95.1047 105.546 100.286 110.037 104.27L107.638 137.484L127.725 134.652L120.95 111.058Z" fill="#CCAF97"/>
<path fill-rule="evenodd" clip-rule="evenodd" d="M122.759 70.7877C119.897 70.3376 115.872 70.6155 114.223 71.0439C114.857 68.6245 114.878 66.0254 114.223 63.5902C113.585 61.2239 112.222 59.3248 110.926 57.3162C110.329 56.3903 109.671 55.4784 108.79 54.8301C107.892 54.1695 106.821 53.8009 105.739 53.7056C104.632 53.608 103.514 53.7868 102.471 54.1641C102.01 54.3309 101.614 54.6083 101.165 54.7949C100.705 54.9859 100.432 54.7198 100.043 54.4684C99.1073 53.8626 97.8336 53.6781 96.7596 53.6991C95.5547 53.7229 94.3504 54.075 93.275 54.6239C92.2283 55.1582 91.2579 55.9231 90.5884 56.9324C90.2903 57.3817 90.0326 57.8816 89.8941 58.4129C89.8372 58.631 89.8402 58.755 89.6453 58.8594C89.465 58.9561 89.243 58.9894 89.0562 59.0835C87.2498 59.9934 85.8338 61.6876 85.2145 63.6939C84.8532 64.8644 84.88 66.8317 85.2503 68.9888C85.6206 71.1458 88.3682 76.523 90.4863 78.327C92.3768 79.9372 94.9469 80.8134 97.3375 81.0184C96.0463 82.9928 95.3307 85.3335 94.8868 87.6739C94.4048 90.2163 94.2492 92.8091 94.4212 95.4044C94.5846 97.8702 94.9297 100.454 95.8363 102.761C96.6843 104.92 98.0854 106.591 100.159 107.484C101.108 107.893 102.106 108.16 103.104 108.392C104.088 108.621 105.073 108.839 106.079 108.904C107.983 109.025 110.105 108.659 111.324 106.985C111.763 106.382 112.235 105.635 112.519 104.933C112.621 104.681 112.681 104.517 112.485 104.312C112.251 104.066 111.904 103.902 111.622 103.724C110.015 102.708 108.898 101.207 108.403 99.3063C107.901 97.3775 108.073 94.7722 109.859 93.6477C112.064 92.2595 114.825 93.1068 117.074 93.9422C117.523 90.6794 118.952 87.5971 121.612 85.7546C124.554 83.7161 128.16 83.0177 131.221 81.1929C132.019 80.7174 132.826 80.1916 133.348 79.3783C133.566 79.0384 133.817 78.602 133.865 78.1864C133.928 77.6405 133.527 77.2468 133.207 76.8732C131.511 74.8923 125.621 71.2379 122.759 70.7877Z" fill="#191847"/>
<path fill-rule="evenodd" clip-rule="evenodd" d="M174.245 129.535L147.424 149.546L159.765 159.551L178.166 137.242C188.856 132.609 193.627 129.649 192.479 128.364C191.511 127.28 190.226 127.503 189.042 127.709C188.12 127.87 187.259 128.019 186.658 127.532C185.285 126.419 186.934 121.617 188.695 117.127C190.455 112.637 188 113.352 186.652 114.152C182.408 117.988 178.272 123.116 174.245 129.535ZM206.582 147.747L194.803 156.558L197.324 169.265C197.324 169.265 204.753 162.133 211.585 159.147C220.297 155.341 223.695 152.893 227.334 146.622C229.281 143.267 230.442 136.91 227.909 135.25C226.937 134.613 223.964 136.861 220.929 139.153C218.617 140.901 216.27 142.675 214.746 143.219C212.696 143.951 212.56 141.179 212.451 138.964C212.373 137.374 212.309 136.071 211.562 136.556C207.835 137.147 206.582 147.747 206.582 147.747Z" fill="#CCAF97"/>
<path fill-rule="evenodd" clip-rule="evenodd" d="M132.779 147.995C142.94 146.453 156.207 142.39 169.398 131.156L176.86 143.037C168.262 154.359 155.361 164.484 143.035 165.87C133.321 166.963 126.736 155.953 132.779 147.995Z" fill="#192061"/>
<path fill-rule="evenodd" clip-rule="evenodd" d="M202.339 149.207C202.339 149.207 166.732 167.829 149.319 166.377C147.842 163.126 146.322 159.873 144.805 156.624C138.309 142.715 131.854 128.894 128.947 115.698L126.636 116.024L106.455 118.869L105.724 118.972C103.178 119.331 90.5188 154.959 93.5229 176.522C94.5545 183.926 92.8559 190.68 91.0676 197.79C88.1004 209.588 84.8862 222.368 93.4856 240.733C98.6077 238.953 107.659 238.859 117.509 238.756C135.944 238.565 157.178 238.344 160.693 226.988C163.317 218.513 163.211 209.658 161.441 200.585C176.796 198.078 194.78 190.36 214.996 175.887C214.542 167.45 202.339 149.207 202.339 149.207Z" fill="#1C1E6F"/>
<rect width="66.9846" height="35.5554" rx="4" transform="matrix(0.970228 -0.242447 0.241398 0.970363 188.457 107.258)" fill="#192AEA"/>
<path fill-rule="evenodd" clip-rule="evenodd" d="M243.114 110.766C245.542 110.159 247.02 107.694 246.415 105.261C245.809 102.827 243.35 101.346 240.922 101.953C238.493 102.56 237.015 105.025 237.621 107.458C238.226 109.892 240.686 111.373 243.114 110.766Z" fill="white"/>
</svg>
