<svg xmlns="http://www.w3.org/2000/svg" width="354" height="269" fill="none" viewBox="0 0 354 269"><path fill="#FBE14C" fill-rule="evenodd" d="M290.924 165.607C331.07 113.24 297.172 90.606 250.38 63.6334C203.588 36.6607 156.472 -5.6336 116.326 46.7333C76.1804 99.1001 86.7173 184.615 133.509 211.588C180.301 238.56 250.779 217.974 290.924 165.607Z" clip-rule="evenodd"/><path fill="#191847" fill-rule="evenodd" d="M125.588 186.907C149.118 186.907 157.676 158.752 171.044 143.301C180.609 132.246 196.933 135.543 201.765 120.066C213.915 81.15 181.395 53.7598 138.971 53.7598C96.5462 53.7598 67.9411 77.7818 61.7646 113.893C55.5881 150.005 83.1638 186.907 125.588 186.907Z" clip-rule="evenodd"/><path fill="#B28B67" fill-rule="evenodd" d="M152.22 181.839C165.552 189.871 178.651 193.751 184.8 192.167C200.22 188.195 201.637 131.818 189.707 109.593C177.776 87.3673 116.443 77.68 113.352 121.716C112.279 136.999 118.7 150.638 128.187 161.768L111.176 241.009H160.588L152.22 181.839Z" clip-rule="evenodd"/><path fill="#191847" fill-rule="evenodd" d="M116.564 90.7987C78.7163 127.837 116.709 167.204 127.119 167.204C127.79 161.86 129.84 156.662 132.843 151.714C131.248 149.65 130.303 147.082 130.303 144.298C130.303 137.48 135.978 131.952 142.978 131.952C145.165 131.952 147.222 132.492 149.017 133.441C164.191 120.507 183.222 111.491 192.671 109.718C209.107 106.635 154.412 53.7602 116.564 90.7987Z" clip-rule="evenodd"/><path fill="#192AEA" fill-rule="evenodd" d="M330.394 99.9309V70.3458C330.394 60.5949 322.489 52.6903 312.738 52.6903C302.987 52.6903 295.083 60.5949 295.083 70.3458V99.9309C295.083 109.682 302.987 117.586 312.738 117.586C322.489 117.586 330.394 109.682 330.394 99.9309ZM312.738 46.0098C299.298 46.0098 288.402 56.9054 288.402 70.3458V99.9309C288.402 113.371 299.298 124.267 312.738 124.267C326.179 124.267 337.074 113.371 337.074 99.9309V70.3458C337.074 56.9054 326.179 46.0098 312.738 46.0098ZM275.041 94.2048C276.886 94.2048 278.382 95.7003 278.382 97.5451C278.382 116.236 293.637 131.425 312.5 131.425C331.363 131.425 346.618 116.236 346.618 97.5451C346.618 95.7003 348.114 94.2048 349.958 94.2048C351.803 94.2048 353.299 95.7003 353.299 97.5451C353.299 118.566 337.224 135.823 316.664 137.896C316.9 138.393 317.033 138.949 317.033 139.536V152.42C317.033 154.528 315.324 156.238 313.216 156.238C311.107 156.238 309.398 154.528 309.398 152.42V139.536C309.398 138.994 309.511 138.479 309.715 138.012C288.498 136.589 271.701 119.034 271.701 97.5451C271.701 95.7003 273.197 94.2048 275.041 94.2048Z" clip-rule="evenodd"/><path stroke="#E8339F" stroke-linecap="round" stroke-linejoin="round" stroke-width="8" d="M262.467 192.715C270.113 176.908 271.27 158.282 264.1 141.114C256.93 123.945 242.87 111.674 226.253 106"/><path stroke="#E8339F" stroke-linecap="round" stroke-linejoin="round" stroke-width="8" d="M247.073 176.112C250.408 168.259 250.636 158.871 246.964 150.077C243.291 141.284 236.454 134.846 228.524 131.697"/></svg>