<svg xmlns="http://www.w3.org/2000/svg" width="181" height="187" fill="none" viewBox="105 52 50 1"><g><circle cx="131" cy="53" r="22" fill="#192AEA"/><circle cx="131" cy="53" r="21.5" stroke="#192AEA"/></g><g filter="url(#filter1_d)"><path fill="#fff" d="M134.821 50.5646L133.769 56.1952H136.424V58.3834H133.368L132.516 63H130.337L131.189 58.3834H127.983L127.131 63H124.952L125.803 58.3834H124V56.1952H126.204L127.256 50.5646H124.551V48.4031H127.657L128.459 44H130.638L129.836 48.4031H133.042L133.844 44H136.023L135.222 48.4031H137V50.5646H134.821ZM132.642 50.5646H129.435L128.383 56.1952H131.59L132.642 50.5646Z"/></g><defs><filter id="filter0_d" width="76" height="76" x="93" y="19" color-interpolation-filters="sRGB" filterUnits="userSpaceOnUse"><feFlood flood-opacity="0" result="BackgroundImageFix"/><feColorMatrix in="SourceAlpha" type="matrix" values="0 0 0 0 0 0 0 0 0 0 0 0 0 0 0 0 0 0 127 0"/><feOffset dy="4"/><feGaussianBlur stdDeviation="8"/><feColorMatrix type="matrix" values="0 0 0 0 0.0392157 0 0 0 0 0.168628 0 0 0 0 0.913725 0 0 0 0.26 0"/><feBlend in2="BackgroundImageFix" mode="normal" result="effect1_dropShadow"/><feBlend in="SourceGraphic" in2="effect1_dropShadow" mode="normal" result="shape"/></filter><filter id="filter1_d" width="181" height="187" x="0" y="0" color-interpolation-filters="sRGB" filterUnits="userSpaceOnUse"><feFlood flood-opacity="0" result="BackgroundImageFix"/><feColorMatrix in="SourceAlpha" type="matrix" values="0 0 0 0 0 0 0 0 0 0 0 0 0 0 0 0 0 0 127 0"/><feOffset dx="-40" dy="40"/><feGaussianBlur stdDeviation="42"/><feColorMatrix type="matrix" values="0 0 0 0 0 0 0 0 0 0 0 0 0 0 0 0 0 0 0.16 0"/><feBlend in2="BackgroundImageFix" mode="normal" result="effect1_dropShadow"/><feBlend in="SourceGraphic" in2="effect1_dropShadow" mode="normal" result="shape"/></filter></defs></svg>