<svg width="716" height="697" viewBox="0 0 716 697" fill="none" xmlns="http://www.w3.org/2000/svg">
<path opacity="0.6" d="M591.335 416.937C439.902 551.094 464.748 668.404 311.626 630.751C158.503 593.097 64.9689 438.151 102.711 284.669C140.452 131.187 295.178 37.2885 448.301 74.9417C713.817 94.5138 742.767 282.781 591.335 416.937Z" fill="#F4EDE3"/>
<path opacity="0.3" fill-rule="evenodd" clip-rule="evenodd" d="M598.444 595.131C633.543 560.032 638.535 487.582 595.556 444.603C552.576 401.623 480.127 406.615 445.028 441.714C409.929 476.813 446.063 539.051 481.314 574.302C516.564 609.553 563.345 630.23 598.444 595.131Z" fill="#E9B9BC"/>
<path fill-rule="evenodd" clip-rule="evenodd" d="M483.183 368.716C528.129 310.077 490.177 284.731 437.791 254.528C385.405 224.325 332.657 176.965 287.711 235.604C242.766 294.243 254.562 390 306.949 420.203C359.335 450.406 438.238 427.355 483.183 368.716Z" fill="#F4EDE3"/>
<path fill-rule="evenodd" clip-rule="evenodd" d="M3.00001 294.5C3.00001 293.672 2.32844 293 1.50001 293C0.671583 293 9.69216e-06 293.672 9.65595e-06 294.5L9.63411e-06 295C9.5979e-06 295.828 0.671582 296.5 1.50001 296.5C2.32844 296.5 3.00001 295.828 3.00001 295V294.5ZM3.00001 304.995C3.00001 304.166 2.32844 303.495 1.50001 303.495C0.671582 303.495 9.23342e-06 304.166 9.19721e-06 304.995L9.15352e-06 305.994C9.11731e-06 306.823 0.671582 307.494 1.50001 307.494C2.32844 307.494 3.00001 306.823 3.00001 305.994L3.00001 304.995ZM3.00001 315.99C3.00001 315.161 2.32844 314.49 1.50001 314.49C0.671582 314.49 8.75283e-06 315.161 8.71662e-06 315.99L8.67293e-06 316.989C8.63672e-06 317.817 0.671581 318.489 1.50001 318.489C2.32844 318.489 3.00001 317.817 3.00001 316.989L3.00001 315.99ZM3.00001 326.984C3.00001 326.156 2.32844 325.484 1.50001 325.484C0.671581 325.484 8.27224e-06 326.156 8.23603e-06 326.984L8.19234e-06 327.984C8.15613e-06 328.812 0.671581 329.484 1.50001 329.484C2.32844 329.484 3.00001 328.812 3.00001 327.984L3.00001 326.984ZM3.00001 337.979C3.00001 337.15 2.32843 336.479 1.50001 336.479C0.671581 336.479 7.79165e-06 337.15 7.75544e-06 337.979L7.71175e-06 338.978C7.67554e-06 339.807 0.67158 340.478 1.50001 340.478C2.32843 340.478 3.00001 339.807 3.00001 338.978L3.00001 337.979ZM3.00001 348.973C3.00001 348.145 2.32843 347.473 1.50001 347.473C0.67158 347.473 7.31106e-06 348.145 7.27485e-06 348.973L7.23116e-06 349.973C7.19495e-06 350.801 0.67158 351.473 1.50001 351.473C2.32843 351.473 3.00001 350.801 3.00001 349.973L3.00001 348.973ZM3.00001 359.968C3.00001 359.14 2.32843 358.468 1.50001 358.468C0.67158 358.468 6.83047e-06 359.14 6.79426e-06 359.968L6.75057e-06 360.968C6.71436e-06 361.796 0.67158 362.468 1.50001 362.468C2.32843 362.468 3.00001 361.796 3.00001 360.968V359.968ZM3.00001 370.963C3.00001 370.134 2.32843 369.463 1.50001 369.463C0.671579 369.463 6.34988e-06 370.134 6.31367e-06 370.963L6.26998e-06 371.962C6.23377e-06 372.791 0.671579 373.462 1.50001 373.462C2.32843 373.462 3.00001 372.791 3.00001 371.962V370.963ZM3.00001 381.957C3.00001 381.129 2.32843 380.457 1.50001 380.457C0.671579 380.457 5.86929e-06 381.129 5.83308e-06 381.957L5.78939e-06 382.957C5.75318e-06 383.785 0.671579 384.457 1.50001 384.457C2.32843 384.457 3.00001 383.785 3.00001 382.957V381.957ZM3.00001 392.952C3.00001 392.124 2.32843 391.452 1.50001 391.452C0.671578 391.452 5.38871e-06 392.124 5.35249e-06 392.952L5.3088e-06 393.952C5.27259e-06 394.78 0.671578 395.452 1.50001 395.452C2.32843 395.452 3.00001 394.78 3.00001 393.952V392.952ZM3 403.947C3.00001 403.118 2.32843 402.447 1.5 402.447C0.671578 402.447 4.90812e-06 403.118 4.8719e-06 403.947L4.82821e-06 404.946C4.792e-06 405.775 0.671578 406.446 1.5 406.446C2.32843 406.446 3 405.775 3 404.946V403.947ZM3 414.941C3 414.113 2.32843 413.441 1.5 413.441C0.671577 413.441 4.42753e-06 414.113 4.39131e-06 414.941L4.34762e-06 415.941C4.31141e-06 416.769 0.671577 417.441 1.5 417.441C2.32843 417.441 3 416.769 3 415.941V414.941ZM3 425.936C3 425.108 2.32843 424.436 1.5 424.436C0.671577 424.436 3.94694e-06 425.108 3.91073e-06 425.936L3.86704e-06 426.935C3.83082e-06 427.764 0.671577 428.435 1.5 428.435C2.32843 428.435 3 427.764 3 426.935V425.936ZM3 436.931C3 436.102 2.32843 435.431 1.5 435.431C0.671576 435.431 3.46635e-06 436.102 3.43014e-06 436.931L3.38645e-06 437.93C3.35023e-06 438.759 0.671576 439.43 1.5 439.43C2.32843 439.43 3 438.759 3 437.93V436.931ZM3 447.925C3 447.097 2.32843 446.425 1.5 446.425C0.671576 446.425 2.98576e-06 447.097 2.94955e-06 447.925L2.90586e-06 448.925C2.86965e-06 449.753 0.671576 450.425 1.5 450.425C2.32843 450.425 3 449.753 3 448.925V447.925ZM3 458.92C3 458.091 2.32843 457.42 1.5 457.42C0.671575 457.42 2.50517e-06 458.091 2.46896e-06 458.92L2.42527e-06 459.919C2.38906e-06 460.748 0.671575 461.419 1.5 461.419C2.32843 461.419 3 460.748 3 459.919V458.92ZM3 469.915C3 469.086 2.32843 468.415 1.5 468.415C0.671575 468.415 2.02458e-06 469.086 1.98837e-06 469.915L1.94468e-06 470.914C1.90847e-06 471.742 0.671575 472.414 1.5 472.414C2.32843 472.414 3 471.742 3 470.914V469.915ZM3 480.909C3 480.081 2.32843 479.409 1.5 479.409C0.671574 479.409 0 480.081 0 480.909V481.909C0 482.737 0.671574 483.409 1.5 483.409C2.32843 483.409 3 482.737 3 481.909V480.909ZM3 491.904C3 491.075 2.32843 490.404 1.5 490.404C0.671574 490.404 0 491.075 0 491.904V492.903C0 493.732 0.671574 494.403 1.5 494.403C2.32843 494.403 3 493.732 3 492.903V491.904ZM3 502.898C3 502.07 2.32843 501.398 1.5 501.398C0.671573 501.398 0 502.07 0 502.898V503.898C0 504.726 0.671573 505.398 1.5 505.398C2.32843 505.398 3 504.726 3 503.898V502.898ZM3 513.893C3 513.065 2.32843 512.393 1.5 512.393C0.671573 512.393 0 513.065 0 513.893V514.393C0 515.221 0.671573 515.893 1.5 515.893C2.32843 515.893 3 515.221 3 514.393V513.893ZM17.0357 294.5C17.0357 293.672 16.3641 293 15.5357 293C14.7073 293 14.0357 293.672 14.0357 294.5V295C14.0357 295.828 14.7073 296.5 15.5357 296.5C16.3641 296.5 17.0357 295.828 17.0357 295V294.5ZM17.0357 304.995C17.0357 304.166 16.3641 303.495 15.5357 303.495C14.7073 303.495 14.0357 304.166 14.0357 304.995L14.0357 305.994C14.0357 306.823 14.7073 307.494 15.5357 307.494C16.3641 307.494 17.0357 306.823 17.0357 305.994V304.995ZM17.0357 315.99C17.0357 315.161 16.3641 314.49 15.5357 314.49C14.7073 314.49 14.0357 315.161 14.0357 315.99V316.989C14.0357 317.817 14.7073 318.489 15.5357 318.489C16.3641 318.489 17.0357 317.817 17.0357 316.989L17.0357 315.99ZM17.0357 326.984C17.0357 326.156 16.3641 325.484 15.5357 325.484C14.7073 325.484 14.0357 326.156 14.0357 326.984L14.0357 327.984C14.0357 328.812 14.7073 329.484 15.5357 329.484C16.3641 329.484 17.0357 328.812 17.0357 327.984V326.984ZM17.0357 337.979C17.0357 337.15 16.3641 336.479 15.5357 336.479C14.7073 336.479 14.0357 337.15 14.0357 337.979V338.978C14.0357 339.807 14.7073 340.478 15.5357 340.478C16.3641 340.478 17.0357 339.807 17.0357 338.978V337.979ZM17.0357 348.973C17.0357 348.145 16.3641 347.473 15.5357 347.473C14.7073 347.473 14.0357 348.145 14.0357 348.973L14.0357 349.973C14.0357 350.801 14.7073 351.473 15.5357 351.473C16.3641 351.473 17.0357 350.801 17.0357 349.973V348.973ZM17.0357 359.968C17.0357 359.14 16.3641 358.468 15.5357 358.468C14.7073 358.468 14.0357 359.14 14.0357 359.968V360.968C14.0357 361.796 14.7073 362.468 15.5357 362.468C16.3641 362.468 17.0357 361.796 17.0357 360.968V359.968ZM17.0357 370.963C17.0357 370.134 16.3641 369.463 15.5357 369.463C14.7073 369.463 14.0357 370.134 14.0357 370.963V371.962C14.0357 372.791 14.7073 373.462 15.5357 373.462C16.3641 373.462 17.0357 372.791 17.0357 371.962V370.963ZM17.0357 381.957C17.0357 381.129 16.3641 380.457 15.5357 380.457C14.7073 380.457 14.0357 381.129 14.0357 381.957V382.957C14.0357 383.785 14.7073 384.457 15.5357 384.457C16.3641 384.457 17.0357 383.785 17.0357 382.957V381.957ZM17.0357 392.952C17.0357 392.124 16.3641 391.452 15.5357 391.452C14.7073 391.452 14.0357 392.124 14.0357 392.952V393.952C14.0357 394.78 14.7073 395.452 15.5357 395.452C16.3641 395.452 17.0357 394.78 17.0357 393.952V392.952ZM17.0357 403.947C17.0357 403.118 16.3641 402.447 15.5357 402.447C14.7073 402.447 14.0357 403.118 14.0357 403.947V404.946C14.0357 405.775 14.7073 406.446 15.5357 406.446C16.3641 406.446 17.0357 405.775 17.0357 404.946V403.947ZM17.0357 414.941C17.0357 414.113 16.3641 413.441 15.5357 413.441C14.7073 413.441 14.0357 414.113 14.0357 414.941V415.941C14.0357 416.769 14.7073 417.441 15.5357 417.441C16.3641 417.441 17.0357 416.769 17.0357 415.941V414.941ZM17.0357 425.936C17.0357 425.108 16.3641 424.436 15.5357 424.436C14.7073 424.436 14.0357 425.108 14.0357 425.936V426.935C14.0357 427.764 14.7073 428.435 15.5357 428.435C16.3641 428.435 17.0357 427.764 17.0357 426.935V425.936ZM17.0357 436.931C17.0357 436.102 16.3641 435.431 15.5357 435.431C14.7073 435.431 14.0357 436.102 14.0357 436.931V437.93C14.0357 438.759 14.7073 439.43 15.5357 439.43C16.3641 439.43 17.0357 438.759 17.0357 437.93V436.931ZM17.0357 447.925C17.0357 447.097 16.3641 446.425 15.5357 446.425C14.7073 446.425 14.0357 447.097 14.0357 447.925V448.925C14.0357 449.753 14.7073 450.425 15.5357 450.425C16.3641 450.425 17.0357 449.753 17.0357 448.925V447.925ZM17.0357 458.92C17.0357 458.091 16.3641 457.42 15.5357 457.42C14.7073 457.42 14.0357 458.091 14.0357 458.92V459.919C14.0357 460.748 14.7073 461.419 15.5357 461.419C16.3641 461.419 17.0357 460.748 17.0357 459.919V458.92ZM17.0357 469.915C17.0357 469.086 16.3641 468.415 15.5357 468.415C14.7073 468.415 14.0357 469.086 14.0357 469.915V470.914C14.0357 471.742 14.7073 472.414 15.5357 472.414C16.3641 472.414 17.0357 471.742 17.0357 470.914V469.915ZM17.0357 480.909C17.0357 480.081 16.3641 479.409 15.5357 479.409C14.7073 479.409 14.0357 480.081 14.0357 480.909V481.909C14.0357 482.737 14.7073 483.409 15.5357 483.409C16.3641 483.409 17.0357 482.737 17.0357 481.909V480.909ZM17.0357 491.904C17.0357 491.075 16.3641 490.404 15.5357 490.404C14.7073 490.404 14.0357 491.075 14.0357 491.904V492.903C14.0357 493.732 14.7073 494.403 15.5357 494.403C16.3641 494.403 17.0357 493.732 17.0357 492.903V491.904ZM17.0357 502.898C17.0357 502.07 16.3641 501.398 15.5357 501.398C14.7073 501.398 14.0357 502.07 14.0357 502.898V503.898C14.0357 504.726 14.7073 505.398 15.5357 505.398C16.3641 505.398 17.0357 504.726 17.0357 503.898V502.898ZM17.0357 513.893C17.0357 513.065 16.3641 512.393 15.5357 512.393C14.7073 512.393 14.0357 513.065 14.0357 513.893V514.393C14.0357 515.221 14.7073 515.893 15.5357 515.893C16.3641 515.893 17.0357 515.221 17.0357 514.393V513.893ZM29.5714 293C30.3999 293 31.0714 293.672 31.0714 294.5V295C31.0714 295.828 30.3999 296.5 29.5714 296.5C28.743 296.5 28.0714 295.828 28.0714 295V294.5C28.0714 293.672 28.743 293 29.5714 293ZM29.5714 303.495C30.3999 303.495 31.0714 304.166 31.0714 304.995V305.994C31.0714 306.823 30.3999 307.494 29.5714 307.494C28.743 307.494 28.0714 306.823 28.0714 305.994V304.995C28.0714 304.166 28.743 303.495 29.5714 303.495ZM29.5714 314.49C30.3999 314.49 31.0714 315.161 31.0714 315.99L31.0714 316.989C31.0714 317.817 30.3999 318.489 29.5714 318.489C28.743 318.489 28.0714 317.817 28.0714 316.989L28.0714 315.99C28.0714 315.161 28.743 314.49 29.5714 314.49ZM29.5714 325.484C30.3999 325.484 31.0714 326.156 31.0714 326.984V327.984C31.0714 328.812 30.3999 329.484 29.5714 329.484C28.743 329.484 28.0714 328.812 28.0714 327.984V326.984C28.0714 326.156 28.743 325.484 29.5714 325.484ZM29.5714 336.479C30.3999 336.479 31.0714 337.15 31.0714 337.979V338.978C31.0714 339.807 30.3999 340.478 29.5714 340.478C28.743 340.478 28.0714 339.807 28.0714 338.978V337.979C28.0714 337.15 28.743 336.479 29.5714 336.479ZM29.5714 347.473C30.3999 347.473 31.0714 348.145 31.0714 348.973V349.973C31.0714 350.801 30.3999 351.473 29.5714 351.473C28.743 351.473 28.0714 350.801 28.0714 349.973V348.973C28.0714 348.145 28.743 347.473 29.5714 347.473ZM29.5714 358.468C30.3999 358.468 31.0714 359.14 31.0714 359.968V360.968C31.0714 361.796 30.3999 362.468 29.5714 362.468C28.743 362.468 28.0714 361.796 28.0714 360.968V359.968C28.0714 359.14 28.743 358.468 29.5714 358.468ZM29.5714 369.463C30.3999 369.463 31.0714 370.134 31.0714 370.963V371.962C31.0714 372.791 30.3999 373.462 29.5714 373.462C28.743 373.462 28.0714 372.791 28.0714 371.962V370.963C28.0714 370.134 28.743 369.463 29.5714 369.463ZM29.5714 380.457C30.3999 380.457 31.0714 381.129 31.0714 381.957V382.957C31.0714 383.785 30.3999 384.457 29.5714 384.457C28.743 384.457 28.0714 383.785 28.0714 382.957V381.957C28.0714 381.129 28.743 380.457 29.5714 380.457ZM29.5714 391.452C30.3999 391.452 31.0714 392.124 31.0714 392.952V393.952C31.0714 394.78 30.3999 395.452 29.5714 395.452C28.743 395.452 28.0714 394.78 28.0714 393.952V392.952C28.0714 392.124 28.743 391.452 29.5714 391.452ZM29.5714 402.447C30.3999 402.447 31.0714 403.118 31.0714 403.947V404.946C31.0714 405.775 30.3999 406.446 29.5714 406.446C28.743 406.446 28.0714 405.775 28.0714 404.946V403.947C28.0714 403.118 28.743 402.447 29.5714 402.447ZM29.5714 413.441C30.3999 413.441 31.0714 414.113 31.0714 414.941V415.941C31.0714 416.769 30.3999 417.441 29.5714 417.441C28.743 417.441 28.0714 416.769 28.0714 415.941V414.941C28.0714 414.113 28.743 413.441 29.5714 413.441ZM29.5714 424.436C30.3999 424.436 31.0714 425.108 31.0714 425.936V426.935C31.0714 427.764 30.3999 428.435 29.5714 428.435C28.743 428.435 28.0714 427.764 28.0714 426.935V425.936C28.0714 425.108 28.743 424.436 29.5714 424.436ZM29.5714 435.431C30.3999 435.431 31.0714 436.102 31.0714 436.931V437.93C31.0714 438.759 30.3999 439.43 29.5714 439.43C28.743 439.43 28.0714 438.759 28.0714 437.93V436.931C28.0714 436.102 28.743 435.431 29.5714 435.431ZM29.5714 446.425C30.3999 446.425 31.0714 447.097 31.0714 447.925V448.925C31.0714 449.753 30.3999 450.425 29.5714 450.425C28.743 450.425 28.0714 449.753 28.0714 448.925V447.925C28.0714 447.097 28.743 446.425 29.5714 446.425ZM29.5714 457.42C30.3999 457.42 31.0714 458.091 31.0714 458.92V459.919C31.0714 460.748 30.3999 461.419 29.5714 461.419C28.743 461.419 28.0714 460.748 28.0714 459.919V458.92C28.0714 458.091 28.743 457.42 29.5714 457.42ZM29.5714 468.415C30.3999 468.415 31.0714 469.086 31.0714 469.915V470.914C31.0714 471.742 30.3999 472.414 29.5714 472.414C28.743 472.414 28.0714 471.742 28.0714 470.914V469.915C28.0714 469.086 28.743 468.415 29.5714 468.415ZM29.5714 479.409C30.3999 479.409 31.0714 480.081 31.0714 480.909V481.909C31.0714 482.737 30.3999 483.409 29.5714 483.409C28.743 483.409 28.0714 482.737 28.0714 481.909V480.909C28.0714 480.081 28.743 479.409 29.5714 479.409ZM29.5714 490.404C30.3999 490.404 31.0714 491.075 31.0714 491.904V492.903C31.0714 493.732 30.3999 494.403 29.5714 494.403C28.743 494.403 28.0714 493.732 28.0714 492.903V491.904C28.0714 491.075 28.743 490.404 29.5714 490.404ZM29.5714 501.398C30.3999 501.398 31.0714 502.07 31.0714 502.898V503.898C31.0714 504.726 30.3999 505.398 29.5714 505.398C28.743 505.398 28.0714 504.726 28.0714 503.898V502.898C28.0714 502.07 28.743 501.398 29.5714 501.398ZM29.5714 512.393C30.3999 512.393 31.0714 513.065 31.0714 513.893V514.393C31.0714 515.221 30.3999 515.893 29.5714 515.893C28.743 515.893 28.0714 515.221 28.0714 514.393V513.893C28.0714 513.065 28.743 512.393 29.5714 512.393ZM45.1072 294.5C45.1072 293.672 44.4356 293 43.6072 293C42.7787 293 42.1072 293.672 42.1072 294.5V295C42.1072 295.828 42.7787 296.5 43.6072 296.5C44.4356 296.5 45.1072 295.828 45.1072 295V294.5ZM45.1072 304.995C45.1072 304.166 44.4356 303.495 43.6072 303.495C42.7787 303.495 42.1072 304.166 42.1072 304.995V305.994C42.1072 306.823 42.7787 307.494 43.6072 307.494C44.4356 307.494 45.1072 306.823 45.1072 305.994V304.995ZM45.1072 315.99C45.1072 315.161 44.4356 314.49 43.6072 314.49C42.7787 314.49 42.1072 315.161 42.1072 315.99V316.989C42.1072 317.817 42.7787 318.489 43.6072 318.489C44.4356 318.489 45.1072 317.817 45.1072 316.989V315.99ZM45.1072 326.984C45.1072 326.156 44.4356 325.484 43.6072 325.484C42.7787 325.484 42.1072 326.156 42.1072 326.984V327.984C42.1072 328.812 42.7787 329.484 43.6072 329.484C44.4356 329.484 45.1072 328.812 45.1072 327.984V326.984ZM45.1072 337.979C45.1072 337.15 44.4356 336.479 43.6072 336.479C42.7787 336.479 42.1072 337.15 42.1072 337.979L42.1072 338.978C42.1072 339.807 42.7787 340.478 43.6072 340.478C44.4356 340.478 45.1072 339.807 45.1072 338.978L45.1072 337.979ZM45.1072 348.973C45.1072 348.145 44.4356 347.473 43.6072 347.473C42.7787 347.473 42.1072 348.145 42.1072 348.973V349.973C42.1072 350.801 42.7787 351.473 43.6072 351.473C44.4356 351.473 45.1072 350.801 45.1072 349.973V348.973ZM45.1072 359.968C45.1072 359.14 44.4356 358.468 43.6072 358.468C42.7787 358.468 42.1072 359.14 42.1072 359.968V360.968C42.1072 361.796 42.7787 362.468 43.6072 362.468C44.4356 362.468 45.1072 361.796 45.1072 360.968V359.968ZM45.1072 370.963C45.1072 370.134 44.4356 369.463 43.6072 369.463C42.7787 369.463 42.1072 370.134 42.1072 370.963V371.962C42.1072 372.791 42.7787 373.462 43.6072 373.462C44.4356 373.462 45.1072 372.791 45.1072 371.962V370.963ZM45.1072 381.957C45.1072 381.129 44.4356 380.457 43.6072 380.457C42.7787 380.457 42.1072 381.129 42.1072 381.957V382.957C42.1072 383.785 42.7787 384.457 43.6072 384.457C44.4356 384.457 45.1072 383.785 45.1072 382.957V381.957ZM45.1072 392.952C45.1072 392.124 44.4356 391.452 43.6072 391.452C42.7787 391.452 42.1072 392.124 42.1072 392.952V393.952C42.1072 394.78 42.7787 395.452 43.6072 395.452C44.4356 395.452 45.1072 394.78 45.1072 393.952V392.952ZM45.1072 403.947C45.1072 403.118 44.4356 402.447 43.6072 402.447C42.7787 402.447 42.1072 403.118 42.1072 403.947V404.946C42.1072 405.775 42.7787 406.446 43.6072 406.446C44.4356 406.446 45.1072 405.775 45.1072 404.946V403.947ZM45.1072 414.941C45.1072 414.113 44.4356 413.441 43.6072 413.441C42.7787 413.441 42.1072 414.113 42.1072 414.941V415.941C42.1072 416.769 42.7787 417.441 43.6072 417.441C44.4356 417.441 45.1072 416.769 45.1072 415.941V414.941ZM45.1071 425.936C45.1072 425.108 44.4356 424.436 43.6072 424.436C42.7787 424.436 42.1072 425.108 42.1071 425.936V426.935C42.1071 427.764 42.7787 428.435 43.6071 428.435C44.4356 428.435 45.1071 427.764 45.1071 426.935V425.936ZM45.1071 436.931C45.1071 436.102 44.4356 435.431 43.6071 435.431C42.7787 435.431 42.1071 436.102 42.1071 436.931V437.93C42.1071 438.759 42.7787 439.43 43.6071 439.43C44.4356 439.43 45.1071 438.759 45.1071 437.93V436.931ZM45.1071 447.925C45.1071 447.097 44.4356 446.425 43.6071 446.425C42.7787 446.425 42.1071 447.097 42.1071 447.925V448.925C42.1071 449.753 42.7787 450.425 43.6071 450.425C44.4356 450.425 45.1071 449.753 45.1071 448.925V447.925ZM45.1071 458.92C45.1071 458.091 44.4356 457.42 43.6071 457.42C42.7787 457.42 42.1071 458.091 42.1071 458.92V459.919C42.1071 460.748 42.7787 461.419 43.6071 461.419C44.4356 461.419 45.1071 460.748 45.1071 459.919V458.92ZM45.1071 469.915C45.1071 469.086 44.4356 468.415 43.6071 468.415C42.7787 468.415 42.1071 469.086 42.1071 469.915V470.914C42.1071 471.742 42.7787 472.414 43.6071 472.414C44.4356 472.414 45.1071 471.742 45.1071 470.914V469.915ZM45.1071 480.909C45.1071 480.081 44.4356 479.409 43.6071 479.409C42.7787 479.409 42.1071 480.081 42.1071 480.909V481.909C42.1071 482.737 42.7787 483.409 43.6071 483.409C44.4356 483.409 45.1071 482.737 45.1071 481.909V480.909ZM45.1071 491.904C45.1071 491.075 44.4356 490.404 43.6071 490.404C42.7787 490.404 42.1071 491.075 42.1071 491.904V492.903C42.1071 493.732 42.7787 494.403 43.6071 494.403C44.4356 494.403 45.1071 493.732 45.1071 492.903V491.904ZM45.1071 502.898C45.1071 502.07 44.4356 501.398 43.6071 501.398C42.7787 501.398 42.1071 502.07 42.1071 502.898V503.898C42.1071 504.726 42.7787 505.398 43.6071 505.398C44.4356 505.398 45.1071 504.726 45.1071 503.898V502.898ZM45.1071 513.893C45.1071 513.065 44.4356 512.393 43.6071 512.393C42.7787 512.393 42.1071 513.065 42.1071 513.893V514.393C42.1071 515.221 42.7787 515.893 43.6071 515.893C44.4356 515.893 45.1071 515.221 45.1071 514.393V513.893ZM57.6429 293C58.4713 293 59.1429 293.672 59.1429 294.5V295C59.1429 295.828 58.4713 296.5 57.6429 296.5C56.8144 296.5 56.1429 295.828 56.1429 295V294.5C56.1429 293.672 56.8144 293 57.6429 293ZM57.6429 303.495C58.4713 303.495 59.1429 304.166 59.1429 304.995V305.994C59.1429 306.823 58.4713 307.494 57.6429 307.494C56.8144 307.494 56.1429 306.823 56.1429 305.994V304.995C56.1429 304.166 56.8144 303.495 57.6429 303.495ZM57.6429 314.49C58.4713 314.49 59.1429 315.161 59.1429 315.99V316.989C59.1429 317.817 58.4713 318.489 57.6429 318.489C56.8144 318.489 56.1429 317.817 56.1429 316.989V315.99C56.1429 315.161 56.8144 314.49 57.6429 314.49ZM57.6429 325.484C58.4713 325.484 59.1429 326.156 59.1429 326.984V327.984C59.1429 328.812 58.4713 329.484 57.6429 329.484C56.8144 329.484 56.1429 328.812 56.1429 327.984V326.984C56.1429 326.156 56.8144 325.484 57.6429 325.484ZM57.6429 336.479C58.4713 336.479 59.1429 337.15 59.1429 337.979L59.1429 338.978C59.1429 339.807 58.4713 340.478 57.6429 340.478C56.8144 340.478 56.1429 339.807 56.1429 338.978L56.1429 337.979C56.1429 337.15 56.8144 336.479 57.6429 336.479ZM57.6429 347.473C58.4713 347.473 59.1429 348.145 59.1429 348.973V349.973C59.1429 350.801 58.4713 351.473 57.6429 351.473C56.8144 351.473 56.1429 350.801 56.1429 349.973V348.973C56.1429 348.145 56.8144 347.473 57.6429 347.473ZM57.6429 358.468C58.4713 358.468 59.1429 359.14 59.1429 359.968V360.968C59.1429 361.796 58.4713 362.468 57.6429 362.468C56.8144 362.468 56.1429 361.796 56.1429 360.968V359.968C56.1429 359.14 56.8144 358.468 57.6429 358.468ZM57.6429 369.463C58.4713 369.463 59.1429 370.134 59.1429 370.963V371.962C59.1429 372.791 58.4713 373.462 57.6429 373.462C56.8144 373.462 56.1429 372.791 56.1429 371.962V370.963C56.1429 370.134 56.8144 369.463 57.6429 369.463ZM57.6429 380.457C58.4713 380.457 59.1429 381.129 59.1429 381.957V382.957C59.1429 383.785 58.4713 384.457 57.6429 384.457C56.8144 384.457 56.1429 383.785 56.1429 382.957V381.957C56.1429 381.129 56.8144 380.457 57.6429 380.457ZM57.6429 391.452C58.4713 391.452 59.1429 392.124 59.1429 392.952V393.952C59.1429 394.78 58.4713 395.452 57.6429 395.452C56.8144 395.452 56.1429 394.78 56.1429 393.952V392.952C56.1429 392.124 56.8144 391.452 57.6429 391.452ZM57.6429 402.447C58.4713 402.447 59.1429 403.118 59.1429 403.947V404.946C59.1429 405.775 58.4713 406.446 57.6429 406.446C56.8144 406.446 56.1429 405.775 56.1429 404.946V403.947C56.1429 403.118 56.8144 402.447 57.6429 402.447ZM57.6429 413.441C58.4713 413.441 59.1429 414.113 59.1429 414.941V415.941C59.1429 416.769 58.4713 417.441 57.6429 417.441C56.8144 417.441 56.1429 416.769 56.1429 415.941V414.941C56.1429 414.113 56.8144 413.441 57.6429 413.441ZM57.6429 424.436C58.4713 424.436 59.1429 425.108 59.1429 425.936V426.935C59.1429 427.764 58.4713 428.435 57.6429 428.435C56.8144 428.435 56.1429 427.764 56.1429 426.935V425.936C56.1429 425.108 56.8144 424.436 57.6429 424.436ZM57.6429 435.431C58.4713 435.431 59.1429 436.102 59.1429 436.931V437.93C59.1429 438.759 58.4713 439.43 57.6429 439.43C56.8144 439.43 56.1429 438.759 56.1429 437.93V436.931C56.1429 436.102 56.8144 435.431 57.6429 435.431ZM57.6429 446.425C58.4713 446.425 59.1429 447.097 59.1429 447.925V448.925C59.1429 449.753 58.4713 450.425 57.6429 450.425C56.8144 450.425 56.1429 449.753 56.1429 448.925V447.925C56.1429 447.097 56.8144 446.425 57.6429 446.425ZM57.6429 457.42C58.4713 457.42 59.1429 458.091 59.1429 458.92V459.919C59.1429 460.748 58.4713 461.419 57.6429 461.419C56.8144 461.419 56.1429 460.748 56.1429 459.919V458.92C56.1429 458.091 56.8144 457.42 57.6429 457.42ZM57.6429 468.415C58.4713 468.415 59.1429 469.086 59.1429 469.915V470.914C59.1429 471.742 58.4713 472.414 57.6429 472.414C56.8144 472.414 56.1429 471.742 56.1429 470.914V469.915C56.1429 469.086 56.8144 468.415 57.6429 468.415ZM57.6429 479.409C58.4713 479.409 59.1429 480.081 59.1429 480.909V481.909C59.1429 482.737 58.4713 483.409 57.6429 483.409C56.8144 483.409 56.1429 482.737 56.1429 481.909V480.909C56.1429 480.081 56.8144 479.409 57.6429 479.409ZM57.6429 490.404C58.4713 490.404 59.1429 491.075 59.1429 491.904V492.903C59.1429 493.732 58.4713 494.403 57.6429 494.403C56.8144 494.403 56.1429 493.732 56.1429 492.903V491.904C56.1429 491.075 56.8144 490.404 57.6429 490.404ZM57.6429 501.398C58.4713 501.398 59.1429 502.07 59.1429 502.898V503.898C59.1429 504.726 58.4713 505.398 57.6429 505.398C56.8144 505.398 56.1429 504.726 56.1429 503.898V502.898C56.1429 502.07 56.8144 501.398 57.6429 501.398ZM57.6429 512.393C58.4713 512.393 59.1429 513.065 59.1429 513.893V514.393C59.1429 515.221 58.4713 515.893 57.6429 515.893C56.8144 515.893 56.1429 515.221 56.1429 514.393V513.893C56.1429 513.065 56.8144 512.393 57.6429 512.393ZM73.1786 294.5C73.1786 293.672 72.507 293 71.6786 293C70.8502 293 70.1786 293.672 70.1786 294.5V295C70.1786 295.828 70.8502 296.5 71.6786 296.5C72.507 296.5 73.1786 295.828 73.1786 295V294.5ZM73.1786 304.995C73.1786 304.166 72.507 303.495 71.6786 303.495C70.8502 303.495 70.1786 304.166 70.1786 304.995V305.994C70.1786 306.823 70.8502 307.494 71.6786 307.494C72.507 307.494 73.1786 306.823 73.1786 305.994V304.995ZM73.1786 315.99C73.1786 315.161 72.507 314.49 71.6786 314.49C70.8502 314.49 70.1786 315.161 70.1786 315.99V316.989C70.1786 317.817 70.8502 318.489 71.6786 318.489C72.507 318.489 73.1786 317.817 73.1786 316.989V315.99ZM73.1786 326.984C73.1786 326.156 72.507 325.484 71.6786 325.484C70.8502 325.484 70.1786 326.156 70.1786 326.984V327.984C70.1786 328.812 70.8502 329.484 71.6786 329.484C72.507 329.484 73.1786 328.812 73.1786 327.984V326.984ZM73.1786 337.979C73.1786 337.15 72.507 336.479 71.6786 336.479C70.8502 336.479 70.1786 337.15 70.1786 337.979V338.978C70.1786 339.807 70.8502 340.478 71.6786 340.478C72.507 340.478 73.1786 339.807 73.1786 338.978V337.979ZM73.1786 348.973C73.1786 348.145 72.507 347.473 71.6786 347.473C70.8502 347.473 70.1786 348.145 70.1786 348.973V349.973C70.1786 350.801 70.8502 351.473 71.6786 351.473C72.507 351.473 73.1786 350.801 73.1786 349.973V348.973ZM73.1786 359.968C73.1786 359.14 72.507 358.468 71.6786 358.468C70.8502 358.468 70.1786 359.14 70.1786 359.968V360.968C70.1786 361.796 70.8502 362.468 71.6786 362.468C72.507 362.468 73.1786 361.796 73.1786 360.968V359.968ZM73.1786 370.963C73.1786 370.134 72.507 369.463 71.6786 369.463C70.8502 369.463 70.1786 370.134 70.1786 370.963V371.962C70.1786 372.791 70.8502 373.462 71.6786 373.462C72.507 373.462 73.1786 372.791 73.1786 371.962V370.963ZM73.1786 381.957C73.1786 381.129 72.507 380.457 71.6786 380.457C70.8502 380.457 70.1786 381.129 70.1786 381.957V382.957C70.1786 383.785 70.8502 384.457 71.6786 384.457C72.507 384.457 73.1786 383.785 73.1786 382.957V381.957ZM73.1786 392.952C73.1786 392.124 72.507 391.452 71.6786 391.452C70.8502 391.452 70.1786 392.124 70.1786 392.952V393.952C70.1786 394.78 70.8502 395.452 71.6786 395.452C72.507 395.452 73.1786 394.78 73.1786 393.952V392.952ZM73.1786 403.947C73.1786 403.118 72.507 402.447 71.6786 402.447C70.8502 402.447 70.1786 403.118 70.1786 403.947V404.946C70.1786 405.775 70.8502 406.446 71.6786 406.446C72.507 406.446 73.1786 405.775 73.1786 404.946V403.947ZM73.1786 414.941C73.1786 414.113 72.507 413.441 71.6786 413.441C70.8502 413.441 70.1786 414.113 70.1786 414.941V415.941C70.1786 416.769 70.8502 417.441 71.6786 417.441C72.507 417.441 73.1786 416.769 73.1786 415.941V414.941ZM73.1786 425.936C73.1786 425.108 72.507 424.436 71.6786 424.436C70.8502 424.436 70.1786 425.108 70.1786 425.936V426.935C70.1786 427.764 70.8502 428.435 71.6786 428.435C72.507 428.435 73.1786 427.764 73.1786 426.935V425.936ZM73.1786 436.931C73.1786 436.102 72.507 435.431 71.6786 435.431C70.8502 435.431 70.1786 436.102 70.1786 436.931V437.93C70.1786 438.759 70.8502 439.43 71.6786 439.43C72.507 439.43 73.1786 438.759 73.1786 437.93V436.931ZM73.1786 447.925C73.1786 447.097 72.507 446.425 71.6786 446.425C70.8502 446.425 70.1786 447.097 70.1786 447.925V448.925C70.1786 449.753 70.8502 450.425 71.6786 450.425C72.507 450.425 73.1786 449.753 73.1786 448.925V447.925ZM73.1786 458.92C73.1786 458.091 72.507 457.42 71.6786 457.42C70.8501 457.42 70.1786 458.091 70.1786 458.92V459.919C70.1786 460.748 70.8501 461.419 71.6786 461.419C72.507 461.419 73.1786 460.748 73.1786 459.919V458.92ZM73.1786 469.915C73.1786 469.086 72.507 468.415 71.6786 468.415C70.8501 468.415 70.1786 469.086 70.1786 469.915V470.914C70.1786 471.742 70.8501 472.414 71.6786 472.414C72.507 472.414 73.1786 471.742 73.1786 470.914V469.915ZM73.1786 480.909C73.1786 480.081 72.507 479.409 71.6786 479.409C70.8501 479.409 70.1786 480.081 70.1786 480.909V481.909C70.1786 482.737 70.8501 483.409 71.6786 483.409C72.507 483.409 73.1786 482.737 73.1786 481.909V480.909ZM73.1786 491.904C73.1786 491.075 72.507 490.404 71.6786 490.404C70.8501 490.404 70.1786 491.075 70.1786 491.904V492.903C70.1786 493.732 70.8501 494.403 71.6786 494.403C72.507 494.403 73.1786 493.732 73.1786 492.903V491.904ZM73.1786 502.898C73.1786 502.07 72.507 501.398 71.6786 501.398C70.8501 501.398 70.1786 502.07 70.1786 502.898V503.898C70.1786 504.726 70.8501 505.398 71.6786 505.398C72.507 505.398 73.1786 504.726 73.1786 503.898V502.898ZM73.1786 513.893C73.1786 513.065 72.507 512.393 71.6786 512.393C70.8501 512.393 70.1786 513.065 70.1786 513.893V514.393C70.1786 515.221 70.8501 515.893 71.6786 515.893C72.507 515.893 73.1786 515.221 73.1786 514.393V513.893ZM85.7143 293C86.5427 293 87.2143 293.672 87.2143 294.5V295C87.2143 295.828 86.5427 296.5 85.7143 296.5C84.8859 296.5 84.2143 295.828 84.2143 295V294.5C84.2143 293.672 84.8859 293 85.7143 293ZM85.7143 303.495C86.5427 303.495 87.2143 304.166 87.2143 304.995V305.994C87.2143 306.823 86.5427 307.494 85.7143 307.494C84.8859 307.494 84.2143 306.823 84.2143 305.994V304.995C84.2143 304.166 84.8859 303.495 85.7143 303.495ZM85.7143 314.49C86.5427 314.49 87.2143 315.161 87.2143 315.99V316.989C87.2143 317.817 86.5427 318.489 85.7143 318.489C84.8859 318.489 84.2143 317.817 84.2143 316.989V315.99C84.2143 315.161 84.8859 314.49 85.7143 314.49ZM85.7143 325.484C86.5427 325.484 87.2143 326.156 87.2143 326.984V327.984C87.2143 328.812 86.5427 329.484 85.7143 329.484C84.8859 329.484 84.2143 328.812 84.2143 327.984V326.984C84.2143 326.156 84.8859 325.484 85.7143 325.484ZM85.7143 336.479C86.5427 336.479 87.2143 337.15 87.2143 337.979V338.978C87.2143 339.807 86.5427 340.478 85.7143 340.478C84.8859 340.478 84.2143 339.807 84.2143 338.978V337.979C84.2143 337.15 84.8859 336.479 85.7143 336.479ZM85.7143 347.473C86.5427 347.473 87.2143 348.145 87.2143 348.973V349.973C87.2143 350.801 86.5427 351.473 85.7143 351.473C84.8859 351.473 84.2143 350.801 84.2143 349.973V348.973C84.2143 348.145 84.8859 347.473 85.7143 347.473ZM85.7143 358.468C86.5427 358.468 87.2143 359.14 87.2143 359.968V360.968C87.2143 361.796 86.5427 362.468 85.7143 362.468C84.8859 362.468 84.2143 361.796 84.2143 360.968V359.968C84.2143 359.14 84.8859 358.468 85.7143 358.468ZM85.7143 369.463C86.5427 369.463 87.2143 370.134 87.2143 370.963V371.962C87.2143 372.791 86.5427 373.462 85.7143 373.462C84.8859 373.462 84.2143 372.791 84.2143 371.962V370.963C84.2143 370.134 84.8859 369.463 85.7143 369.463ZM85.7143 380.457C86.5427 380.457 87.2143 381.129 87.2143 381.957V382.957C87.2143 383.785 86.5427 384.457 85.7143 384.457C84.8859 384.457 84.2143 383.785 84.2143 382.957V381.957C84.2143 381.129 84.8859 380.457 85.7143 380.457ZM85.7143 391.452C86.5427 391.452 87.2143 392.124 87.2143 392.952V393.952C87.2143 394.78 86.5427 395.452 85.7143 395.452C84.8859 395.452 84.2143 394.78 84.2143 393.952V392.952C84.2143 392.124 84.8859 391.452 85.7143 391.452ZM85.7143 402.447C86.5427 402.447 87.2143 403.118 87.2143 403.947V404.946C87.2143 405.775 86.5427 406.446 85.7143 406.446C84.8859 406.446 84.2143 405.775 84.2143 404.946V403.947C84.2143 403.118 84.8859 402.447 85.7143 402.447ZM85.7143 413.441C86.5427 413.441 87.2143 414.113 87.2143 414.941V415.941C87.2143 416.769 86.5427 417.441 85.7143 417.441C84.8859 417.441 84.2143 416.769 84.2143 415.941V414.941C84.2143 414.113 84.8859 413.441 85.7143 413.441ZM85.7143 424.436C86.5427 424.436 87.2143 425.108 87.2143 425.936V426.935C87.2143 427.764 86.5427 428.435 85.7143 428.435C84.8859 428.435 84.2143 427.764 84.2143 426.935V425.936C84.2143 425.108 84.8859 424.436 85.7143 424.436ZM85.7143 435.431C86.5427 435.431 87.2143 436.102 87.2143 436.931V437.93C87.2143 438.759 86.5427 439.43 85.7143 439.43C84.8859 439.43 84.2143 438.759 84.2143 437.93V436.931C84.2143 436.102 84.8859 435.431 85.7143 435.431ZM85.7143 446.425C86.5427 446.425 87.2143 447.097 87.2143 447.925V448.925C87.2143 449.753 86.5427 450.425 85.7143 450.425C84.8859 450.425 84.2143 449.753 84.2143 448.925V447.925C84.2143 447.097 84.8859 446.425 85.7143 446.425ZM85.7143 457.42C86.5427 457.42 87.2143 458.091 87.2143 458.92V459.919C87.2143 460.748 86.5427 461.419 85.7143 461.419C84.8859 461.419 84.2143 460.748 84.2143 459.919V458.92C84.2143 458.091 84.8859 457.42 85.7143 457.42ZM85.7143 468.415C86.5427 468.415 87.2143 469.086 87.2143 469.915V470.914C87.2143 471.742 86.5427 472.414 85.7143 472.414C84.8859 472.414 84.2143 471.742 84.2143 470.914V469.915C84.2143 469.086 84.8859 468.415 85.7143 468.415ZM85.7143 479.409C86.5427 479.409 87.2143 480.081 87.2143 480.909V481.909C87.2143 482.737 86.5427 483.409 85.7143 483.409C84.8859 483.409 84.2143 482.737 84.2143 481.909V480.909C84.2143 480.081 84.8859 479.409 85.7143 479.409ZM85.7143 490.404C86.5427 490.404 87.2143 491.075 87.2143 491.904V492.903C87.2143 493.732 86.5427 494.403 85.7143 494.403C84.8859 494.403 84.2143 493.732 84.2143 492.903V491.904C84.2143 491.075 84.8859 490.404 85.7143 490.404ZM85.7143 501.398C86.5427 501.398 87.2143 502.07 87.2143 502.898V503.898C87.2143 504.726 86.5427 505.398 85.7143 505.398C84.8859 505.398 84.2143 504.726 84.2143 503.898V502.898C84.2143 502.07 84.8859 501.398 85.7143 501.398ZM85.7143 512.393C86.5427 512.393 87.2143 513.065 87.2143 513.893V514.393C87.2143 515.221 86.5427 515.893 85.7143 515.893C84.8859 515.893 84.2143 515.221 84.2143 514.393V513.893C84.2143 513.065 84.8859 512.393 85.7143 512.393ZM101.25 294.5C101.25 293.672 100.578 293 99.75 293C98.9216 293 98.25 293.672 98.25 294.5V295C98.25 295.828 98.9216 296.5 99.75 296.5C100.578 296.5 101.25 295.828 101.25 295V294.5ZM101.25 304.995C101.25 304.166 100.578 303.495 99.75 303.495C98.9216 303.495 98.25 304.166 98.25 304.995V305.994C98.25 306.823 98.9216 307.494 99.75 307.494C100.578 307.494 101.25 306.823 101.25 305.994V304.995ZM101.25 315.99C101.25 315.161 100.578 314.49 99.75 314.49C98.9216 314.49 98.25 315.161 98.25 315.99V316.989C98.25 317.817 98.9216 318.489 99.75 318.489C100.578 318.489 101.25 317.817 101.25 316.989V315.99ZM101.25 326.984C101.25 326.156 100.578 325.484 99.75 325.484C98.9216 325.484 98.25 326.156 98.25 326.984V327.984C98.25 328.812 98.9216 329.484 99.75 329.484C100.578 329.484 101.25 328.812 101.25 327.984V326.984ZM101.25 337.979C101.25 337.15 100.578 336.479 99.75 336.479C98.9216 336.479 98.25 337.15 98.25 337.979V338.978C98.25 339.807 98.9216 340.478 99.75 340.478C100.578 340.478 101.25 339.807 101.25 338.978V337.979ZM101.25 348.973C101.25 348.145 100.578 347.473 99.75 347.473C98.9216 347.473 98.25 348.145 98.25 348.973V349.973C98.25 350.801 98.9216 351.473 99.75 351.473C100.578 351.473 101.25 350.801 101.25 349.973V348.973ZM101.25 359.968C101.25 359.14 100.578 358.468 99.75 358.468C98.9216 358.468 98.25 359.14 98.25 359.968V360.968C98.25 361.796 98.9216 362.468 99.75 362.468C100.578 362.468 101.25 361.796 101.25 360.968V359.968ZM101.25 370.963C101.25 370.134 100.578 369.463 99.75 369.463C98.9216 369.463 98.25 370.134 98.25 370.963V371.962C98.25 372.791 98.9216 373.462 99.75 373.462C100.578 373.462 101.25 372.791 101.25 371.962V370.963ZM101.25 381.957C101.25 381.129 100.578 380.457 99.75 380.457C98.9216 380.457 98.25 381.129 98.25 381.957V382.957C98.25 383.785 98.9216 384.457 99.75 384.457C100.578 384.457 101.25 383.785 101.25 382.957V381.957ZM101.25 392.952C101.25 392.124 100.578 391.452 99.75 391.452C98.9216 391.452 98.25 392.124 98.25 392.952V393.952C98.25 394.78 98.9216 395.452 99.75 395.452C100.578 395.452 101.25 394.78 101.25 393.952V392.952ZM101.25 403.947C101.25 403.118 100.578 402.447 99.75 402.447C98.9216 402.447 98.25 403.118 98.25 403.947V404.946C98.25 405.775 98.9216 406.446 99.75 406.446C100.578 406.446 101.25 405.775 101.25 404.946V403.947ZM101.25 414.941C101.25 414.113 100.578 413.441 99.75 413.441C98.9216 413.441 98.25 414.113 98.25 414.941V415.941C98.25 416.769 98.9216 417.441 99.75 417.441C100.578 417.441 101.25 416.769 101.25 415.941V414.941ZM101.25 425.936C101.25 425.108 100.578 424.436 99.75 424.436C98.9216 424.436 98.25 425.108 98.25 425.936V426.935C98.25 427.764 98.9216 428.435 99.75 428.435C100.578 428.435 101.25 427.764 101.25 426.935V425.936ZM101.25 436.931C101.25 436.102 100.578 435.431 99.75 435.431C98.9216 435.431 98.25 436.102 98.25 436.931V437.93C98.25 438.759 98.9216 439.43 99.75 439.43C100.578 439.43 101.25 438.759 101.25 437.93V436.931ZM101.25 447.925C101.25 447.097 100.578 446.425 99.75 446.425C98.9216 446.425 98.25 447.097 98.25 447.925V448.925C98.25 449.753 98.9216 450.425 99.75 450.425C100.578 450.425 101.25 449.753 101.25 448.925V447.925ZM101.25 458.92C101.25 458.091 100.578 457.42 99.75 457.42C98.9216 457.42 98.25 458.091 98.25 458.92V459.919C98.25 460.748 98.9216 461.419 99.75 461.419C100.578 461.419 101.25 460.748 101.25 459.919V458.92ZM101.25 469.915C101.25 469.086 100.578 468.415 99.75 468.415C98.9216 468.415 98.25 469.086 98.25 469.915V470.914C98.25 471.742 98.9216 472.414 99.75 472.414C100.578 472.414 101.25 471.742 101.25 470.914V469.915ZM101.25 480.909C101.25 480.081 100.578 479.409 99.75 479.409C98.9216 479.409 98.25 480.081 98.25 480.909V481.909C98.25 482.737 98.9216 483.409 99.75 483.409C100.578 483.409 101.25 482.737 101.25 481.909V480.909ZM101.25 491.904C101.25 491.075 100.578 490.404 99.75 490.404C98.9216 490.404 98.25 491.075 98.25 491.904V492.903C98.25 493.732 98.9216 494.403 99.75 494.403C100.578 494.403 101.25 493.732 101.25 492.903V491.904ZM101.25 502.898C101.25 502.07 100.578 501.398 99.75 501.398C98.9216 501.398 98.25 502.07 98.25 502.898V503.898C98.25 504.726 98.9216 505.398 99.75 505.398C100.578 505.398 101.25 504.726 101.25 503.898V502.898ZM101.25 513.893C101.25 513.065 100.578 512.393 99.75 512.393C98.9216 512.393 98.25 513.065 98.25 513.893V514.393C98.25 515.221 98.9216 515.893 99.75 515.893C100.578 515.893 101.25 515.221 101.25 514.393V513.893ZM113.786 293C114.614 293 115.286 293.672 115.286 294.5V295C115.286 295.828 114.614 296.5 113.786 296.5C112.957 296.5 112.286 295.828 112.286 295V294.5C112.286 293.672 112.957 293 113.786 293ZM113.786 303.495C114.614 303.495 115.286 304.166 115.286 304.995V305.994C115.286 306.823 114.614 307.494 113.786 307.494C112.957 307.494 112.286 306.823 112.286 305.994V304.995C112.286 304.166 112.957 303.495 113.786 303.495ZM113.786 314.49C114.614 314.49 115.286 315.161 115.286 315.99V316.989C115.286 317.817 114.614 318.489 113.786 318.489C112.957 318.489 112.286 317.817 112.286 316.989V315.99C112.286 315.161 112.957 314.49 113.786 314.49ZM113.786 325.484C114.614 325.484 115.286 326.156 115.286 326.984V327.984C115.286 328.812 114.614 329.484 113.786 329.484C112.957 329.484 112.286 328.812 112.286 327.984V326.984C112.286 326.156 112.957 325.484 113.786 325.484ZM113.786 336.479C114.614 336.479 115.286 337.15 115.286 337.979V338.978C115.286 339.807 114.614 340.478 113.786 340.478C112.957 340.478 112.286 339.807 112.286 338.978V337.979C112.286 337.15 112.957 336.479 113.786 336.479ZM113.786 347.473C114.614 347.473 115.286 348.145 115.286 348.973V349.973C115.286 350.801 114.614 351.473 113.786 351.473C112.957 351.473 112.286 350.801 112.286 349.973V348.973C112.286 348.145 112.957 347.473 113.786 347.473ZM113.786 358.468C114.614 358.468 115.286 359.14 115.286 359.968V360.968C115.286 361.796 114.614 362.468 113.786 362.468C112.957 362.468 112.286 361.796 112.286 360.968V359.968C112.286 359.14 112.957 358.468 113.786 358.468ZM113.786 369.463C114.614 369.463 115.286 370.134 115.286 370.963V371.962C115.286 372.791 114.614 373.462 113.786 373.462C112.957 373.462 112.286 372.791 112.286 371.962V370.963C112.286 370.134 112.957 369.463 113.786 369.463ZM113.786 380.457C114.614 380.457 115.286 381.129 115.286 381.957V382.957C115.286 383.785 114.614 384.457 113.786 384.457C112.957 384.457 112.286 383.785 112.286 382.957V381.957C112.286 381.129 112.957 380.457 113.786 380.457ZM113.786 391.452C114.614 391.452 115.286 392.124 115.286 392.952V393.952C115.286 394.78 114.614 395.452 113.786 395.452C112.957 395.452 112.286 394.78 112.286 393.952V392.952C112.286 392.124 112.957 391.452 113.786 391.452ZM113.786 402.447C114.614 402.447 115.286 403.118 115.286 403.947V404.946C115.286 405.775 114.614 406.446 113.786 406.446C112.957 406.446 112.286 405.775 112.286 404.946V403.947C112.286 403.118 112.957 402.447 113.786 402.447ZM113.786 413.441C114.614 413.441 115.286 414.113 115.286 414.941V415.941C115.286 416.769 114.614 417.441 113.786 417.441C112.957 417.441 112.286 416.769 112.286 415.941V414.941C112.286 414.113 112.957 413.441 113.786 413.441ZM113.786 424.436C114.614 424.436 115.286 425.108 115.286 425.936V426.935C115.286 427.764 114.614 428.435 113.786 428.435C112.957 428.435 112.286 427.764 112.286 426.935V425.936C112.286 425.108 112.957 424.436 113.786 424.436ZM113.786 435.431C114.614 435.431 115.286 436.102 115.286 436.931V437.93C115.286 438.759 114.614 439.43 113.786 439.43C112.957 439.43 112.286 438.759 112.286 437.93V436.931C112.286 436.102 112.957 435.431 113.786 435.431ZM113.786 446.425C114.614 446.425 115.286 447.097 115.286 447.925V448.925C115.286 449.753 114.614 450.425 113.786 450.425C112.957 450.425 112.286 449.753 112.286 448.925V447.925C112.286 447.097 112.957 446.425 113.786 446.425ZM113.786 457.42C114.614 457.42 115.286 458.091 115.286 458.92V459.919C115.286 460.748 114.614 461.419 113.786 461.419C112.957 461.419 112.286 460.748 112.286 459.919V458.92C112.286 458.091 112.957 457.42 113.786 457.42ZM113.786 468.415C114.614 468.415 115.286 469.086 115.286 469.915V470.914C115.286 471.742 114.614 472.414 113.786 472.414C112.957 472.414 112.286 471.742 112.286 470.914V469.915C112.286 469.086 112.957 468.415 113.786 468.415ZM113.786 479.409C114.614 479.409 115.286 480.081 115.286 480.909V481.909C115.286 482.737 114.614 483.409 113.786 483.409C112.957 483.409 112.286 482.737 112.286 481.909V480.909C112.286 480.081 112.957 479.409 113.786 479.409ZM113.786 490.404C114.614 490.404 115.286 491.075 115.286 491.904V492.903C115.286 493.732 114.614 494.403 113.786 494.403C112.957 494.403 112.286 493.732 112.286 492.903V491.904C112.286 491.075 112.957 490.404 113.786 490.404ZM113.786 501.398C114.614 501.398 115.286 502.07 115.286 502.898V503.898C115.286 504.726 114.614 505.398 113.786 505.398C112.957 505.398 112.286 504.726 112.286 503.898V502.898C112.286 502.07 112.957 501.398 113.786 501.398ZM113.786 512.393C114.614 512.393 115.286 513.065 115.286 513.893V514.393C115.286 515.221 114.614 515.893 113.786 515.893C112.957 515.893 112.286 515.221 112.286 514.393V513.893C112.286 513.065 112.957 512.393 113.786 512.393ZM129.321 294.5C129.321 293.672 128.65 293 127.821 293C126.993 293 126.321 293.672 126.321 294.5V295C126.321 295.828 126.993 296.5 127.821 296.5C128.65 296.5 129.321 295.828 129.321 295V294.5ZM129.321 304.995C129.321 304.166 128.65 303.495 127.821 303.495C126.993 303.495 126.321 304.166 126.321 304.995V305.994C126.321 306.823 126.993 307.494 127.821 307.494C128.65 307.494 129.321 306.823 129.321 305.994V304.995ZM129.321 315.99C129.321 315.161 128.65 314.49 127.821 314.49C126.993 314.49 126.321 315.161 126.321 315.99V316.989C126.321 317.817 126.993 318.489 127.821 318.489C128.65 318.489 129.321 317.817 129.321 316.989V315.99ZM129.321 326.984C129.321 326.156 128.65 325.484 127.821 325.484C126.993 325.484 126.321 326.156 126.321 326.984V327.984C126.321 328.812 126.993 329.484 127.821 329.484C128.65 329.484 129.321 328.812 129.321 327.984V326.984ZM129.321 337.979C129.321 337.15 128.65 336.479 127.821 336.479C126.993 336.479 126.321 337.15 126.321 337.979V338.978C126.321 339.807 126.993 340.478 127.821 340.478C128.65 340.478 129.321 339.807 129.321 338.978V337.979ZM129.321 348.973C129.321 348.145 128.65 347.473 127.821 347.473C126.993 347.473 126.321 348.145 126.321 348.973V349.973C126.321 350.801 126.993 351.473 127.821 351.473C128.65 351.473 129.321 350.801 129.321 349.973V348.973ZM129.321 359.968C129.321 359.14 128.65 358.468 127.821 358.468C126.993 358.468 126.321 359.14 126.321 359.968V360.968C126.321 361.796 126.993 362.468 127.821 362.468C128.65 362.468 129.321 361.796 129.321 360.968V359.968ZM129.321 370.963C129.321 370.134 128.65 369.463 127.821 369.463C126.993 369.463 126.321 370.134 126.321 370.963V371.962C126.321 372.791 126.993 373.462 127.821 373.462C128.65 373.462 129.321 372.791 129.321 371.962V370.963ZM129.321 381.957C129.321 381.129 128.65 380.457 127.821 380.457C126.993 380.457 126.321 381.129 126.321 381.957V382.957C126.321 383.785 126.993 384.457 127.821 384.457C128.65 384.457 129.321 383.785 129.321 382.957V381.957ZM129.321 392.952C129.321 392.124 128.65 391.452 127.821 391.452C126.993 391.452 126.321 392.124 126.321 392.952V393.952C126.321 394.78 126.993 395.452 127.821 395.452C128.65 395.452 129.321 394.78 129.321 393.952V392.952ZM129.321 403.947C129.321 403.118 128.65 402.447 127.821 402.447C126.993 402.447 126.321 403.118 126.321 403.947V404.946C126.321 405.775 126.993 406.446 127.821 406.446C128.65 406.446 129.321 405.775 129.321 404.946V403.947ZM129.321 414.941C129.321 414.113 128.65 413.441 127.821 413.441C126.993 413.441 126.321 414.113 126.321 414.941V415.941C126.321 416.769 126.993 417.441 127.821 417.441C128.65 417.441 129.321 416.769 129.321 415.941V414.941ZM129.321 425.936C129.321 425.108 128.65 424.436 127.821 424.436C126.993 424.436 126.321 425.108 126.321 425.936V426.935C126.321 427.764 126.993 428.435 127.821 428.435C128.65 428.435 129.321 427.764 129.321 426.935V425.936ZM129.321 436.931C129.321 436.102 128.65 435.431 127.821 435.431C126.993 435.431 126.321 436.102 126.321 436.931V437.93C126.321 438.759 126.993 439.43 127.821 439.43C128.65 439.43 129.321 438.759 129.321 437.93V436.931ZM129.321 447.925C129.321 447.097 128.65 446.425 127.821 446.425C126.993 446.425 126.321 447.097 126.321 447.925V448.925C126.321 449.753 126.993 450.425 127.821 450.425C128.65 450.425 129.321 449.753 129.321 448.925V447.925ZM129.321 458.92C129.321 458.091 128.65 457.42 127.821 457.42C126.993 457.42 126.321 458.091 126.321 458.92V459.919C126.321 460.748 126.993 461.419 127.821 461.419C128.65 461.419 129.321 460.748 129.321 459.919V458.92ZM129.321 469.915C129.321 469.086 128.65 468.415 127.821 468.415C126.993 468.415 126.321 469.086 126.321 469.915V470.914C126.321 471.742 126.993 472.414 127.821 472.414C128.65 472.414 129.321 471.742 129.321 470.914V469.915ZM129.321 480.909C129.321 480.081 128.65 479.409 127.821 479.409C126.993 479.409 126.321 480.081 126.321 480.909V481.909C126.321 482.737 126.993 483.409 127.821 483.409C128.65 483.409 129.321 482.737 129.321 481.909V480.909ZM129.321 491.904C129.321 491.075 128.65 490.404 127.821 490.404C126.993 490.404 126.321 491.075 126.321 491.904V492.903C126.321 493.732 126.993 494.403 127.821 494.403C128.65 494.403 129.321 493.732 129.321 492.903V491.904ZM129.321 502.898C129.321 502.07 128.65 501.398 127.821 501.398C126.993 501.398 126.321 502.07 126.321 502.898V503.898C126.321 504.726 126.993 505.398 127.821 505.398C128.65 505.398 129.321 504.726 129.321 503.898V502.898ZM129.321 513.893C129.321 513.065 128.65 512.393 127.821 512.393C126.993 512.393 126.321 513.065 126.321 513.893V514.393C126.321 515.221 126.993 515.893 127.821 515.893C128.65 515.893 129.321 515.221 129.321 514.393V513.893Z" fill="url(#paint0_linear)"/>
<defs>
<linearGradient id="paint0_linear" x1="0" y1="402.92" x2="129.321" y2="402.92" gradientUnits="userSpaceOnUse">
<stop stop-color="#192AEA"/>
<stop offset="1" stop-color="#05C7F2"/>
</linearGradient>
</defs>
</svg>
